<?xml version="1.0" encoding="UTF-8"?>
<svg id="Layer_1" data-name="Layer 1" xmlns="http://www.w3.org/2000/svg" width="1920" height="825.48" viewBox="0 0 1920 825.48">
  <g>
    <g>
      <path d="M570.91,159.99h0c-6.6-2.03-7.87-10.82-2.1-14.63h0c1-2.13-4.06-11.27-5.24-11.47h0c-6.65,1.86-12.47-4.85-9.68-11.17h0c-.08-3.02-8.83-8.57-10.61-6.82h0c-4.59,5.16-13.11,2.66-14.18-4.16h0c-1.12-1.6-11.47-1.24-12.61,0h0c-1.07,6.82-9.59,9.33-14.18,4.16h0c-.31-.46-10.63,4.82-10.61,6.82h0c2.79,6.32-3.03,13.03-9.68,11.17h0c-2.55-1.16-6.59,8.31-5.24,11.47h0c5.76,3.81,4.5,12.6-2.1,14.63h0c-3.15,1.9-1.56,12.14,1.79,12.48h0c6.91.09,10.6,8.17,6.14,13.45h0c-.96,3.75,6.16,11.41,8.26,9.53h0c5.86-3.66,13.33,1.14,12.43,7.99h0c-.28,3.69,9.92,6.68,12.31,3.89,4.49-5.25,11.62-6.58,14.57-.33h0c1.07.08,12.18-.62,12.1-3.55h0c-.9-6.85,6.58-11.65,12.43-7.99h0c2.48,2.14,8.41-6.09,8.26-9.53h0c-4.46-5.28-.77-13.36,6.14-13.45h0c1.85-.19,3.11-10.44,1.79-12.48ZM522.79,173.77c-8.43,0-15.26-6.83-15.26-15.26s6.83-15.26,15.26-15.26,15.26,6.83,15.26,15.26-6.83,15.26-15.26,15.26Z" fill="#685e68" stroke="#000" stroke-miterlimit="10" stroke-width="5"/>
      <path d="M523.31,248.34v-15.27h4.36c28.92,0,55.21-17.2,67-43.31l-14.36-2.38,29.9-36.39,16.57,44.09-16.61-2.75c-13.36,33.66-46.06,56.02-82.5,56.02h-4.36Z"/>
      <path d="M620.03,189.53l-11.25-29.94-20.3,24.71,12.29,2.04c-11.11,30.32-40.46,51.09-73.1,51.09v6.55c35.8,0,67.95-23.05,79.67-56.55l12.69,2.1Z" fill="#fdb441"/>
      <circle cx="512.99" cy="239.83" r="21.01" fill="#6ed7a3" stroke="#000" stroke-miterlimit="10" stroke-width="4"/>
      <path d="M612.49,113.22l-12.7,8.49-2.43-3.63c-16.08-24.04-44.99-36.33-73.25-31.61l6.01,13.26-46.87-4.62,27.43-38.28,6.95,15.33c35.4-7.61,72.17,7.14,92.43,37.43l2.43,3.63Z"/>
      <path d="M509.83,65.52l-18.63,26,31.83,3.14-5.14-11.35c31.38-7.62,64.96,5.23,83.11,32.36l5.44-3.64c-19.9-29.76-56.93-43.66-91.29-34.78l-5.31-11.72Z" fill="#fdb441"/>
      <polygon points="634.61 140.87 590.37 140.87 612.49 102.56 634.61 140.87" fill="#8ac9fe" stroke="#000" stroke-miterlimit="10" stroke-width="4"/>
      <path d="M440.51,115.68l13.39,7.34-2.1,3.83c-13.91,25.36-11.46,56.68,5.76,79.57l8.99-11.45,17.53,43.71-46.62-6.67,10.4-13.24c-23.08-27.9-26.97-67.32-9.45-99.27l2.1-3.83Z"/>
      <path d="M445.56,228.77l31.66,4.53-11.9-29.68-7.7,9.8c-21.24-24.32-25.34-60.04-9.64-88.66l-5.74-3.15c-17.21,31.39-12.46,70.66,11.27,97.04l-7.95,10.12Z" fill="#fdb441"/>
      <rect x="429.92" y="78.2" width="43.41" height="43.41" fill="#fe646f" stroke="#000" stroke-miterlimit="10" stroke-width="4"/>
    </g>
    <g>
      <path d="M416.9,321.91h-8.97l-1.57,5.07h-6.99l9.96-27.15h6.15l10.03,27.15h-7.03l-1.58-5.07ZM409.5,316.85h5.84l-2.93-9.42-2.91,9.42Z"/>
      <path d="M426.41,316.74c0-3.19.69-5.71,2.07-7.55,1.38-1.84,3.31-2.76,5.78-2.76,1.8,0,3.32.71,4.55,2.13v-10.22h6.3v28.64h-5.65l-.32-2.16c-1.29,1.69-2.93,2.54-4.92,2.54-2.4,0-4.3-.92-5.71-2.76-1.4-1.84-2.11-4.46-2.11-7.85ZM432.69,317.13c0,3.58,1.04,5.37,3.13,5.37,1.39,0,2.39-.58,2.98-1.75v-7.68c-.57-1.19-1.55-1.79-2.95-1.79-1.94,0-2.99,1.57-3.15,4.7l-.02,1.16Z"/>
      <path d="M460.05,326.98c-.22-.41-.42-1.01-.6-1.81-1.16,1.45-2.77,2.18-4.85,2.18-1.9,0-3.52-.57-4.85-1.72s-2-2.59-2-4.33c0-2.19.81-3.84,2.42-4.96s3.96-1.68,7.05-1.68h1.94v-1.07c0-1.86-.8-2.79-2.41-2.79-1.49,0-2.24.74-2.24,2.21h-6.28c0-1.95.83-3.53,2.49-4.75,1.66-1.22,3.78-1.83,6.35-1.83s4.61.63,6.1,1.88c1.49,1.26,2.26,2.98,2.29,5.16v8.93c.02,1.85.31,3.27.86,4.25v.32h-6.28ZM456.11,322.88c.78,0,1.43-.17,1.95-.5.52-.34.89-.71,1.11-1.14v-3.23h-1.83c-2.19,0-3.28.98-3.28,2.95,0,.57.19,1.03.58,1.39.39.35.88.53,1.47.53Z"/>
      <path d="M487.68,317.04c0,3.13-.71,5.63-2.12,7.5-1.41,1.87-3.32,2.81-5.71,2.81-1.85,0-3.37-.68-4.57-2.03v9.42h-6.28v-27.93h5.87l.19,1.86c1.21-1.49,2.79-2.24,4.75-2.24,2.49,0,4.42.92,5.8,2.75,1.38,1.83,2.07,4.35,2.07,7.56v.3ZM481.39,316.65c0-3.58-1.04-5.37-3.13-5.37-1.49,0-2.49.53-2.98,1.6v7.94c.55,1.12,1.55,1.68,3.02,1.68,2,0,3.03-1.73,3.09-5.18v-.67Z"/>
      <path d="M497.76,301.79v5.02h3.32v4.36h-3.32v9.23c0,.76.14,1.29.41,1.58.27.3.81.45,1.62.45.62,0,1.14-.04,1.57-.11v4.49c-1.13.36-2.31.54-3.54.54-2.16,0-3.76-.51-4.79-1.53s-1.55-2.57-1.55-4.64v-10.01h-2.57v-4.36h2.57v-5.02h6.28Z"/>
      <path d="M514.92,326.98c-.22-.41-.42-1.01-.6-1.81-1.16,1.45-2.77,2.18-4.85,2.18-1.9,0-3.52-.57-4.85-1.72s-2-2.59-2-4.33c0-2.19.81-3.84,2.42-4.96s3.96-1.68,7.05-1.68h1.94v-1.07c0-1.86-.8-2.79-2.41-2.79-1.49,0-2.24.74-2.24,2.21h-6.28c0-1.95.83-3.53,2.49-4.75,1.66-1.22,3.78-1.83,6.35-1.83s4.61.63,6.1,1.88c1.49,1.26,2.26,2.98,2.29,5.16v8.93c.02,1.85.31,3.27.86,4.25v.32h-6.28ZM510.98,322.88c.78,0,1.43-.17,1.95-.5.52-.34.89-.71,1.11-1.14v-3.23h-1.83c-2.19,0-3.28.98-3.28,2.95,0,.57.19,1.03.58,1.39.39.35.88.53,1.47.53Z"/>
      <path d="M542.55,317.06c0,3.31-.68,5.85-2.05,7.63-1.37,1.78-3.29,2.67-5.78,2.67-2.05,0-3.7-.81-4.96-2.44l-.26,2.07h-5.63v-28.64h6.28v10.09c1.17-1.33,2.68-2,4.53-2,2.51,0,4.45.9,5.82,2.7,1.37,1.8,2.05,4.34,2.05,7.61v.32ZM536.25,316.66c0-1.94-.26-3.32-.77-4.14s-1.31-1.24-2.38-1.24c-1.42,0-2.4.54-2.95,1.62v8c.53,1.07,1.53,1.6,2.98,1.6s2.42-.72,2.82-2.16c.2-.71.3-1.94.3-3.69Z"/>
      <path d="M551.94,326.98h-6.3v-28.64h6.3v28.64Z"/>
      <path d="M565.57,327.35c-3.1,0-5.6-.92-7.51-2.77-1.91-1.85-2.87-4.25-2.87-7.21v-.52c0-2.06.38-3.88,1.15-5.46.76-1.58,1.88-2.8,3.35-3.66,1.47-.86,3.21-1.3,5.22-1.3,2.83,0,5.07.88,6.71,2.64,1.64,1.76,2.46,4.21,2.46,7.36v2.44h-12.49c.22,1.13.71,2.02,1.47,2.67.76.65,1.74.97,2.95.97,1.99,0,3.54-.7,4.66-2.09l2.87,3.39c-.78,1.08-1.89,1.94-3.33,2.58-1.44.64-2.98.96-4.63.96ZM564.87,311.28c-1.84,0-2.93,1.22-3.28,3.65h6.34v-.48c.02-1.01-.23-1.79-.76-2.34-.53-.55-1.3-.83-2.29-.83Z"/>
      <path d="M586.4,326.98v-27.15h8.74c2.4,0,4.56.54,6.47,1.63,1.91,1.09,3.41,2.62,4.48,4.61,1.07,1.98,1.62,4.2,1.63,6.67v1.25c0,2.49-.53,4.71-1.58,6.68s-2.53,3.51-4.44,4.62c-1.91,1.11-4.04,1.68-6.39,1.69h-8.93ZM592.94,304.88v17.06h2.27c1.88,0,3.32-.67,4.33-2,1.01-1.34,1.51-3.32,1.51-5.96v-1.17c0-2.62-.5-4.6-1.51-5.93s-2.47-2-4.4-2h-2.2Z"/>
      <path d="M622.16,326.98c-.22-.41-.42-1.01-.6-1.81-1.16,1.45-2.77,2.18-4.85,2.18-1.9,0-3.52-.57-4.85-1.72s-2-2.59-2-4.33c0-2.19.81-3.84,2.42-4.96s3.96-1.68,7.05-1.68h1.94v-1.07c0-1.86-.8-2.79-2.41-2.79-1.49,0-2.24.74-2.24,2.21h-6.28c0-1.95.83-3.53,2.49-4.75,1.66-1.22,3.78-1.83,6.35-1.83s4.61.63,6.1,1.88c1.49,1.26,2.26,2.98,2.29,5.16v8.93c.02,1.85.31,3.27.86,4.25v.32h-6.28ZM618.23,322.88c.78,0,1.43-.17,1.95-.5.52-.34.89-.71,1.11-1.14v-3.23h-1.83c-2.19,0-3.28.98-3.28,2.95,0,.57.19,1.03.58,1.39.39.35.88.53,1.47.53Z"/>
      <path d="M638.38,301.79v5.02h3.32v4.36h-3.32v9.23c0,.76.14,1.29.41,1.58.27.3.81.45,1.62.45.62,0,1.14-.04,1.57-.11v4.49c-1.13.36-2.31.54-3.54.54-2.16,0-3.76-.51-4.79-1.53s-1.55-2.57-1.55-4.64v-10.01h-2.57v-4.36h2.57v-5.02h6.28Z"/>
      <path d="M655.53,326.98c-.22-.41-.42-1.01-.6-1.81-1.16,1.45-2.77,2.18-4.85,2.18-1.9,0-3.52-.57-4.85-1.72s-2-2.59-2-4.33c0-2.19.81-3.84,2.42-4.96s3.96-1.68,7.05-1.68h1.94v-1.07c0-1.86-.8-2.79-2.41-2.79-1.49,0-2.24.74-2.24,2.21h-6.28c0-1.95.83-3.53,2.49-4.75,1.66-1.22,3.78-1.83,6.35-1.83s4.61.63,6.1,1.88c1.49,1.26,2.26,2.98,2.29,5.16v8.93c.02,1.85.31,3.27.86,4.25v.32h-6.28ZM651.6,322.88c.78,0,1.43-.17,1.95-.5.52-.34.89-.71,1.11-1.14v-3.23h-1.83c-2.19,0-3.28.98-3.28,2.95,0,.57.19,1.03.58,1.39.39.35.88.53,1.47.53Z"/>
      <path d="M453.82,361.98h-10.55v10.81h-6.54v-27.15h18.16v5.05h-11.62v6.25h10.55v5.03Z"/>
      <path d="M469.03,358.31l-2.07-.15c-1.98,0-3.24.62-3.8,1.86v12.77h-6.28v-20.17h5.89l.21,2.59c1.06-1.98,2.53-2.96,4.42-2.96.67,0,1.25.07,1.75.22l-.11,5.84Z"/>
      <path d="M482.1,372.8c-.22-.41-.42-1.01-.6-1.81-1.16,1.45-2.77,2.18-4.85,2.18-1.9,0-3.52-.57-4.85-1.72s-2-2.59-2-4.33c0-2.19.81-3.84,2.42-4.96s3.96-1.68,7.05-1.68h1.94v-1.07c0-1.86-.8-2.79-2.41-2.79-1.49,0-2.24.74-2.24,2.21h-6.28c0-1.95.83-3.53,2.49-4.75,1.66-1.22,3.78-1.83,6.35-1.83s4.61.63,6.1,1.88c1.49,1.26,2.26,2.98,2.29,5.16v8.93c.02,1.85.31,3.27.86,4.25v.32h-6.28ZM478.17,368.7c.78,0,1.43-.17,1.95-.5.52-.34.89-.71,1.11-1.14v-3.23h-1.83c-2.19,0-3.28.98-3.28,2.95,0,.57.19,1.03.58,1.39.39.35.88.53,1.47.53Z"/>
      <path d="M496.94,352.62l.21,2.37c1.43-1.83,3.35-2.74,5.76-2.74,2.55,0,4.27,1.01,5.16,3.04,1.37-2.03,3.34-3.04,5.93-3.04,4.09,0,6.19,2.47,6.3,7.42v13.13h-6.3v-12.73c0-1.03-.17-1.78-.52-2.26-.35-.47-.98-.71-1.9-.71-1.24,0-2.17.55-2.78,1.66l.02.26v13.78h-6.3v-12.7c0-1.06-.17-1.82-.5-2.29-.34-.47-.98-.71-1.92-.71-1.21,0-2.13.55-2.76,1.66v14.04h-6.28v-20.17h5.89Z"/>
      <path d="M533.65,373.17c-3.1,0-5.6-.92-7.51-2.77-1.91-1.85-2.87-4.25-2.87-7.21v-.52c0-2.06.38-3.88,1.15-5.46.76-1.58,1.88-2.8,3.35-3.66,1.47-.86,3.21-1.3,5.22-1.3,2.83,0,5.07.88,6.71,2.64,1.64,1.76,2.46,4.21,2.46,7.36v2.44h-12.49c.22,1.13.71,2.02,1.47,2.67.76.65,1.74.97,2.95.97,1.99,0,3.54-.7,4.66-2.09l2.87,3.39c-.78,1.08-1.89,1.94-3.33,2.58-1.44.64-2.98.96-4.63.96ZM532.95,357.1c-1.84,0-2.93,1.22-3.28,3.65h6.34v-.48c.02-1.01-.23-1.79-.76-2.34-.53-.55-1.3-.83-2.29-.83Z"/>
      <path d="M562.11,364.52l2.03-11.9h6.02l-4.75,20.17h-5.31l-3.34-11.97-3.36,11.97h-5.31l-4.75-20.17h6.02l2,12.17,3.21-12.17h4.38l3.17,11.9Z"/>
      <path d="M571.62,362.52c0-2.01.39-3.81,1.17-5.38s1.91-2.78,3.37-3.63,3.19-1.27,5.16-1.27c3.02,0,5.4.94,7.14,2.81s2.61,4.42,2.61,7.63v.22c0,3.15-.87,5.64-2.62,7.49-1.75,1.85-4.11,2.77-7.09,2.77s-5.18-.86-6.92-2.58c-1.74-1.72-2.68-4.06-2.82-7l-.02-1.06ZM577.9,362.92c0,1.86.29,3.23.88,4.1.58.87,1.45,1.31,2.59,1.31,2.24,0,3.38-1.72,3.43-5.16v-.63c0-3.62-1.16-5.43-3.47-5.43-2.1,0-3.24,1.56-3.41,4.68l-.02,1.14Z"/>
      <path d="M606.05,358.31l-2.07-.15c-1.98,0-3.24.62-3.8,1.86v12.77h-6.28v-20.17h5.89l.21,2.59c1.06-1.98,2.53-2.96,4.42-2.96.67,0,1.25.07,1.75.22l-.11,5.84Z"/>
      <path d="M616.42,365.28l-1.77,1.77v5.74h-6.28v-28.66h6.28v15.21l.63-.84,4.74-5.89h7.53l-7.07,8.3,7.53,11.88h-7.2l-4.4-7.51Z"/>
    </g>
  </g>
  <g>
    <g>
      <path d="M858.37,316.16h-10.55v10.81h-6.54v-27.15h18.16v5.05h-11.62v6.25h10.55v5.03Z"/>
      <path d="M868.49,326.98h-6.3v-28.64h6.3v28.64Z"/>
      <path d="M882.12,327.35c-3.1,0-5.6-.92-7.51-2.77-1.91-1.85-2.87-4.25-2.87-7.21v-.52c0-2.06.38-3.88,1.15-5.46.76-1.58,1.88-2.8,3.35-3.66,1.47-.86,3.21-1.3,5.22-1.3,2.83,0,5.07.88,6.71,2.64,1.64,1.76,2.46,4.21,2.46,7.36v2.44h-12.49c.22,1.13.71,2.02,1.47,2.67.76.65,1.74.97,2.95.97,1.99,0,3.54-.7,4.66-2.09l2.87,3.39c-.78,1.08-1.89,1.94-3.33,2.58-1.44.64-2.98.96-4.63.96ZM881.41,311.28c-1.84,0-2.93,1.22-3.28,3.65h6.34v-.48c.02-1.01-.23-1.79-.76-2.34-.53-.55-1.3-.83-2.29-.83Z"/>
      <path d="M901.32,312.36l2.93-5.56h6.53l-5.31,9.83,5.57,10.35h-6.56l-3.17-5.97-3.11,5.97h-6.6l5.59-10.35-5.29-9.83h6.6l2.83,5.56Z"/>
      <path d="M912.75,301.6c0-.9.32-1.63.97-2.2.65-.57,1.49-.86,2.52-.86s1.87.29,2.52.86c.65.57.97,1.31.97,2.2s-.32,1.63-.97,2.2c-.65.57-1.49.86-2.52.86s-1.87-.29-2.52-.86c-.65-.57-.97-1.31-.97-2.2ZM919.43,326.98h-6.3v-20.17h6.3v20.17Z"/>
      <path d="M942.03,317.06c0,3.31-.68,5.85-2.05,7.63-1.37,1.78-3.29,2.67-5.78,2.67-2.05,0-3.7-.81-4.96-2.44l-.26,2.07h-5.63v-28.64h6.28v10.09c1.17-1.33,2.68-2,4.53-2,2.51,0,4.45.9,5.82,2.7,1.37,1.8,2.05,4.34,2.05,7.61v.32ZM935.72,316.66c0-1.94-.26-3.32-.77-4.14s-1.31-1.24-2.38-1.24c-1.42,0-2.4.54-2.95,1.62v8c.53,1.07,1.53,1.6,2.98,1.6s2.42-.72,2.82-2.16c.2-.71.3-1.94.3-3.69Z"/>
      <path d="M951.42,326.98h-6.3v-28.64h6.3v28.64Z"/>
      <path d="M965.05,327.35c-3.09,0-5.6-.92-7.51-2.77-1.91-1.85-2.87-4.25-2.87-7.21v-.52c0-2.06.38-3.88,1.15-5.46.76-1.58,1.88-2.8,3.35-3.66,1.47-.86,3.21-1.3,5.22-1.3,2.83,0,5.07.88,6.71,2.64,1.64,1.76,2.46,4.21,2.46,7.36v2.44h-12.49c.22,1.13.71,2.02,1.47,2.67.76.65,1.74.97,2.95.97,1.99,0,3.54-.7,4.66-2.09l2.87,3.39c-.78,1.08-1.89,1.94-3.33,2.58-1.44.64-2.98.96-4.63.96ZM964.34,311.28c-1.84,0-2.93,1.22-3.28,3.65h6.34v-.48c.02-1.01-.23-1.79-.76-2.34-.53-.55-1.3-.83-2.29-.83Z"/>
      <path d="M985.88,326.98v-27.15h8.74c2.4,0,4.56.54,6.47,1.63,1.91,1.09,3.41,2.62,4.48,4.61,1.07,1.98,1.62,4.2,1.63,6.67v1.25c0,2.49-.53,4.71-1.58,6.68-1.05,1.97-2.53,3.51-4.44,4.62-1.91,1.11-4.04,1.68-6.39,1.69h-8.93ZM992.42,304.88v17.06h2.27c1.88,0,3.32-.67,4.33-2,1.01-1.34,1.51-3.32,1.51-5.96v-1.17c0-2.62-.5-4.6-1.51-5.93s-2.47-2-4.4-2h-2.2Z"/>
      <path d="M1021.64,326.98c-.22-.41-.42-1.01-.6-1.81-1.16,1.45-2.77,2.18-4.85,2.18-1.9,0-3.52-.57-4.85-1.72s-2-2.59-2-4.33c0-2.19.81-3.84,2.42-4.96,1.62-1.12,3.96-1.68,7.05-1.68h1.94v-1.07c0-1.86-.8-2.79-2.41-2.79-1.49,0-2.24.74-2.24,2.21h-6.28c0-1.95.83-3.53,2.49-4.75,1.66-1.22,3.78-1.83,6.35-1.83s4.61.63,6.1,1.88c1.49,1.26,2.26,2.98,2.29,5.16v8.93c.02,1.85.31,3.27.86,4.25v.32h-6.28ZM1017.7,322.88c.78,0,1.43-.17,1.95-.5.52-.34.88-.71,1.11-1.14v-3.23h-1.83c-2.19,0-3.28.98-3.28,2.95,0,.57.19,1.03.58,1.39.38.35.88.53,1.47.53Z"/>
      <path d="M1037.86,301.79v5.02h3.32v4.36h-3.32v9.23c0,.76.14,1.29.41,1.58s.81.45,1.62.45c.62,0,1.14-.04,1.57-.11v4.49c-1.13.36-2.31.54-3.54.54-2.16,0-3.76-.51-4.79-1.53-1.03-1.02-1.55-2.57-1.55-4.64v-10.01h-2.57v-4.36h2.57v-5.02h6.28Z"/>
      <path d="M1055.01,326.98c-.22-.41-.42-1.01-.6-1.81-1.16,1.45-2.77,2.18-4.85,2.18-1.9,0-3.52-.57-4.85-1.72s-2-2.59-2-4.33c0-2.19.81-3.84,2.42-4.96s3.96-1.68,7.05-1.68h1.94v-1.07c0-1.86-.8-2.79-2.4-2.79-1.49,0-2.24.74-2.24,2.21h-6.28c0-1.95.83-3.53,2.49-4.75,1.66-1.22,3.78-1.83,6.35-1.83s4.61.63,6.1,1.88c1.49,1.26,2.26,2.98,2.29,5.16v8.93c.02,1.85.31,3.27.86,4.25v.32h-6.28ZM1051.08,322.88c.78,0,1.43-.17,1.95-.5.52-.34.89-.71,1.11-1.14v-3.23h-1.83c-2.19,0-3.28.98-3.28,2.95,0,.57.19,1.03.58,1.39.38.35.88.53,1.47.53Z"/>
      <path d="M907.5,345.65l6.06,18.89,6.04-18.89h8.61v27.15h-6.56v-6.34l.63-12.98-6.56,19.32h-4.33l-6.58-19.33.63,13v6.34h-6.54v-27.15h8.6Z"/>
      <path d="M931.29,362.53c0-2.01.39-3.81,1.17-5.38s1.91-2.78,3.37-3.63,3.19-1.27,5.16-1.27c3.02,0,5.4.94,7.14,2.81s2.61,4.42,2.61,7.63v.22c0,3.15-.87,5.64-2.62,7.49-1.75,1.85-4.11,2.77-7.09,2.77s-5.18-.86-6.92-2.58c-1.74-1.72-2.68-4.06-2.82-7l-.02-1.06ZM937.57,362.92c0,1.86.29,3.23.88,4.1.58.87,1.45,1.31,2.59,1.31,2.24,0,3.38-1.72,3.43-5.16v-.63c0-3.62-1.16-5.43-3.47-5.43-2.1,0-3.24,1.56-3.41,4.68l-.02,1.14Z"/>
      <path d="M952.73,362.56c0-3.19.69-5.71,2.07-7.55,1.38-1.84,3.31-2.76,5.78-2.76,1.8,0,3.32.71,4.55,2.13v-10.22h6.3v28.64h-5.65l-.32-2.16c-1.29,1.69-2.93,2.54-4.92,2.54-2.4,0-4.3-.92-5.71-2.76-1.4-1.84-2.11-4.46-2.11-7.85ZM959.01,362.95c0,3.58,1.04,5.37,3.13,5.37,1.39,0,2.39-.58,2.98-1.75v-7.68c-.57-1.19-1.55-1.79-2.95-1.79-1.94,0-2.99,1.57-3.15,4.7l-.02,1.16Z"/>
      <path d="M984.76,373.17c-3.09,0-5.6-.92-7.51-2.77-1.91-1.85-2.87-4.25-2.87-7.21v-.52c0-2.06.38-3.88,1.15-5.46.76-1.58,1.88-2.8,3.35-3.66,1.47-.86,3.21-1.3,5.22-1.3,2.83,0,5.07.88,6.71,2.64,1.64,1.76,2.46,4.21,2.46,7.36v2.44h-12.49c.22,1.13.71,2.02,1.47,2.67.76.65,1.74.97,2.95.97,1.99,0,3.54-.7,4.66-2.09l2.87,3.39c-.78,1.08-1.89,1.94-3.33,2.58-1.44.64-2.98.96-4.63.96ZM984.05,357.1c-1.84,0-2.93,1.22-3.28,3.65h6.34v-.48c.02-1.01-.23-1.79-.76-2.34-.53-.55-1.3-.83-2.29-.83Z"/>
      <path d="M1002.42,372.8h-6.3v-28.64h6.3v28.64Z"/>
    </g>
    <g>
      <line x1="951.44" y1="116.49" x2="951.44" y2="230.66" fill="none" stroke="#000" stroke-miterlimit="10" stroke-width="4"/>
      <line x1="951.44" y1="230.66" x2="951.44" y2="191.63" fill="none" stroke="#000" stroke-miterlimit="10" stroke-width="4"/>
      <polyline points="1021.48 230.66 1021.48 215.73 879.39 215.73 879.39 230.66" fill="none" stroke="#000" stroke-miterlimit="10" stroke-width="4"/>
      <polyline points="1028.99 170.12 1028.99 154.8 872.39 154.8 872.39 170.12" fill="none" stroke="#000" stroke-miterlimit="10" stroke-width="4"/>
      <rect x="851.87" y="167.62" width="41.03" height="21.05" fill="#fcbe42" stroke="#000" stroke-miterlimit="10" stroke-width="4"/>
      <rect x="930.17" y="167.62" width="41.03" height="21.05" fill="#fcbe42" stroke="#000" stroke-miterlimit="10" stroke-width="4"/>
      <rect x="1008.47" y="167.62" width="41.03" height="21.05" fill="#fcbe42" stroke="#000" stroke-miterlimit="10" stroke-width="4"/>
      <circle cx="879.39" cy="244.12" r="13.46" fill="#f97878" stroke="#000" stroke-miterlimit="10" stroke-width="4"/>
      <circle cx="950.69" cy="244.12" r="13.46" fill="#f97878" stroke="#000" stroke-miterlimit="10" stroke-width="4"/>
      <circle cx="1021.48" cy="244.12" r="13.46" fill="#f97878" stroke="#000" stroke-miterlimit="10" stroke-width="4"/>
      <g>
        <path d="M956.53,60.1l7.85,1.17c4.05.93,13.11,3.09,13.6,8.11-.82,12.09,1.05,25.54,0,37.47-.36,4.05-5.65,6.15-9.03,7.19-10.66,3.3-26.82,3.34-37.33-.59-2.96-1.11-5.88-2.72-7.26-5.69v-39.01c1.07-2.55,3.33-4.01,5.76-5.1,4.65-2.08,10.21-2.93,15.26-3.3l.42-.24h10.72ZM947.07,62.01c-5.12.28-17.24,1.86-20.34,6.34-1.86,2.69,1.75,4.85,3.83,5.85,9.76,4.7,31.04,4.66,40.87.16,9.17-4.2,3.2-8.23-3.13-10.2s-14.47-2.52-21.23-2.15ZM976.14,73.71c-.59.42-1.12.88-1.75,1.26-10.67,6.34-35.77,6.34-46.43,0-.63-.37-1.16-.84-1.75-1.26v9.03c0,1.03,2.6,2.84,3.48,3.32,9.58,5.24,33.17,5.25,42.8.09.93-.5,3.66-2.32,3.66-3.41v-9.03ZM976.14,86.02c-3.14,2.49-7.09,3.74-10.98,4.58-9.52,2.06-21.53,1.99-30.91-.73-2.85-.83-5.72-1.99-8.05-3.85v9.03c0,.74,2.08,2.34,2.74,2.76,9.32,5.93,34.46,5.81,43.97.3.77-.44,3.22-2.2,3.22-3.06v-9.03ZM976.14,98.33c-8.36,5.58-20.09,6.27-29.95,5.77-6.69-.34-14.45-1.94-19.99-5.77v9.03c0,.83,2.96,2.91,3.74,3.32,9.76,5.13,32.28,5.14,42.11.18.85-.43,4.08-2.59,4.08-3.5v-9.03Z" stroke="#000" stroke-miterlimit="10" stroke-width="3"/>
        <path d="M947.07,62.01c6.76-.37,14.75.14,21.23,2.15s12.3,6,3.13,10.2c-9.83,4.5-31.11,4.54-40.87-.16-2.08-1-5.69-3.16-3.83-5.85,3.1-4.48,15.22-6.06,20.34-6.34Z" fill="#fcbe42" stroke="#000" stroke-miterlimit="10" stroke-width=".75"/>
        <path d="M976.14,98.33v9.03c0,.91-3.23,3.07-4.08,3.5-9.83,4.96-32.35,4.95-42.11-.18-.78-.41-3.74-2.5-3.74-3.32v-9.03c5.54,3.84,13.29,5.43,19.99,5.77,9.85.5,21.59-.19,29.95-5.77ZM966.39,106.26c-2.69-2.38-5.92,2.12-3.05,3.97,2.58,1.66,5.34-1.94,3.05-3.97Z" fill="#fcbe42" stroke="#000" stroke-miterlimit="10" stroke-width=".75"/>
        <path d="M976.14,73.71v9.03c0,1.09-2.72,2.91-3.66,3.41-9.63,5.16-33.22,5.15-42.8-.09-.88-.48-3.48-2.29-3.48-3.32v-9.03c.59.42,1.12.88,1.75,1.26,10.67,6.34,35.77,6.34,46.43,0,.63-.37,1.16-.84,1.75-1.26ZM964.57,81.1c-4.04.39-2.29,6.62,1.29,4.71,2.55-1.36,1.04-4.93-1.29-4.71Z" fill="#fcbe42" stroke="#000" stroke-miterlimit="10" stroke-width=".75"/>
        <path d="M976.14,86.02v9.03c0,.85-2.46,2.61-3.22,3.06-9.52,5.51-34.65,5.63-43.97-.3-.66-.42-2.74-2.02-2.74-2.76v-9.03c2.33,1.87,5.2,3.03,8.05,3.85,9.38,2.72,21.39,2.8,30.91.73,3.89-.84,7.84-2.1,10.98-4.58ZM964.32,93.4c-3.24.47-2.48,5.69,1.18,4.87,2.72-.61,1.91-5.32-1.18-4.87Z" fill="#fcbe42" stroke="#000" stroke-miterlimit="10" stroke-width=".75"/>
        <path d="M966.39,106.26c2.29,2.02-.47,5.62-3.05,3.97-2.88-1.85.36-6.34,3.05-3.97Z" stroke="#000" stroke-miterlimit="10" stroke-width=".5"/>
        <path d="M964.57,81.1c2.34-.22,3.85,3.35,1.29,4.71-3.58,1.91-5.33-4.32-1.29-4.71Z" stroke="#000" stroke-miterlimit="10" stroke-width=".5"/>
        <path d="M964.32,93.4c3.09-.45,3.9,4.26,1.18,4.87-3.66.82-4.43-4.39-1.18-4.87Z" stroke="#000" stroke-miterlimit="10" stroke-width=".5"/>
      </g>
    </g>
  </g>
  <g>
    <g>
      <path d="M1231.01,317.37h-3.54v9.6h-6.54v-27.15h10.68c3.22,0,5.74.71,7.55,2.14,1.81,1.43,2.72,3.45,2.72,6.05,0,1.89-.38,3.45-1.15,4.69-.76,1.24-1.96,2.25-3.59,3.02l5.67,10.96v.28h-7.01l-4.79-9.6ZM1227.46,312.34h4.14c1.24,0,2.18-.33,2.81-.98s.94-1.57.94-2.74-.32-2.09-.95-2.76-1.57-1-2.8-1h-4.14v7.48Z"/>
      <path d="M1245.49,301.6c0-.9.32-1.63.97-2.2s1.49-.86,2.52-.86,1.87.29,2.52.86.97,1.31.97,2.2-.32,1.63-.97,2.2c-.65.57-1.49.86-2.52.86s-1.87-.29-2.52-.86c-.65-.57-.97-1.31-.97-2.2ZM1252.17,326.98h-6.3v-20.17h6.3v20.17Z"/>
      <path d="M1264.57,322.5c.88,0,1.57-.24,2.05-.72s.72-1.15.71-2h5.89c0,2.21-.79,4.03-2.38,5.44s-3.63,2.13-6.12,2.13c-2.93,0-5.25-.92-6.94-2.76-1.69-1.84-2.54-4.39-2.54-7.64v-.26c0-2.04.38-3.84,1.13-5.4.75-1.56,1.84-2.76,3.25-3.6,1.42-.84,3.1-1.26,5.03-1.26,2.62,0,4.71.73,6.25,2.18,1.54,1.45,2.31,3.42,2.31,5.91h-5.89c0-1.04-.25-1.85-.76-2.41-.51-.56-1.19-.84-2.05-.84-1.63,0-2.58,1.04-2.85,3.11-.09.66-.13,1.57-.13,2.72,0,2.03.24,3.43.73,4.21.49.78,1.26,1.17,2.31,1.17Z"/>
      <path d="M1282.02,308.97c1.34-1.69,3.06-2.54,5.15-2.54,2.23,0,3.9.66,5.03,1.98s1.71,3.26,1.73,5.84v12.73h-6.3v-12.58c0-1.07-.22-1.86-.65-2.36-.43-.5-1.17-.76-2.22-.76-1.29,0-2.21.41-2.74,1.23v14.47h-6.28v-28.64h6.28v10.63Z"/>
      <path d="M1327.42,304.88h-8.15v22.09h-6.54v-22.09h-8v-5.05h22.69v5.05Z"/>
      <path d="M1337.99,327.35c-3.09,0-5.6-.92-7.51-2.77-1.91-1.85-2.87-4.25-2.87-7.21v-.52c0-2.06.38-3.88,1.15-5.46.76-1.58,1.88-2.8,3.35-3.66,1.47-.86,3.21-1.3,5.22-1.3,2.83,0,5.07.88,6.71,2.64,1.64,1.76,2.46,4.21,2.46,7.36v2.44h-12.49c.22,1.13.71,2.02,1.47,2.67.76.65,1.74.97,2.95.97,1.99,0,3.54-.7,4.66-2.09l2.87,3.39c-.78,1.08-1.89,1.94-3.33,2.58s-2.98.96-4.63.96ZM1337.28,311.28c-1.84,0-2.93,1.22-3.28,3.65h6.34v-.48c.03-1.01-.23-1.79-.76-2.34-.54-.55-1.3-.83-2.29-.83Z"/>
      <path d="M1361.22,312.49l-2.07-.15c-1.98,0-3.24.62-3.8,1.86v12.77h-6.28v-20.17h5.89l.21,2.59c1.06-1.98,2.53-2.96,4.42-2.96.67,0,1.25.07,1.75.22l-.11,5.84Z"/>
      <path d="M1369.42,306.8l.21,2.37c1.43-1.83,3.35-2.74,5.76-2.74,2.55,0,4.27,1.01,5.17,3.04,1.37-2.03,3.34-3.04,5.93-3.04,4.09,0,6.19,2.47,6.3,7.42v13.13h-6.3v-12.73c0-1.03-.17-1.78-.52-2.26-.35-.47-.98-.71-1.9-.71-1.24,0-2.17.55-2.78,1.66l.02.26v13.78h-6.3v-12.7c0-1.06-.17-1.82-.5-2.29-.34-.47-.98-.71-1.92-.71-1.21,0-2.13.55-2.76,1.66v14.04h-6.28v-20.17h5.89Z"/>
      <path d="M1396.33,301.6c0-.9.32-1.63.97-2.2s1.49-.86,2.52-.86,1.87.29,2.52.86.97,1.31.97,2.2-.32,1.63-.97,2.2c-.65.57-1.49.86-2.52.86s-1.87-.29-2.52-.86c-.65-.57-.97-1.31-.97-2.2ZM1403,326.98h-6.3v-20.17h6.3v20.17Z"/>
      <path d="M1412.64,306.8l.21,2.37c1.39-1.83,3.31-2.74,5.76-2.74,2.1,0,3.67.63,4.71,1.88s1.58,3.14,1.61,5.67v13h-6.3v-12.73c0-1.02-.21-1.77-.62-2.25-.41-.48-1.16-.72-2.24-.72-1.23,0-2.14.48-2.74,1.45v14.24h-6.28v-20.17h5.89Z"/>
      <path d="M1427.61,316.7c0-2.01.39-3.81,1.17-5.38.78-1.57,1.91-2.78,3.37-3.63s3.19-1.27,5.17-1.27c3.02,0,5.4.94,7.14,2.81s2.61,4.42,2.61,7.63v.22c0,3.15-.87,5.64-2.62,7.49-1.75,1.85-4.11,2.77-7.09,2.77s-5.18-.86-6.92-2.58c-1.74-1.72-2.68-4.06-2.82-7l-.02-1.06ZM1433.9,317.1c0,1.86.29,3.23.88,4.1s1.45,1.31,2.59,1.31c2.24,0,3.38-1.72,3.43-5.16v-.63c0-3.62-1.16-5.43-3.47-5.43-2.1,0-3.24,1.56-3.41,4.68l-.02,1.14Z"/>
      <path d="M1456.47,326.98h-6.3v-28.64h6.3v28.64Z"/>
      <path d="M1459.55,316.7c0-2.01.39-3.81,1.17-5.38.78-1.57,1.91-2.78,3.37-3.63s3.19-1.27,5.17-1.27c3.02,0,5.4.94,7.14,2.81s2.61,4.42,2.61,7.63v.22c0,3.15-.87,5.64-2.62,7.49-1.75,1.85-4.11,2.77-7.09,2.77s-5.18-.86-6.92-2.58c-1.74-1.72-2.68-4.06-2.82-7l-.02-1.06ZM1465.83,317.1c0,1.86.29,3.23.88,4.1s1.45,1.31,2.59,1.31c2.24,0,3.38-1.72,3.43-5.16v-.63c0-3.62-1.16-5.43-3.47-5.43-2.1,0-3.24,1.56-3.41,4.68l-.02,1.14Z"/>
      <path d="M1481.05,316.74c0-2.04.34-3.84,1.01-5.41.67-1.57,1.63-2.77,2.89-3.63,1.26-.85,2.72-1.28,4.38-1.28,2.1,0,3.74.71,4.92,2.13l.22-1.75h5.71v19.41c0,1.78-.41,3.32-1.24,4.63-.83,1.31-2.02,2.32-3.59,3.02-1.57.7-3.38,1.05-5.44,1.05-1.48,0-2.91-.28-4.3-.84-1.39-.56-2.45-1.29-3.18-2.18l2.63-3.69c1.17,1.38,2.71,2.07,4.62,2.07,2.78,0,4.18-1.43,4.18-4.29v-.63c-1.21,1.33-2.73,2-4.57,2-2.46,0-4.45-.94-5.97-2.82-1.52-1.88-2.27-4.4-2.27-7.56v-.22ZM1487.35,317.13c0,1.65.31,2.96.93,3.92.62.96,1.49,1.44,2.61,1.44,1.35,0,2.34-.45,2.96-1.36v-8.48c-.61-.92-1.58-1.38-2.93-1.38-1.12,0-2,.5-2.63,1.5s-.95,2.45-.95,4.35Z"/>
      <path d="M1511.81,318.18l3.36-11.37h6.73l-8.22,23.55-.35.86c-1.17,2.61-3.23,3.92-6.19,3.92-.82,0-1.68-.12-2.59-.37v-4.48h.82c.88,0,1.56-.13,2.02-.38s.81-.71,1.04-1.37l.5-1.34-7.01-20.38h6.71l3.19,11.37Z"/>
      <path d="M1317.18,365.58c0-.96-.34-1.7-1.02-2.24-.68-.53-1.87-1.09-3.57-1.66-1.7-.57-3.1-1.12-4.18-1.66-3.52-1.73-5.28-4.1-5.28-7.12,0-1.5.44-2.83,1.31-3.98.88-1.15,2.12-2.04,3.72-2.68s3.41-.96,5.41-.96,3.7.35,5.25,1.04c1.55.7,2.75,1.69,3.61,2.97s1.29,2.76,1.29,4.41h-6.53c0-1.11-.34-1.96-1.02-2.57-.68-.61-1.59-.91-2.75-.91s-2.09.26-2.77.77c-.68.52-1.02,1.17-1.02,1.97,0,.7.37,1.33,1.12,1.89.75.57,2.06,1.15,3.93,1.75,1.88.6,3.42,1.25,4.62,1.95,2.93,1.69,4.4,4.02,4.4,6.99,0,2.37-.9,4.24-2.69,5.59s-4.24,2.03-7.36,2.03c-2.2,0-4.19-.39-5.98-1.18-1.78-.79-3.13-1.87-4.03-3.24s-1.35-2.96-1.35-4.75h6.56c0,1.45.38,2.53,1.13,3.22s1.97,1.03,3.66,1.03c1.08,0,1.94-.23,2.56-.7.63-.47.94-1.12.94-1.97Z"/>
      <path d="M1338.81,370.62c-1.33,1.7-3.13,2.55-5.39,2.55s-3.89-.64-5.02-1.93c-1.14-1.29-1.71-3.14-1.71-5.55v-13.07h6.28v13.11c0,1.73.84,2.59,2.52,2.59,1.44,0,2.47-.52,3.08-1.55v-14.15h6.32v20.17h-5.89l-.19-2.18Z"/>
      <path d="M1367.05,362.86c0,3.13-.71,5.63-2.12,7.5-1.41,1.87-3.32,2.81-5.71,2.81-1.85,0-3.37-.68-4.57-2.03v9.42h-6.28v-27.93h5.87l.19,1.86c1.21-1.49,2.79-2.24,4.75-2.24,2.49,0,4.42.92,5.8,2.75,1.38,1.83,2.07,4.35,2.07,7.56v.3ZM1360.77,362.47c0-3.58-1.04-5.37-3.13-5.37-1.49,0-2.49.53-2.98,1.6v7.94c.55,1.12,1.55,1.68,3.02,1.68,2,0,3.03-1.73,3.09-5.18v-.67Z"/>
      <path d="M1388.55,362.86c0,3.13-.71,5.63-2.12,7.5-1.41,1.87-3.32,2.81-5.71,2.81-1.85,0-3.37-.68-4.57-2.03v9.42h-6.28v-27.93h5.87l.19,1.86c1.21-1.49,2.79-2.24,4.75-2.24,2.49,0,4.42.92,5.8,2.75,1.38,1.83,2.07,4.35,2.07,7.56v.3ZM1382.27,362.47c0-3.58-1.04-5.37-3.13-5.37-1.49,0-2.49.53-2.98,1.6v7.94c.55,1.12,1.55,1.68,3.02,1.68,2,0,3.03-1.73,3.09-5.18v-.67Z"/>
      <path d="M1390.53,362.52c0-2.01.39-3.81,1.17-5.38.78-1.57,1.91-2.78,3.37-3.63s3.19-1.27,5.17-1.27c3.02,0,5.4.94,7.14,2.81s2.61,4.42,2.61,7.63v.22c0,3.15-.87,5.64-2.62,7.49-1.75,1.85-4.11,2.77-7.09,2.77s-5.18-.86-6.92-2.58c-1.74-1.72-2.68-4.06-2.82-7l-.02-1.06ZM1396.81,362.92c0,1.86.29,3.23.88,4.1s1.45,1.31,2.59,1.31c2.24,0,3.38-1.72,3.43-5.16v-.63c0-3.62-1.16-5.43-3.47-5.43-2.1,0-3.24,1.56-3.41,4.68l-.02,1.14Z"/>
      <path d="M1424.96,358.31l-2.07-.15c-1.98,0-3.24.62-3.8,1.86v12.77h-6.28v-20.17h5.89l.21,2.59c1.06-1.98,2.53-2.96,4.42-2.96.67,0,1.25.07,1.75.22l-.11,5.84Z"/>
      <path d="M1435.48,347.61v5.02h3.32v4.36h-3.32v9.23c0,.76.14,1.29.41,1.58s.81.45,1.62.45c.62,0,1.14-.04,1.57-.11v4.49c-1.13.36-2.31.54-3.54.54-2.16,0-3.76-.51-4.79-1.53-1.03-1.02-1.55-2.57-1.55-4.64v-10.01h-2.57v-4.36h2.57v-5.02h6.28Z"/>
    </g>
    <g>
      <rect x="1306.78" y="217.72" width="125.75" height="21.68" fill="#fff" stroke="#000" stroke-miterlimit="10" stroke-width="5"/>
      <g>
        <rect x="1317.78" y="76.97" width="121.08" height="125.41" fill="#c0976e" stroke="#000" stroke-miterlimit="10" stroke-width="5"/>
        <path d="M1315.5,76.97h2.28v125.28c0,12.63-10.26,22.89-22.89,22.89h-4.46v-123.1c0-13.84,11.23-25.07,25.07-25.07Z" fill="#c0976e" stroke="#000" stroke-miterlimit="10" stroke-width="5"/>
        <path d="M1438.86,90.06h4.69c3.67,0,6.65,2.98,6.65,6.65v13.38c0,3.67-2.98,6.65-6.65,6.65h-4.69v-26.68h0Z" fill="#a7c2f3" stroke="#000" stroke-miterlimit="10" stroke-width="5"/>
        <path d="M1438.86,117.83h4.69c3.67,0,6.65,2.98,6.65,6.65v13.38c0,3.67-2.98,6.65-6.65,6.65h-4.69v-26.68h0Z" fill="#b9da9a" stroke="#000" stroke-miterlimit="10" stroke-width="5"/>
        <path d="M1438.86,145.59h4.69c3.67,0,6.65,2.98,6.65,6.65v13.38c0,3.67-2.98,6.65-6.65,6.65h-4.69v-26.68h0Z" fill="#a7c2f4" stroke="#000" stroke-miterlimit="10" stroke-width="5"/>
        <path d="M1438.86,174.19h4.69c3.67,0,6.65,2.98,6.65,6.65v13.38c0,3.67-2.98,6.65-6.65,6.65h-4.69v-26.68h0Z" fill="#d6606b" stroke="#000" stroke-miterlimit="10" stroke-width="5"/>
        <path d="M1315.78,217.72h123.08v-15.34h-124.41c-13.26,0-24.02,10.75-24.02,24.02h0c0,15.11,12.25,27.35,27.35,27.35h121.08v-14.34h-121.91c-5.62,0-10.17-4.55-10.17-10.17v-2.5c0-4.97,4.03-9.01,9.01-9.01Z" fill="#c0976e" stroke="#000" stroke-miterlimit="10" stroke-width="5"/>
      </g>
      <path d="M1290.43,113.32c6.22-13.69,18.78-18.36,27.35-19.35" fill="none" stroke="#000" stroke-miterlimit="10" stroke-width="5"/>
      <path d="M1290.43,128.48c7.72-16.83,18.78-18.36,27.35-19.35" fill="none" stroke="#000" stroke-miterlimit="10" stroke-width="5"/>
      <path d="M1290.43,197.21c9.86-13.94,19.48-12.77,27.35-12.8" fill="none" stroke="#000" stroke-miterlimit="10" stroke-width="5"/>
      <polygon points="1330.8 217.72 1354.32 217.72 1354.32 248.87 1342.44 238.05 1330.78 248.87 1330.8 217.72" fill="#d6606b" stroke="#000" stroke-linecap="round" stroke-linejoin="round" stroke-width="5"/>
      <g>
        <path d="M1362.22,144.14l-2.73-8.73h-12.5l-2.7,8.73h-16.38l18.61-50.75h13.39l18.75,50.75h-16.45ZM1355.55,122.7l-2.32-7.46-2.3,7.46h4.62Z" fill="#fcbe42"/>
        <path d="M1358.52,95.39l17.27,46.75h-12.1l-2.73-8.73h-15.44l-2.7,8.73h-12.04l17.15-46.75h10.6M1348.22,124.71h10.05l-5.04-16.21-5.01,16.21M1361.31,91.39h-16.18l-.96,2.62-17.15,46.75-1.97,5.38h20.72l.87-2.82,1.83-5.91h9.55l1.85,5.93.88,2.81h20.79l-1.99-5.39-17.27-46.75-.97-2.61h0Z"/>
      </g>
      <g>
        <polygon points="1386.92 187.57 1386.92 179.01 1407.38 149.53 1386.79 149.53 1386.79 136.82 1427.11 136.82 1427.11 145.22 1406.78 174.9 1427.33 174.9 1427.33 187.57 1386.92 187.57" fill="#fcbe42"/>
        <path d="M1425.11,138.82v5.78l-22.12,32.3h22.35v8.67h-36.41v-5.94l22.28-32.11h-22.41v-8.7h36.31M1429.11,134.82h-44.31v16.7h18.77l-17.92,25.83-.71,1.03v11.19h44.41v-16.67h-18.76l17.83-26.04.7-1.02v-11.02h0Z"/>
      </g>
    </g>
  </g>
  <g>
    <g>
      <path d="M399.74,725.53c-.09,1.89-.6,3.56-1.53,5.01s-2.24,2.57-3.92,3.37c-1.68.8-3.61,1.19-5.77,1.19-3.57,0-6.38-1.16-8.43-3.49s-3.08-5.61-3.08-9.84v-1.34c0-2.66.46-4.99,1.39-6.98.93-1.99,2.26-3.54,4-4.62s3.75-1.63,6.04-1.63c3.29,0,5.94.87,7.94,2.6,2,1.73,3.14,4.12,3.41,7.17h-6.53c-.05-1.65-.47-2.84-1.25-3.56s-1.98-1.08-3.58-1.08-2.82.61-3.58,1.83c-.76,1.22-1.16,3.16-1.19,5.84v1.92c0,2.9.36,4.97,1.09,6.21.73,1.24,1.98,1.87,3.76,1.87,1.5,0,2.65-.35,3.45-1.06.8-.71,1.22-1.83,1.27-3.37h6.51Z"/>
      <path d="M401.75,724.45c0-2.01.39-3.81,1.17-5.38.78-1.57,1.91-2.78,3.37-3.63s3.19-1.27,5.16-1.27c3.02,0,5.4.93,7.14,2.81s2.61,4.42,2.61,7.63v.22c0,3.15-.87,5.64-2.62,7.49-1.75,1.85-4.11,2.77-7.09,2.77s-5.18-.86-6.92-2.58c-1.74-1.72-2.68-4.06-2.82-7l-.02-1.06ZM408.04,724.84c0,1.86.29,3.23.88,4.1.58.87,1.45,1.31,2.59,1.31,2.24,0,3.38-1.72,3.43-5.17v-.63c0-3.62-1.16-5.42-3.47-5.42-2.1,0-3.24,1.56-3.41,4.68l-.02,1.14Z"/>
      <path d="M429.76,714.55l.21,2.37c1.39-1.83,3.31-2.74,5.76-2.74,2.1,0,3.67.63,4.71,1.88,1.04,1.26,1.58,3.14,1.61,5.67v13h-6.3v-12.73c0-1.02-.21-1.77-.62-2.25s-1.16-.72-2.24-.72c-1.23,0-2.14.48-2.74,1.45v14.24h-6.28v-20.17h5.89Z"/>
      <path d="M446.91,734.72v-15.81h-2.93v-4.36h2.93v-1.6c0-2.3.68-4.08,2.03-5.35,1.35-1.27,3.26-1.9,5.71-1.9.9,0,1.88.13,2.95.39l.02,4.62c-.39-.11-.9-.17-1.55-.17-1.9,0-2.85.82-2.85,2.46v1.55h3.93v4.36h-3.93v15.81h-6.3Z"/>
      <path d="M459.31,709.35c0-.9.32-1.63.97-2.2.65-.57,1.49-.86,2.52-.86s1.87.29,2.52.86c.65.57.97,1.3.97,2.2s-.32,1.63-.97,2.2c-.65.57-1.49.86-2.52.86s-1.87-.29-2.52-.86c-.65-.57-.97-1.31-.97-2.2ZM465.98,734.72h-6.3v-20.17h6.3v20.17Z"/>
      <path d="M469.12,724.49c0-2.04.34-3.84,1.01-5.41s1.63-2.78,2.89-3.63c1.25-.85,2.72-1.28,4.38-1.28,2.1,0,3.74.71,4.92,2.12l.22-1.75h5.71v19.41c0,1.78-.41,3.32-1.24,4.63-.83,1.31-2.02,2.32-3.59,3.02-1.57.7-3.38,1.05-5.44,1.05-1.48,0-2.91-.28-4.3-.84-1.39-.56-2.45-1.29-3.18-2.18l2.63-3.69c1.17,1.38,2.71,2.07,4.62,2.07,2.78,0,4.18-1.43,4.18-4.29v-.63c-1.21,1.33-2.73,2-4.57,2-2.46,0-4.45-.94-5.97-2.83-1.52-1.88-2.27-4.4-2.27-7.56v-.22ZM475.42,724.88c0,1.65.31,2.96.93,3.92.62.96,1.49,1.45,2.61,1.45,1.35,0,2.34-.45,2.96-1.36v-8.48c-.61-.92-1.58-1.38-2.93-1.38-1.12,0-2,.5-2.63,1.5-.63,1-.95,2.45-.95,4.35Z"/>
      <path d="M503.83,732.54c-1.33,1.7-3.13,2.55-5.39,2.55s-3.89-.64-5.02-1.93c-1.14-1.29-1.71-3.14-1.71-5.55v-13.07h6.28v13.11c0,1.73.84,2.59,2.52,2.59,1.44,0,2.47-.52,3.08-1.55v-14.15h6.32v20.17h-5.89l-.19-2.18Z"/>
      <path d="M525.55,720.24l-2.07-.15c-1.98,0-3.24.62-3.8,1.86v12.77h-6.28v-20.17h5.89l.21,2.59c1.06-1.98,2.53-2.96,4.42-2.96.67,0,1.25.07,1.75.22l-.11,5.84Z"/>
      <path d="M538.62,734.72c-.22-.41-.42-1.01-.6-1.81-1.16,1.45-2.77,2.18-4.85,2.18-1.9,0-3.52-.58-4.85-1.72s-2-2.59-2-4.33c0-2.19.81-3.84,2.42-4.96,1.62-1.12,3.96-1.68,7.05-1.68h1.94v-1.07c0-1.86-.8-2.79-2.41-2.79-1.49,0-2.24.74-2.24,2.21h-6.28c0-1.95.83-3.53,2.49-4.75,1.66-1.22,3.78-1.83,6.35-1.83s4.61.63,6.1,1.88c1.49,1.26,2.26,2.98,2.29,5.16v8.93c.02,1.85.31,3.27.86,4.25v.32h-6.28ZM534.69,730.62c.78,0,1.43-.17,1.95-.5.52-.33.89-.71,1.11-1.14v-3.23h-1.83c-2.19,0-3.28.98-3.28,2.95,0,.57.19,1.04.58,1.39.39.35.88.53,1.47.53Z"/>
      <path d="M566.25,724.8c0,3.31-.68,5.85-2.05,7.63-1.37,1.78-3.29,2.67-5.78,2.67-2.05,0-3.7-.81-4.96-2.44l-.26,2.07h-5.63v-28.64h6.28v10.09c1.17-1.33,2.68-1.99,4.53-1.99,2.51,0,4.45.9,5.82,2.7,1.37,1.8,2.05,4.34,2.05,7.61v.32ZM559.95,724.4c0-1.94-.26-3.32-.77-4.14s-1.31-1.24-2.38-1.24c-1.42,0-2.4.54-2.95,1.62v8c.53,1.07,1.53,1.6,2.98,1.6s2.42-.72,2.82-2.16c.2-.71.3-1.94.3-3.69Z"/>
      <path d="M575.65,734.72h-6.3v-28.64h6.3v28.64Z"/>
      <path d="M589.28,735.1c-3.1,0-5.6-.92-7.51-2.77-1.91-1.85-2.87-4.25-2.87-7.21v-.52c0-2.06.38-3.88,1.15-5.46.76-1.58,1.88-2.8,3.35-3.66,1.47-.86,3.21-1.3,5.22-1.3,2.83,0,5.07.88,6.71,2.64,1.64,1.76,2.46,4.21,2.46,7.36v2.44h-12.49c.22,1.13.71,2.02,1.47,2.67.76.65,1.74.97,2.95.97,1.99,0,3.54-.7,4.66-2.09l2.87,3.39c-.78,1.08-1.89,1.94-3.33,2.58-1.44.64-2.98.96-4.63.96ZM588.57,719.03c-1.84,0-2.93,1.22-3.28,3.65h6.34v-.49c.02-1.01-.23-1.79-.76-2.34-.53-.55-1.3-.83-2.29-.83Z"/>
      <path d="M610.11,734.72v-27.15h8.74c2.4,0,4.56.54,6.47,1.63,1.91,1.09,3.41,2.62,4.48,4.6,1.07,1.98,1.62,4.21,1.63,6.67v1.25c0,2.49-.53,4.71-1.58,6.68-1.05,1.97-2.53,3.51-4.44,4.62s-4.04,1.67-6.39,1.69h-8.93ZM616.65,712.63v17.06h2.27c1.88,0,3.32-.67,4.33-2s1.51-3.32,1.51-5.96v-1.17c0-2.62-.5-4.6-1.51-5.93s-2.47-2-4.4-2h-2.2Z"/>
      <path d="M645.87,734.72c-.22-.41-.42-1.01-.6-1.81-1.16,1.45-2.77,2.18-4.85,2.18-1.9,0-3.52-.58-4.85-1.72s-2-2.59-2-4.33c0-2.19.81-3.84,2.42-4.96,1.62-1.12,3.96-1.68,7.05-1.68h1.94v-1.07c0-1.86-.8-2.79-2.41-2.79-1.49,0-2.24.74-2.24,2.21h-6.28c0-1.95.83-3.53,2.49-4.75,1.66-1.22,3.78-1.83,6.35-1.83s4.61.63,6.1,1.88c1.49,1.26,2.26,2.98,2.29,5.16v8.93c.02,1.85.31,3.27.86,4.25v.32h-6.28ZM641.93,730.62c.78,0,1.43-.17,1.95-.5.52-.33.89-.71,1.11-1.14v-3.23h-1.83c-2.19,0-3.28.98-3.28,2.95,0,.57.19,1.04.58,1.39.39.35.88.53,1.47.53Z"/>
      <path d="M662.09,709.54v5.01h3.32v4.36h-3.32v9.23c0,.76.14,1.29.41,1.58.27.3.81.45,1.62.45.62,0,1.14-.04,1.57-.11v4.49c-1.13.36-2.31.54-3.54.54-2.16,0-3.76-.51-4.79-1.53-1.03-1.02-1.55-2.57-1.55-4.64v-10.01h-2.57v-4.36h2.57v-5.01h6.28Z"/>
      <path d="M679.24,734.72c-.22-.41-.42-1.01-.6-1.81-1.16,1.45-2.77,2.18-4.85,2.18-1.9,0-3.52-.58-4.85-1.72s-2-2.59-2-4.33c0-2.19.81-3.84,2.42-4.96,1.62-1.12,3.96-1.68,7.05-1.68h1.94v-1.07c0-1.86-.8-2.79-2.41-2.79-1.49,0-2.24.74-2.24,2.21h-6.28c0-1.95.83-3.53,2.49-4.75,1.66-1.22,3.78-1.83,6.35-1.83s4.61.63,6.1,1.88c1.49,1.26,2.26,2.98,2.29,5.16v8.93c.02,1.85.31,3.27.86,4.25v.32h-6.28ZM675.31,730.62c.78,0,1.43-.17,1.95-.5.52-.33.89-.71,1.11-1.14v-3.23h-1.83c-2.19,0-3.28.98-3.28,2.95,0,.57.19,1.04.58,1.39.39.35.88.53,1.47.53Z"/>
      <path d="M417.54,775.47h-8.97l-1.57,5.07h-6.99l9.96-27.15h6.15l10.03,27.15h-7.03l-1.58-5.07ZM410.13,770.42h5.84l-2.93-9.42-2.91,9.42Z"/>
      <path d="M436.37,776.07c.88,0,1.57-.24,2.05-.72s.72-1.15.71-2h5.89c0,2.21-.79,4.03-2.38,5.44-1.58,1.42-3.63,2.13-6.12,2.13-2.93,0-5.25-.92-6.94-2.76-1.69-1.84-2.54-4.39-2.54-7.64v-.26c0-2.04.38-3.84,1.13-5.4.75-1.56,1.84-2.76,3.25-3.6s3.09-1.26,5.03-1.26c2.62,0,4.7.73,6.25,2.18,1.54,1.46,2.31,3.42,2.31,5.91h-5.89c0-1.04-.25-1.85-.76-2.41-.51-.56-1.19-.84-2.05-.84-1.63,0-2.58,1.04-2.85,3.11-.09.66-.13,1.57-.13,2.72,0,2.03.24,3.43.73,4.21s1.26,1.17,2.31,1.17Z"/>
      <path d="M456.21,776.07c.88,0,1.57-.24,2.05-.72s.72-1.15.71-2h5.89c0,2.21-.79,4.03-2.38,5.44-1.58,1.42-3.63,2.13-6.12,2.13-2.93,0-5.25-.92-6.94-2.76-1.69-1.84-2.54-4.39-2.54-7.64v-.26c0-2.04.38-3.84,1.13-5.4.75-1.56,1.84-2.76,3.25-3.6s3.09-1.26,5.03-1.26c2.62,0,4.7.73,6.25,2.18,1.54,1.46,2.31,3.42,2.31,5.91h-5.89c0-1.04-.25-1.85-.76-2.41-.51-.56-1.19-.84-2.05-.84-1.63,0-2.58,1.04-2.85,3.11-.09.66-.13,1.57-.13,2.72,0,2.03.24,3.43.73,4.21s1.26,1.17,2.31,1.17Z"/>
      <path d="M477.27,780.92c-3.1,0-5.6-.92-7.51-2.77-1.91-1.85-2.87-4.25-2.87-7.21v-.52c0-2.06.38-3.88,1.15-5.46.76-1.58,1.88-2.8,3.35-3.66,1.47-.86,3.21-1.3,5.22-1.3,2.83,0,5.07.88,6.71,2.64,1.64,1.76,2.46,4.21,2.46,7.36v2.44h-12.49c.22,1.13.71,2.02,1.47,2.67.76.65,1.74.97,2.95.97,1.99,0,3.54-.7,4.66-2.09l2.87,3.39c-.78,1.08-1.89,1.94-3.33,2.58-1.44.64-2.98.96-4.63.96ZM476.57,764.85c-1.84,0-2.93,1.22-3.28,3.65h6.34v-.49c.02-1.01-.23-1.79-.76-2.34-.53-.55-1.3-.83-2.29-.83Z"/>
      <path d="M498.86,774.88c0-.53-.28-.96-.84-1.29-.56-.32-1.62-.66-3.19-1.01-1.57-.35-2.86-.8-3.88-1.37-1.02-.57-1.8-1.25-2.33-2.06-.53-.81-.8-1.73-.8-2.78,0-1.85.76-3.38,2.29-4.58s3.53-1.8,6-1.8c2.66,0,4.8.6,6.41,1.81,1.62,1.21,2.42,2.79,2.42,4.75h-6.3c0-1.62-.85-2.42-2.55-2.42-.66,0-1.21.18-1.66.55-.45.37-.67.82-.67,1.37s.27,1.01.82,1.36c.55.35,1.42.63,2.62.86,1.2.22,2.25.49,3.16.8,3.03,1.04,4.55,2.92,4.55,5.61,0,1.84-.82,3.34-2.45,4.49-1.63,1.16-3.75,1.73-6.35,1.73-1.73,0-3.27-.31-4.62-.93-1.35-.62-2.41-1.47-3.17-2.54-.76-1.07-1.14-2.19-1.14-3.38h5.87c.02.93.34,1.61.93,2.04.6.43,1.36.64,2.29.64.86,0,1.5-.17,1.93-.52.43-.35.64-.8.64-1.36Z"/>
      <path d="M518.42,774.88c0-.53-.28-.96-.84-1.29-.56-.32-1.62-.66-3.19-1.01-1.57-.35-2.86-.8-3.88-1.37-1.02-.57-1.8-1.25-2.33-2.06-.53-.81-.8-1.73-.8-2.78,0-1.85.76-3.38,2.29-4.58s3.53-1.8,6-1.8c2.66,0,4.8.6,6.41,1.81,1.62,1.21,2.42,2.79,2.42,4.75h-6.3c0-1.62-.85-2.42-2.55-2.42-.66,0-1.21.18-1.66.55-.45.37-.67.82-.67,1.37s.27,1.01.82,1.36c.55.35,1.42.63,2.62.86,1.2.22,2.25.49,3.16.8,3.03,1.04,4.55,2.92,4.55,5.61,0,1.84-.82,3.34-2.45,4.49-1.63,1.16-3.75,1.73-6.35,1.73-1.73,0-3.27-.31-4.62-.93-1.35-.62-2.41-1.47-3.17-2.54-.76-1.07-1.14-2.19-1.14-3.38h5.87c.02.93.34,1.61.93,2.04.6.43,1.36.64,2.29.64.86,0,1.5-.17,1.93-.52.43-.35.64-.8.64-1.36Z"/>
      <path d="M559.18,771.35c-.09,1.89-.6,3.56-1.53,5.01s-2.24,2.57-3.92,3.37c-1.68.8-3.61,1.19-5.77,1.19-3.57,0-6.38-1.16-8.43-3.49s-3.08-5.61-3.08-9.84v-1.34c0-2.66.46-4.99,1.39-6.98.93-1.99,2.26-3.54,4-4.62s3.75-1.63,6.04-1.63c3.29,0,5.94.87,7.94,2.6,2,1.73,3.14,4.12,3.41,7.17h-6.53c-.05-1.65-.47-2.84-1.25-3.56s-1.98-1.08-3.58-1.08-2.82.61-3.58,1.83c-.76,1.22-1.16,3.16-1.19,5.84v1.92c0,2.9.36,4.97,1.09,6.21.73,1.24,1.98,1.87,3.76,1.87,1.5,0,2.65-.35,3.45-1.06.8-.71,1.22-1.83,1.27-3.37h6.51Z"/>
      <path d="M561.19,770.27c0-2.01.39-3.81,1.17-5.38.78-1.57,1.91-2.78,3.37-3.63s3.19-1.27,5.16-1.27c3.02,0,5.4.93,7.14,2.81s2.61,4.42,2.61,7.63v.22c0,3.15-.87,5.64-2.62,7.49-1.75,1.85-4.11,2.77-7.09,2.77s-5.18-.86-6.92-2.58c-1.74-1.72-2.68-4.06-2.82-7l-.02-1.06ZM567.48,770.66c0,1.86.29,3.23.88,4.1.58.87,1.45,1.31,2.59,1.31,2.24,0,3.38-1.72,3.43-5.17v-.63c0-3.62-1.16-5.42-3.47-5.42-2.1,0-3.24,1.56-3.41,4.68l-.02,1.14Z"/>
      <path d="M589.2,760.37l.21,2.37c1.39-1.83,3.31-2.74,5.76-2.74,2.1,0,3.67.63,4.71,1.88,1.04,1.26,1.58,3.14,1.61,5.67v13h-6.3v-12.73c0-1.02-.21-1.77-.62-2.25s-1.16-.72-2.24-.72c-1.23,0-2.14.48-2.74,1.45v14.24h-6.28v-20.17h5.89Z"/>
      <path d="M612.28,755.36v5.01h3.32v4.36h-3.32v9.23c0,.76.14,1.29.41,1.58.27.3.81.45,1.62.45.62,0,1.14-.04,1.57-.11v4.49c-1.13.36-2.31.54-3.54.54-2.16,0-3.76-.51-4.79-1.53-1.03-1.02-1.55-2.57-1.55-4.64v-10.01h-2.57v-4.36h2.57v-5.01h6.28Z"/>
      <path d="M630.27,766.06l-2.07-.15c-1.98,0-3.24.62-3.8,1.86v12.77h-6.28v-20.17h5.89l.21,2.59c1.06-1.98,2.53-2.96,4.42-2.96.67,0,1.25.07,1.75.22l-.11,5.84Z"/>
      <path d="M631.07,770.27c0-2.01.39-3.81,1.17-5.38.78-1.57,1.91-2.78,3.37-3.63s3.19-1.27,5.16-1.27c3.02,0,5.4.93,7.14,2.81s2.61,4.42,2.61,7.63v.22c0,3.15-.87,5.64-2.62,7.49-1.75,1.85-4.11,2.77-7.09,2.77s-5.18-.86-6.92-2.58c-1.74-1.72-2.68-4.06-2.82-7l-.02-1.06ZM637.36,770.66c0,1.86.29,3.23.88,4.1.58.87,1.45,1.31,2.59,1.31,2.24,0,3.38-1.72,3.43-5.17v-.63c0-3.62-1.16-5.42-3.47-5.42-2.1,0-3.24,1.56-3.41,4.68l-.02,1.14Z"/>
      <path d="M659.93,780.55h-6.3v-28.64h6.3v28.64Z"/>
    </g>
    <g>
      <rect x="443.26" y="545.22" width="110.57" height="87.56" fill="#fcbe42" stroke="#000" stroke-miterlimit="10" stroke-width="5"/>
      <g>
        <path d="M456.07,544.6v-20.09c0-24.01,19.53-43.54,43.54-43.54s43.54,19.53,43.54,43.54v8.36h-14.87v-8.36c0-15.81-12.86-28.67-28.67-28.67s-28.67,12.86-28.67,28.67v20.09h-14.87Z" fill="#6a8ce8"/>
        <path d="M499.6,483.47c22.63,0,41.04,18.41,41.04,41.04v5.86h-9.87v-5.86c0-17.19-13.98-31.17-31.17-31.17s-31.17,13.98-31.17,31.17v17.59h-9.87v-17.59c0-22.63,18.41-41.04,41.04-41.04M499.6,478.47c-25.39,0-46.04,20.65-46.04,46.04v22.59h19.87v-22.59c0-14.43,11.74-26.17,26.17-26.17s26.17,11.74,26.17,26.17v10.86h19.87v-10.86c0-25.39-20.65-46.04-46.04-46.04h0Z"/>
      </g>
      <g>
        <polygon points="472.53 592.89 479.47 584.95 494.06 597.7 519.63 565.15 527.92 571.66 495.48 612.96 472.53 592.89" fill="#b3edba"/>
        <path d="M519.96,567.95l5.15,4.04-29.9,38.07-19.86-17.36,4.31-4.93,14.66,12.82,25.64-32.64M519.29,562.34l-2.47,3.15-23.03,29.32-11.49-10.05-3.01-2.63-2.63,3.01-4.31,4.93-2.63,3.01,3.01,2.63,19.86,17.36,3.17,2.78,2.6-3.32,29.9-38.07,2.47-3.15-3.15-2.47-5.15-4.04-3.15-2.47h0Z"/>
      </g>
      <g>
        <g>
          <path d="M618.85,635.53c0-28.09-22.77-50.87-50.87-50.87s-50.87,22.77-50.87,50.87c0,14.68,6.23,27.9,16.18,37.19v-6.37c0-7.2,5.89-13.09,13.09-13.09h43.19c7.2,0,13.09,5.89,13.09,13.09v6.37c9.95-9.28,16.18-22.51,16.18-37.19Z" fill="#fff" stroke="#000" stroke-linecap="round" stroke-linejoin="round" stroke-width="5"/>
          <path d="M602.67,672.72c-9.09,8.48-21.28,13.68-34.69,13.68s-25.6-5.2-34.69-13.68" fill="#fff" stroke="#000" stroke-miterlimit="10" stroke-width="5"/>
          <g>
            <path d="M567.98,684.89c-12.32,0-24.08-4.55-33.19-12.84v-5.72c0-6.39,5.2-11.59,11.59-11.59h43.19c6.39,0,11.59,5.2,11.59,11.59v5.72c-9.11,8.28-20.87,12.84-33.19,12.84Z" fill="#b5efbc"/>
            <path d="M589.58,656.25c5.56,0,10.09,4.53,10.09,10.09v5.05c-8.76,7.75-19.96,12.01-31.69,12.01s-22.93-4.25-31.69-12.01v-5.05c0-5.56,4.53-10.09,10.09-10.09h43.19M589.58,653.25h-43.19c-7.2,0-13.09,5.89-13.09,13.09v6.37c9.09,8.48,21.28,13.68,34.69,13.68s25.6-5.2,34.69-13.68v-6.37c0-7.2-5.89-13.09-13.09-13.09h0Z"/>
          </g>
        </g>
        <g>
          <path d="M565.89,640.7h4.85c2.99,0,5.41,2.43,5.41,5.41v12.19c0,2.99-2.43,5.41-5.41,5.41h-4.85c-2.99,0-5.41-2.43-5.41-5.41v-12.19c0-2.99,2.43-5.41,5.41-5.41Z" fill="#fbf2e2"/>
          <path d="M570.74,643.2c1.58,0,2.91,1.33,2.91,2.91v12.19c0,1.58-1.33,2.91-2.91,2.91h-4.85c-1.58,0-2.91-1.33-2.91-2.91v-12.19c0-1.58,1.33-2.91,2.91-2.91h4.85M570.74,638.2h-4.85c-4.35,0-7.91,3.56-7.91,7.91v12.19c0,4.35,3.56,7.91,7.91,7.91h4.85c4.35,0,7.91-3.56,7.91-7.91v-12.19c0-4.35-3.56-7.91-7.91-7.91h0Z"/>
        </g>
        <g>
          <path d="M566.73,649.58c-8.21,0-14.89-6.68-14.89-14.89v-17.39c0-5.24,4.26-9.5,9.5-9.5h13.94c5.24,0,9.5,4.26,9.5,9.5v17.39c0,8.21-6.68,14.89-14.89,14.89h-3.16Z" fill="#fbf2e2"/>
          <path d="M575.29,610.3c3.86,0,7,3.14,7,7v17.39c0,6.83-5.56,12.39-12.39,12.39h-3.16c-6.83,0-12.39-5.56-12.39-12.39v-17.39c0-3.86,3.14-7,7-7h13.94M575.29,605.3h-13.94c-6.6,0-12,5.4-12,12v17.39c0,9.56,7.82,17.39,17.39,17.39h3.16c9.56,0,17.39-7.82,17.39-17.39v-17.39c0-6.6-5.4-12-12-12h0Z"/>
        </g>
        <g>
          <path d="M567.41,623.69c-5.4,0-10.5-1.39-15.56-4.26v-2.38c0-5.84,4.75-10.59,10.59-10.59h11.76c5.84,0,10.59,4.75,10.59,10.59v2.25c-6.22,2.95-11.91,4.39-17.38,4.39Z" fill="#6e91ef"/>
          <path d="M574.19,608.96c4.46,0,8.09,3.63,8.09,8.09v.64c-5.32,2.35-10.21,3.49-14.88,3.49s-8.8-1.07-13.06-3.25v-.89c0-4.46,3.63-8.09,8.09-8.09h11.76M574.19,603.96h-11.76c-7.2,0-13.09,5.89-13.09,13.09v3.81c6.06,3.71,12.08,5.33,18.06,5.33,6.64,0,13.26-1.99,19.88-5.33v-3.81c0-7.2-5.89-13.09-13.09-13.09h0Z"/>
        </g>
      </g>
    </g>
  </g>
  <g>
    <g>
      <path d="M806.15,723.2h-10.29v6.49h12.16v5.03h-18.7v-27.15h18.74v5.05h-12.19v5.72h10.29v4.85Z"/>
      <path d="M818.57,720.11l2.93-5.56h6.53l-5.31,9.83,5.57,10.35h-6.56l-3.17-5.97-3.11,5.97h-6.6l5.59-10.35-5.29-9.83h6.6l2.83,5.56Z"/>
      <path d="M837.37,709.54v5.01h3.32v4.36h-3.32v9.23c0,.76.14,1.29.41,1.58.27.3.81.45,1.62.45.62,0,1.14-.04,1.57-.11v4.49c-1.13.36-2.31.54-3.54.54-2.16,0-3.76-.51-4.79-1.53-1.03-1.02-1.55-2.57-1.55-4.64v-10.01h-2.57v-4.36h2.57v-5.01h6.28Z"/>
      <path d="M852.92,735.1c-3.1,0-5.6-.92-7.51-2.77-1.91-1.85-2.87-4.25-2.87-7.21v-.52c0-2.06.38-3.88,1.15-5.46.76-1.58,1.88-2.8,3.35-3.66,1.47-.86,3.21-1.3,5.22-1.3,2.83,0,5.07.88,6.71,2.64,1.64,1.76,2.46,4.21,2.46,7.36v2.44h-12.49c.22,1.13.71,2.02,1.47,2.67.76.65,1.74.97,2.95.97,1.99,0,3.54-.7,4.66-2.09l2.87,3.39c-.78,1.08-1.89,1.94-3.33,2.58-1.44.64-2.98.96-4.63.96ZM852.21,719.03c-1.84,0-2.93,1.22-3.28,3.65h6.34v-.49c.02-1.01-.23-1.79-.76-2.34-.53-.55-1.3-.83-2.29-.83Z"/>
      <path d="M869.71,714.55l.21,2.37c1.39-1.83,3.31-2.74,5.76-2.74,2.1,0,3.67.63,4.71,1.88,1.04,1.26,1.58,3.14,1.61,5.67v13h-6.3v-12.73c0-1.02-.21-1.77-.62-2.25s-1.16-.72-2.24-.72c-1.23,0-2.14.48-2.74,1.45v14.24h-6.28v-20.17h5.89Z"/>
      <path d="M896.04,729.06c0-.53-.28-.96-.84-1.29-.56-.32-1.62-.66-3.19-1.01-1.57-.35-2.86-.8-3.88-1.37-1.02-.57-1.8-1.25-2.33-2.06-.53-.81-.8-1.73-.8-2.78,0-1.85.76-3.38,2.29-4.58s3.53-1.8,6-1.8c2.66,0,4.8.6,6.41,1.81,1.62,1.21,2.42,2.79,2.42,4.75h-6.3c0-1.62-.85-2.42-2.55-2.42-.66,0-1.21.18-1.66.55-.45.37-.67.82-.67,1.37s.27,1.01.82,1.36c.55.35,1.42.63,2.62.86,1.2.22,2.25.49,3.16.8,3.03,1.04,4.55,2.92,4.55,5.61,0,1.84-.82,3.34-2.45,4.49-1.63,1.16-3.75,1.73-6.35,1.73-1.73,0-3.27-.31-4.62-.93-1.35-.62-2.41-1.47-3.17-2.54-.76-1.07-1.14-2.19-1.14-3.38h5.87c.02.93.34,1.61.93,2.04.6.43,1.36.64,2.29.64.86,0,1.5-.17,1.93-.52.43-.35.64-.8.64-1.36Z"/>
      <path d="M904.99,709.35c0-.9.32-1.63.97-2.2.65-.57,1.49-.86,2.52-.86s1.87.29,2.52.86c.65.57.97,1.3.97,2.2s-.32,1.63-.97,2.2c-.65.57-1.49.86-2.52.86s-1.87-.29-2.52-.86c-.65-.57-.97-1.31-.97-2.2ZM911.66,734.72h-6.3v-20.17h6.3v20.17Z"/>
      <path d="M923.58,727.25l3.19-12.7h6.62l-6.58,20.17h-6.41l-6.58-20.17h6.64l3.13,12.7Z"/>
      <path d="M944.78,735.1c-3.1,0-5.6-.92-7.51-2.77-1.91-1.85-2.87-4.25-2.87-7.21v-.52c0-2.06.38-3.88,1.15-5.46.76-1.58,1.88-2.8,3.35-3.66,1.47-.86,3.21-1.3,5.22-1.3,2.83,0,5.07.88,6.71,2.64,1.64,1.76,2.46,4.21,2.46,7.36v2.44h-12.49c.22,1.13.71,2.02,1.47,2.67.76.65,1.74.97,2.95.97,1.99,0,3.54-.7,4.66-2.09l2.87,3.39c-.78,1.08-1.89,1.94-3.33,2.58-1.44.64-2.98.96-4.63.96ZM944.07,719.03c-1.84,0-2.93,1.22-3.28,3.65h6.34v-.49c.02-1.01-.23-1.79-.76-2.34-.53-.55-1.3-.83-2.29-.83Z"/>
      <path d="M987.83,731.37c-1.01,1.12-2.48,2.02-4.42,2.7-1.94.68-4.06,1.03-6.38,1.03-3.55,0-6.39-1.09-8.52-3.26-2.12-2.17-3.26-5.2-3.41-9.08l-.02-2.35c0-2.67.47-5.01,1.42-7s2.3-3.53,4.06-4.6,3.79-1.61,6.11-1.61c3.38,0,6.01.77,7.88,2.32,1.87,1.55,2.96,3.86,3.27,6.93h-6.3c-.22-1.52-.71-2.6-1.45-3.24s-1.8-.97-3.17-.97c-1.64,0-2.91.7-3.8,2.09-.9,1.39-1.35,3.38-1.36,5.97v1.64c0,2.71.46,4.75,1.39,6.11.93,1.36,2.38,2.04,4.37,2.04,1.7,0,2.97-.38,3.8-1.14v-4.21h-4.55v-4.49h11.09v11.15Z"/>
      <path d="M1001.1,735.1c-3.09,0-5.6-.92-7.51-2.77s-2.87-4.25-2.87-7.21v-.52c0-2.06.38-3.88,1.15-5.46.76-1.58,1.88-2.8,3.35-3.66,1.47-.86,3.21-1.3,5.22-1.3,2.83,0,5.07.88,6.71,2.64s2.46,4.21,2.46,7.36v2.44h-12.49c.22,1.13.71,2.02,1.47,2.67.76.65,1.74.97,2.95.97,1.99,0,3.54-.7,4.66-2.09l2.87,3.39c-.78,1.08-1.89,1.94-3.33,2.58-1.44.64-2.98.96-4.63.96ZM1000.39,719.03c-1.84,0-2.93,1.22-3.28,3.65h6.34v-.49c.02-1.01-.23-1.79-.76-2.34-.53-.55-1.3-.83-2.29-.83Z"/>
      <path d="M1017.9,714.55l.21,2.37c1.39-1.83,3.31-2.74,5.76-2.74,2.1,0,3.67.63,4.71,1.88,1.04,1.26,1.58,3.14,1.61,5.67v13h-6.3v-12.73c0-1.02-.21-1.77-.62-2.25s-1.16-.72-2.24-.72c-1.23,0-2.14.48-2.74,1.45v14.24h-6.28v-20.17h5.89Z"/>
      <path d="M1032.87,724.45c0-2.01.39-3.81,1.17-5.38.78-1.57,1.91-2.78,3.37-3.63s3.19-1.27,5.17-1.27c3.02,0,5.4.93,7.14,2.81s2.61,4.42,2.61,7.63v.22c0,3.15-.87,5.64-2.62,7.49s-4.11,2.77-7.09,2.77-5.18-.86-6.92-2.58-2.68-4.06-2.82-7l-.02-1.06ZM1039.16,724.84c0,1.86.29,3.23.88,4.1.58.87,1.45,1.31,2.59,1.31,2.24,0,3.38-1.72,3.43-5.17v-.63c0-3.62-1.16-5.42-3.47-5.42-2.1,0-3.24,1.56-3.41,4.68l-.02,1.14Z"/>
      <path d="M1061.04,714.55l.21,2.37c1.43-1.83,3.35-2.74,5.76-2.74,2.55,0,4.27,1.01,5.17,3.04,1.37-2.03,3.34-3.04,5.93-3.04,4.09,0,6.19,2.47,6.3,7.42v13.13h-6.3v-12.73c0-1.03-.17-1.78-.52-2.26-.35-.47-.98-.71-1.9-.71-1.24,0-2.17.55-2.78,1.66l.02.26v13.78h-6.3v-12.7c0-1.06-.17-1.82-.5-2.29s-.98-.71-1.92-.71c-1.21,0-2.13.55-2.76,1.66v14.04h-6.28v-20.17h5.89Z"/>
      <path d="M1087.95,709.35c0-.9.32-1.63.97-2.2.65-.57,1.49-.86,2.52-.86s1.87.29,2.52.86c.65.57.97,1.3.97,2.2s-.32,1.63-.97,2.2c-.65.57-1.49.86-2.52.86s-1.87-.29-2.52-.86c-.65-.57-.97-1.31-.97-2.2ZM1094.62,734.72h-6.3v-20.17h6.3v20.17Z"/>
      <path d="M1107.02,730.25c.88,0,1.57-.24,2.05-.72s.72-1.15.71-2h5.89c0,2.21-.79,4.03-2.38,5.44s-3.63,2.13-6.12,2.13c-2.93,0-5.25-.92-6.94-2.76-1.69-1.84-2.54-4.39-2.54-7.64v-.26c0-2.04.38-3.84,1.13-5.4.75-1.56,1.84-2.76,3.25-3.6s3.1-1.26,5.03-1.26c2.62,0,4.71.73,6.25,2.18,1.54,1.46,2.31,3.42,2.31,5.91h-5.89c0-1.04-.25-1.85-.76-2.41-.51-.56-1.19-.84-2.05-.84-1.63,0-2.58,1.04-2.85,3.11-.09.66-.13,1.57-.13,2.72,0,2.03.24,3.43.73,4.21.49.78,1.26,1.17,2.31,1.17Z"/>
      <path d="M826.61,767.53c0,2.51-.42,4.7-1.25,6.57-.83,1.87-1.98,3.37-3.45,4.5l4.38,3.47-4.05,3.43-5.84-4.7c-.55.08-1.09.11-1.64.11-2.31,0-4.36-.53-6.15-1.6s-3.19-2.6-4.19-4.59c-1-1.99-1.52-4.28-1.56-6.86v-1.44c0-2.67.49-5.02,1.46-7.05.98-2.03,2.37-3.59,4.18-4.7,1.81-1.11,3.88-1.66,6.22-1.66s4.35.55,6.15,1.64,3.2,2.65,4.2,4.67,1.51,4.33,1.52,6.95v1.25ZM819.95,766.39c0-2.7-.45-4.75-1.35-6.14s-2.19-2.1-3.87-2.1-3.03.69-3.9,2.07c-.87,1.38-1.31,3.4-1.32,6.06v1.25c0,2.67.44,4.72,1.32,6.14.88,1.42,2.19,2.13,3.93,2.13s2.94-.7,3.83-2.11c.89-1.4,1.34-3.42,1.35-6.06v-1.25Z"/>
      <path d="M841.67,778.36c-1.33,1.7-3.13,2.55-5.39,2.55s-3.89-.64-5.02-1.93c-1.14-1.29-1.71-3.14-1.71-5.55v-13.07h6.28v13.11c0,1.73.84,2.59,2.52,2.59,1.44,0,2.47-.52,3.08-1.55v-14.15h6.32v20.17h-5.89l-.19-2.18Z"/>
      <path d="M860.95,780.92c-3.1,0-5.6-.92-7.51-2.77-1.91-1.85-2.87-4.25-2.87-7.21v-.52c0-2.06.38-3.88,1.15-5.46.76-1.58,1.88-2.8,3.35-3.66,1.47-.86,3.21-1.3,5.22-1.3,2.83,0,5.07.88,6.71,2.64,1.64,1.76,2.46,4.21,2.46,7.36v2.44h-12.49c.22,1.13.71,2.02,1.47,2.67.76.65,1.74.97,2.95.97,1.99,0,3.54-.7,4.66-2.09l2.87,3.39c-.78,1.08-1.89,1.94-3.33,2.58-1.44.64-2.98.96-4.63.96ZM860.24,764.85c-1.84,0-2.93,1.22-3.28,3.65h6.34v-.49c.02-1.01-.23-1.79-.76-2.34-.53-.55-1.3-.83-2.29-.83Z"/>
      <path d="M884.18,766.06l-2.07-.15c-1.98,0-3.24.62-3.8,1.86v12.77h-6.28v-20.17h5.89l.21,2.59c1.06-1.98,2.53-2.96,4.42-2.96.67,0,1.25.07,1.75.22l-.11,5.84Z"/>
      <path d="M894.85,771.75l3.36-11.37h6.73l-8.22,23.55-.35.86c-1.17,2.61-3.23,3.92-6.19,3.92-.82,0-1.68-.12-2.59-.37v-4.48h.82c.88,0,1.56-.13,2.02-.38.47-.26.81-.71,1.03-1.37l.5-1.34-7.01-20.38h6.71l3.19,11.37Z"/>
      <path d="M906.52,755.17c0-.9.32-1.63.97-2.2.65-.57,1.49-.86,2.52-.86s1.87.29,2.52.86c.65.57.97,1.3.97,2.2s-.32,1.63-.97,2.2c-.65.57-1.49.86-2.52.86s-1.87-.29-2.52-.86c-.65-.57-.97-1.31-.97-2.2ZM913.19,780.55h-6.3v-20.17h6.3v20.17Z"/>
      <path d="M922.83,760.37l.21,2.37c1.39-1.83,3.31-2.74,5.76-2.74,2.1,0,3.67.63,4.71,1.88,1.04,1.26,1.58,3.14,1.61,5.67v13h-6.3v-12.73c0-1.02-.21-1.77-.62-2.25s-1.16-.72-2.24-.72c-1.23,0-2.14.48-2.74,1.45v14.24h-6.28v-20.17h5.89Z"/>
      <path d="M937.86,770.31c0-2.04.34-3.84,1.01-5.41s1.63-2.78,2.89-3.63c1.25-.85,2.72-1.28,4.38-1.28,2.1,0,3.74.71,4.92,2.12l.22-1.75h5.71v19.41c0,1.78-.41,3.32-1.24,4.63-.83,1.31-2.02,2.32-3.59,3.02-1.57.7-3.38,1.05-5.44,1.05-1.48,0-2.91-.28-4.3-.84-1.39-.56-2.45-1.29-3.18-2.18l2.63-3.69c1.17,1.38,2.71,2.07,4.62,2.07,2.78,0,4.18-1.43,4.18-4.29v-.63c-1.21,1.33-2.73,2-4.57,2-2.46,0-4.45-.94-5.97-2.83-1.52-1.88-2.27-4.4-2.27-7.56v-.22ZM944.16,770.7c0,1.65.31,2.96.93,3.92.62.96,1.49,1.45,2.61,1.45,1.35,0,2.34-.45,2.96-1.36v-8.48c-.61-.92-1.58-1.38-2.93-1.38-1.12,0-2,.5-2.63,1.5-.63,1-.95,2.45-.95,4.35Z"/>
      <path d="M993.35,767.53c0,2.65-.49,4.99-1.47,7.03-.98,2.04-2.38,3.61-4.19,4.71-1.81,1.1-3.87,1.65-6.18,1.65s-4.36-.53-6.15-1.59c-1.79-1.06-3.19-2.58-4.19-4.56-1-1.98-1.53-4.24-1.58-6.8v-1.53c0-2.66.49-5.01,1.46-7.04s2.37-3.6,4.2-4.71c1.82-1.11,3.89-1.66,6.22-1.66s4.35.55,6.15,1.64c1.8,1.09,3.2,2.65,4.2,4.67,1,2.02,1.51,4.33,1.52,6.95v1.25ZM986.69,766.39c0-2.7-.45-4.75-1.35-6.14-.9-1.4-2.19-2.1-3.87-2.1-3.28,0-5.02,2.46-5.2,7.38l-.02,2c0,2.66.44,4.71,1.32,6.13.88,1.43,2.19,2.14,3.93,2.14s2.93-.7,3.82-2.11c.9-1.4,1.35-3.42,1.36-6.06v-1.25Z"/>
      <path d="M1015.16,770.61c0,3.13-.71,5.63-2.12,7.5-1.41,1.87-3.32,2.81-5.71,2.81-1.85,0-3.38-.68-4.57-2.03v9.42h-6.28v-27.93h5.87l.19,1.87c1.21-1.49,2.79-2.24,4.75-2.24,2.49,0,4.42.92,5.8,2.75,1.38,1.83,2.07,4.35,2.07,7.56v.3ZM1008.88,770.22c0-3.58-1.04-5.37-3.13-5.37-1.49,0-2.49.53-2.98,1.6v7.94c.55,1.12,1.55,1.68,3.02,1.68,2,0,3.03-1.73,3.09-5.18v-.67Z"/>
      <path d="M1025.25,755.36v5.01h3.32v4.36h-3.32v9.23c0,.76.14,1.29.41,1.58.27.3.81.45,1.62.45.62,0,1.14-.04,1.57-.11v4.49c-1.13.36-2.31.54-3.54.54-2.16,0-3.76-.51-4.79-1.53-1.03-1.02-1.55-2.57-1.55-4.64v-10.01h-2.57v-4.36h2.57v-5.01h6.28Z"/>
      <path d="M1030.99,755.17c0-.9.32-1.63.97-2.2.65-.57,1.49-.86,2.52-.86s1.87.29,2.52.86c.65.57.97,1.3.97,2.2s-.32,1.63-.97,2.2c-.65.57-1.49.86-2.52.86s-1.87-.29-2.52-.86c-.65-.57-.97-1.31-.97-2.2ZM1037.66,780.55h-6.3v-20.17h6.3v20.17Z"/>
      <path d="M1040.74,770.27c0-2.01.39-3.81,1.17-5.38.78-1.57,1.91-2.78,3.37-3.63s3.19-1.27,5.17-1.27c3.02,0,5.4.93,7.14,2.81s2.61,4.42,2.61,7.63v.22c0,3.15-.87,5.64-2.62,7.49s-4.11,2.77-7.09,2.77-5.18-.86-6.92-2.58-2.68-4.06-2.82-7l-.02-1.06ZM1047.02,770.66c0,1.86.29,3.23.88,4.1.58.87,1.45,1.31,2.59,1.31,2.24,0,3.38-1.72,3.43-5.17v-.63c0-3.62-1.16-5.42-3.47-5.42-2.1,0-3.24,1.56-3.41,4.68l-.02,1.14Z"/>
      <path d="M1068.74,760.37l.21,2.37c1.39-1.83,3.31-2.74,5.76-2.74,2.1,0,3.67.63,4.71,1.88s1.58,3.14,1.61,5.67v13h-6.3v-12.73c0-1.02-.21-1.77-.62-2.25s-1.16-.72-2.24-.72c-1.23,0-2.14.48-2.74,1.45v14.24h-6.28v-20.17h5.89Z"/>
      <path d="M1095.07,774.88c0-.53-.28-.96-.84-1.29-.56-.32-1.62-.66-3.19-1.01s-2.86-.8-3.88-1.37c-1.02-.57-1.8-1.25-2.33-2.06s-.8-1.73-.8-2.78c0-1.85.76-3.38,2.29-4.58,1.53-1.2,3.53-1.8,6-1.8,2.66,0,4.8.6,6.41,1.81,1.62,1.21,2.42,2.79,2.42,4.75h-6.3c0-1.62-.85-2.42-2.55-2.42-.66,0-1.21.18-1.66.55-.45.37-.67.82-.67,1.37s.27,1.01.82,1.36c.55.35,1.42.63,2.62.86,1.2.22,2.25.49,3.16.8,3.03,1.04,4.55,2.92,4.55,5.61,0,1.84-.82,3.34-2.45,4.49-1.63,1.16-3.75,1.73-6.35,1.73-1.73,0-3.27-.31-4.62-.93-1.35-.62-2.41-1.47-3.17-2.54-.76-1.07-1.14-2.19-1.14-3.38h5.87c.03.93.34,1.61.93,2.04s1.36.64,2.29.64c.86,0,1.5-.17,1.93-.52s.64-.8.64-1.36Z"/>
    </g>
    <g>
      <g>
        <rect x="875.44" y="509.44" width="31.52" height="14.51" rx="5.85" ry="5.85" fill="#f8db74" stroke="#000" stroke-miterlimit="10" stroke-width="3"/>
        <rect x="871.2" y="536.3" width="31.52" height="14.51" rx="5.85" ry="5.85" fill="#f8db74" stroke="#000" stroke-miterlimit="10" stroke-width="3"/>
        <rect x="924.08" y="536.3" width="31.52" height="14.51" rx="5.85" ry="5.85" fill="#f8db74" stroke="#000" stroke-miterlimit="10" stroke-width="3"/>
        <rect x="875.44" y="561.56" width="31.52" height="14.51" rx="5.85" ry="5.85" fill="#f8db74" stroke="#000" stroke-miterlimit="10" stroke-width="3"/>
        <rect x="921.48" y="509.44" width="31.52" height="14.51" rx="5.85" ry="5.85" fill="#f8db74" stroke="#000" stroke-miterlimit="10" stroke-width="3"/>
        <rect x="921.48" y="561.56" width="31.52" height="14.51" rx="5.85" ry="5.85" fill="#f8db74" stroke="#000" stroke-miterlimit="10" stroke-width="3"/>
        <line x1="906.96" y1="517.57" x2="921.48" y2="517.57" fill="none" stroke="#000" stroke-miterlimit="10" stroke-width="4"/>
        <line x1="906.42" y1="568.82" x2="920.94" y2="568.82" fill="none" stroke="#000" stroke-miterlimit="10" stroke-width="4"/>
        <line x1="903.9" y1="543.55" x2="923.47" y2="543.55" fill="none" stroke="#000" stroke-miterlimit="10" stroke-width="4"/>
        <g>
          <path d="M908.57,616.46c-3.03,1.95-6,3.81-8.86,5.6-11.37,7.11-22.11,13.83-25.32,19.19l-.84,1.4-11.24-6.71.84-1.41c4.82-8.06,15.76-14.9,29.61-23.56,1.34-.84,2.69-1.69,4.07-2.55.47.36.95.7,1.43,1.03,2.92,2.12,5.89,4.12,8.82,6.04.5.34,1,.67,1.49.98Z" fill="#6d7fd8"/>
          <path d="M960.41,547.17c-.02,26.25-17.73,44.92-37.16,59.26-.49-.32-.99-.63-1.48-.95-2.91-1.84-5.87-3.75-8.8-5.74-.48-.33-.96-.64-1.44-.97,18.76-13.14,35.77-29.34,35.79-51.61.02-24.83-15.45-36.66-35.76-50.16-.48-.32-.98-.64-1.47-.98-.49-.32-.99-.64-1.48-.98-.45-.28-.89-.59-1.35-.88-2.45-1.61-4.97-3.27-7.52-4.99-.48-.34-.98-.67-1.47-1-.48-.33-.96-.65-1.44-.99-11.61-8-23.56-17.36-33.25-30.1l-.99-1.31,10.42-7.92.99,1.3c9.75,12.83,22.16,21.87,34.62,30.21l1.47.98c.5.33.99.67,1.49.98.96.64,1.92,1.28,2.88,1.91,2.01,1.32,4,2.64,5.98,3.96.49.33.98.65,1.46.98.48.33.96.65,1.44.99,20.07,13.7,37.11,28.64,37.08,58.02Z" fill="#6d7fd8"/>
          <path d="M947.36,507.2c-6.36-7.31-14.15-13.27-22.57-19.04-.48-.34-.96-.67-1.45-.99-.48-.33-.96-.65-1.45-.98-2.15-1.44-4.33-2.88-6.53-4.33-.77-.51-1.54-1.01-2.31-1.53-.49-.33-.99-.65-1.48-.98s-.98-.65-1.47-.98c-12.54-8.36-25.06-17.4-34.8-30.22l-1.97-2.6-2.61,1.97-7.82,5.95-2.6,1.97,1.97,2.61c9.69,12.74,21.56,22.11,33.11,30.11.48.33.96.67,1.45.98.48.35.97.68,1.46,1,2.73,1.85,5.42,3.63,8.06,5.37.26.17.51.34.77.5.5.34.99.67,1.49.98.49.34.98.67,1.47.98,20.89,13.87,35.62,24.91,35.6,49.17-.02,21.72-16.99,37.67-35.61,50.62.49.34.97.67,1.45,1,.48.33.96.64,1.44.97,18.91-13.29,35.98-29.75,35.99-52.58.02-25.45-15.47-37.52-35.93-51.14-.49-.32-.98-.64-1.47-.97-.49-.33-.99-.65-1.48-.99-.64-.41-1.29-.84-1.93-1.27-2.27-1.49-4.59-3.02-6.94-4.6-.49-.33-.98-.67-1.48-1-.48-.33-.96-.65-1.45-.99-11.66-8.01-23.71-17.37-33.41-30.11l7.81-5.95c9.76,12.84,22.07,21.9,34.44,30.2.49.33.98.65,1.47.98.5.34,1,.67,1.49.99l3.47,2.29c1.81,1.2,3.62,2.39,5.4,3.58.49.33.98.65,1.47.99.48.32.97.64,1.45.98,19.93,13.55,36.93,28.22,36.9,57.01-.02,25.75-17.7,44.15-37.01,58.32.49.32.99.63,1.48.95.49.31.99.61,1.48.93,19.56-14.51,37.29-33.45,37.31-60.19.01-15.56-4.79-28.63-14.68-39.97ZM908.57,616.46c-.49-.32-.99-.64-1.49-.98-2.81,1.8-5.57,3.52-8.23,5.18-11.55,7.22-22.46,14.05-25.86,19.75l-8.43-5.04c4.61-7.72,15.42-14.48,29.07-23.03,1.52-.95,3.07-1.92,4.63-2.9-.48-.33-.96-.67-1.43-1.03-.47-.34-.95-.69-1.42-1.05-1.18.74-2.36,1.48-3.51,2.2-14.04,8.78-25.13,15.72-30.15,24.12l-1.67,2.81,2.8,1.67,8.43,5.04,2.8,1.68,1.68-2.8c3-5.02,14.07-11.95,24.79-18.64,3.05-1.91,6.24-3.91,9.49-6-.5-.33-1-.65-1.51-.98ZM913.03,496.01c-.49-.32-.98-.64-1.47-.97-.49.33-.98.64-1.47.97.49.34.99.67,1.47.98,20.31,13.51,35.78,25.33,35.76,50.16-.02,22.28-17.03,38.48-35.79,51.61.48.33.96.64,1.44.97,18.91-13.29,35.98-29.75,35.99-52.58.02-25.45-15.47-37.52-35.93-51.14Z"/>
        </g>
        <g>
          <path d="M947.16,447.84l-.99,1.3c-9.75,12.83-22.16,21.87-34.62,30.21-.49.33-.99.65-1.48.98-.49.33-.99.65-1.48.98-.96.64-1.93,1.28-2.89,1.91-2.01,1.32-4,2.64-5.98,3.96-.49.34-.97.67-1.46.98l-1.44.98c-20.06,13.71-37.1,28.66-37.07,58.03.01,26.25,17.72,44.92,37.16,59.26.49-.32.99-.63,1.48-.95-19.31-14.17-36.99-32.58-37.01-58.32-.03-28.79,16.96-43.46,36.9-57.01,2.73,1.85,5.42,3.63,8.06,5.37.26.17.51.34.77.5-20.44,13.63-35.95,25.69-35.91,51.14.01,22.83,17.1,39.31,35.99,52.58.48-.33.96-.65,1.44-.98-18.76-13.12-35.77-29.33-35.79-51.6-.03-24.85,15.44-36.66,35.77-50.16.48-.33.98-.65,1.47-.98.49-.33.98-.64,1.47-.97.45-.29.89-.6,1.35-.89,2.45-1.61,4.97-3.27,7.52-4.99.48-.33.97-.67,1.46-1,.48-.33.96-.65,1.45-.99,11.61-8,23.57-17.36,33.25-30.1l.99-1.31-10.42-7.92Z" fill="#fd8087"/>
          <path d="M957.27,453.47l-7.81-5.95-2.61-1.97-1.97,2.6c-9.74,12.82-22.27,21.86-34.79,30.22-.49.33-.99.65-1.48.98-.49.33-.99.65-1.48.98-.77.51-1.54,1.01-2.31,1.53-2.2,1.45-4.39,2.89-6.53,4.33-.49.34-.97.67-1.45.98-.49.34-.97.67-1.45.99-8.42,5.77-16.21,11.73-22.58,19.04-9.88,11.35-14.7,24.42-14.67,39.97.01,26.74,17.75,45.67,37.3,60.19.5-.31.99-.62,1.49-.93.49-.32.99-.63,1.48-.95-19.31-14.17-36.99-32.58-37.01-58.32-.03-28.79,16.96-43.46,36.9-57.01.48-.34.97-.67,1.45-.98.49-.34.98-.67,1.47-.98,1.78-1.2,3.59-2.39,5.4-3.59,1.16-.76,2.31-1.53,3.48-2.29.49-.33.98-.67,1.48-.99.49-.33.98-.65,1.47-.98,12.37-8.3,24.67-17.36,34.43-30.2l7.82,5.95c-9.69,12.74-21.74,22.1-33.41,30.11-.49.34-.98.67-1.46.99-.49.34-.98.67-1.47.99-2.36,1.58-4.68,3.12-6.95,4.61-.64.43-1.29.85-1.93,1.27-.49.33-.98.65-1.47.98-.5.33-.99.67-1.48.98-20.44,13.63-35.95,25.69-35.91,51.14.01,22.83,17.1,39.31,35.99,52.58.48-.33.96-.65,1.44-.98.48-.33.96-.65,1.44-.99-18.61-12.96-35.58-28.9-35.6-50.62-.02-24.26,14.72-35.33,35.61-49.17.49-.33.98-.65,1.47-.98s.98-.64,1.47-.98c.26-.16.51-.33.77-.5,2.64-1.73,5.35-3.52,8.07-5.37.48-.33.97-.65,1.45-.99.49-.33.97-.67,1.46-.99,11.55-8,23.42-17.37,33.11-30.11l1.97-2.61-2.61-1.97ZM911.56,495.04c-.49-.33-.99-.65-1.48-.99-.49.33-.98.65-1.47.98-.5.33-.99.67-1.48.98-20.44,13.63-35.95,25.69-35.91,51.14.01,22.83,17.1,39.31,35.99,52.58.48-.33.96-.65,1.44-.98.48-.33.96-.65,1.44-.99-18.61-12.96-35.58-28.9-35.6-50.62-.02-24.26,14.72-35.33,35.61-49.17.49-.33.98-.65,1.47-.98-.48-.32-.98-.64-1.47-.98.49-.33.98-.64,1.47-.97ZM911.56,495.04c-.49-.33-.99-.65-1.48-.99-.49.33-.98.65-1.47.98-.5.33-.99.67-1.48.98-20.44,13.63-35.95,25.69-35.91,51.14.01,22.83,17.1,39.31,35.99,52.58.48-.33.96-.65,1.44-.98.48-.33.96-.65,1.44-.99-18.61-12.96-35.58-28.9-35.6-50.62-.02-24.26,14.72-35.33,35.61-49.17.49-.33.98-.65,1.47-.98-.48-.32-.98-.64-1.47-.98.49-.33.98-.64,1.47-.97Z"/>
          <path d="M960.08,636.5l-2.8,1.67-8.43,5.04-2.8,1.68-1.68-2.8c-3-5.02-14.07-11.95-24.79-18.64-3.05-1.91-6.25-3.91-9.5-6-.5-.33-1-.65-1.51-.98-.49-.32-.99-.64-1.49-.98-2.92-1.92-5.89-3.93-8.82-6.04-.48-.33-.96-.67-1.43-1.03-.47-.34-.95-.69-1.42-1.05.5-.31.99-.62,1.49-.93.49-.32.99-.63,1.48-.95.48.35.95.7,1.43,1.04.48.35.95.69,1.43,1.01,2.95,2.09,5.91,4.09,8.84,5.99.5.34,1,.65,1.49.98.5.32,1.01.64,1.51.97,2.81,1.8,5.57,3.52,8.23,5.18,11.55,7.22,22.45,14.05,25.86,19.75l8.43-5.04c-4.63-7.72-15.42-14.48-29.09-23.03-1.52-.95-3.07-1.92-4.63-2.9-.49-.31-.98-.62-1.48-.94-.5-.32-1-.63-1.51-.95-2.92-1.87-5.89-3.8-8.83-5.79-.48-.34-.97-.67-1.45-1-.48-.33-.95-.65-1.43-1,.48-.33.96-.65,1.44-.98.48-.33.96-.65,1.44-.99.49.34.97.67,1.45,1,.48.33.96.64,1.44.97,2.93,1.99,5.89,3.89,8.8,5.74.49.32.99.63,1.48.95.49.31.99.61,1.48.93,1.19.74,2.36,1.47,3.52,2.2,14.04,8.78,25.13,15.72,30.14,24.12l1.68,2.81Z"/>
          <path d="M955.6,635.36l-8.43,5.04c-3.4-5.69-14.3-12.52-25.86-19.75-2.65-1.66-5.41-3.38-8.23-5.18-.49-.33-1-.65-1.51-.97-.49-.33-.99-.64-1.49-.98-2.92-1.9-5.89-3.89-8.84-5.99-.48-.33-.95-.67-1.43-1.01-.48-.34-.95-.69-1.43-1.04-19.31-14.17-36.99-32.58-37.01-58.32-.03-28.79,16.96-43.46,36.9-57.01,2.73,1.85,5.42,3.63,8.06,5.37.26.17.51.34.77.5-20.44,13.63-35.95,25.69-35.91,51.14.01,22.83,17.1,39.31,35.99,52.58.48.35.95.68,1.43,1,.48.34.97.67,1.45,1,2.93,2,5.9,3.93,8.83,5.79.5.32,1,.63,1.51.95.5.32.99.63,1.48.94,1.56.98,3.11,1.95,4.63,2.9,13.67,8.55,24.46,15.31,29.09,23.03Z" fill="#fd8087"/>
        </g>
        <g>
          <path d="M908.57,616.46c-3.03,1.95-6,3.81-8.86,5.6-11.37,7.11-22.11,13.83-25.32,19.19l-.84,1.4-11.24-6.71.84-1.41c4.82-8.06,15.76-14.9,29.61-23.56,1.34-.84,2.69-1.69,4.07-2.55.47.36.95.7,1.43,1.03,2.92,2.12,5.89,4.12,8.82,6.04.5.34,1,.67,1.49.98Z" fill="#6d7fd8"/>
          <path d="M960.41,547.17c-.02,26.25-17.73,44.92-37.16,59.26-.49-.32-.99-.63-1.48-.95-2.91-1.84-5.87-3.75-8.8-5.74-.48-.33-.96-.64-1.44-.97,18.76-13.14,35.77-29.34,35.79-51.61.02-24.83-15.45-36.66-35.76-50.16-.48-.32-.98-.64-1.47-.98-.49-.32-.99-.64-1.48-.98-.45-.28-.89-.59-1.35-.88-2.45-1.61-4.97-3.27-7.52-4.99-.48-.34-.98-.67-1.47-1-.48-.33-.96-.65-1.44-.99-11.61-8-23.56-17.36-33.25-30.1l-.99-1.31,10.42-7.92.99,1.3c9.75,12.83,22.16,21.87,34.62,30.21l1.47.98c.5.33.99.67,1.49.98.96.64,1.92,1.28,2.88,1.91,2.01,1.32,4,2.64,5.98,3.96.49.33.98.65,1.46.98.48.33.96.65,1.44.99,20.07,13.7,37.11,28.64,37.08,58.02Z" fill="#6d7fd8"/>
          <path d="M947.36,507.2c-6.36-7.31-14.15-13.27-22.57-19.04-.48-.34-.96-.67-1.45-.99-.48-.33-.96-.65-1.45-.98-2.15-1.44-4.33-2.88-6.53-4.33-.77-.51-1.54-1.01-2.31-1.53-.49-.33-.99-.65-1.48-.98s-.98-.65-1.47-.98c-12.54-8.36-25.06-17.4-34.8-30.22l-1.97-2.6-2.61,1.97-7.82,5.95-2.6,1.97,1.97,2.61c9.69,12.74,21.56,22.11,33.11,30.11.48.33.96.67,1.45.98.48.35.97.68,1.46,1,2.73,1.85,5.42,3.63,8.06,5.37.26.17.51.34.77.5.5.34.99.67,1.49.98.49.34.98.67,1.47.98,20.89,13.87,35.62,24.91,35.6,49.17-.02,21.72-16.99,37.67-35.61,50.62.49.34.97.67,1.45,1,.48.33.96.64,1.44.97,18.91-13.29,35.98-29.75,35.99-52.58.02-25.45-15.47-37.52-35.93-51.14-.49-.32-.98-.64-1.47-.97-.49-.33-.99-.65-1.48-.99-.64-.41-1.29-.84-1.93-1.27-2.27-1.49-4.59-3.02-6.94-4.6-.49-.33-.98-.67-1.48-1-.48-.33-.96-.65-1.45-.99-11.66-8.01-23.71-17.37-33.41-30.11l7.81-5.95c9.76,12.84,22.07,21.9,34.44,30.2.49.33.98.65,1.47.98.5.34,1,.67,1.49.99l3.47,2.29c1.81,1.2,3.62,2.39,5.4,3.58.49.33.98.65,1.47.99.48.32.97.64,1.45.98,19.93,13.55,36.93,28.22,36.9,57.01-.02,25.75-17.7,44.15-37.01,58.32.49.32.99.63,1.48.95.49.31.99.61,1.48.93,19.56-14.51,37.29-33.45,37.31-60.19.01-15.56-4.79-28.63-14.68-39.97ZM908.57,616.46c-.49-.32-.99-.64-1.49-.98-2.81,1.8-5.57,3.52-8.23,5.18-11.55,7.22-22.46,14.05-25.86,19.75l-8.43-5.04c4.61-7.72,15.42-14.48,29.07-23.03,1.52-.95,3.07-1.92,4.63-2.9-.48-.33-.96-.67-1.43-1.03-.47-.34-.95-.69-1.42-1.05-1.18.74-2.36,1.48-3.51,2.2-14.04,8.78-25.13,15.72-30.15,24.12l-1.67,2.81,2.8,1.67,8.43,5.04,2.8,1.68,1.68-2.8c3-5.02,14.07-11.95,24.79-18.64,3.05-1.91,6.24-3.91,9.49-6-.5-.33-1-.65-1.51-.98ZM913.03,496.01c-.49-.32-.98-.64-1.47-.97-.49.33-.98.64-1.47.97.49.34.99.67,1.47.98,20.31,13.51,35.78,25.33,35.76,50.16-.02,22.28-17.03,38.48-35.79,51.61.48.33.96.64,1.44.97,18.91-13.29,35.98-29.75,35.99-52.58.02-25.45-15.47-37.52-35.93-51.14Z"/>
        </g>
      </g>
      <g>
        <circle cx="965.08" cy="541.79" r="33.15" fill="#eaf6ff"/>
        <g>
          <g>
            <g>
              <path d="M1031.02,608.79c-1.6,0-3.16-.56-4.38-1.57l-36.55-30.19c-1.41-1.17-2.29-2.82-2.46-4.67-.18-1.84.37-3.63,1.54-5.05l5.66-6.85c1.31-1.58,3.25-2.49,5.33-2.49,1.6,0,3.16.56,4.38,1.57l36.55,30.19c1.41,1.17,2.29,2.82,2.46,4.67.18,1.84-.37,3.63-1.54,5.05l-5.66,6.85c-1.31,1.58-3.25,2.49-5.33,2.49Z" fill="#666"/>
              <path d="M1000.15,560.47h0c.72,0,1.79.17,2.79,1l36.55,30.19c1.87,1.55,2.14,4.33.59,6.2l-5.66,6.85c-.83,1.01-2.07,1.59-3.41,1.59-.72,0-1.79-.17-2.79-1l-36.55-30.19c-1.87-1.55-2.14-4.33-.59-6.2l5.66-6.85c.83-1.01,2.07-1.59,3.41-1.59M1000.15,555.47c-2.71,0-5.41,1.16-7.26,3.4l-5.66,6.85c-3.29,3.99-2.73,9.94,1.26,13.24l36.55,30.19c1.74,1.44,3.86,2.14,5.97,2.14,2.71,0,5.41-1.16,7.26-3.4l5.66-6.85c3.29-3.99,2.73-9.94-1.26-13.24l-36.55-30.19c-1.74-1.44-3.86-2.14-5.97-2.14h0Z"/>
            </g>
            <g>
              <path d="M999.77,591.82c-1.2,0-2.37-.42-3.29-1.18l-1.01-.83c-2.2-1.82-2.52-5.1-.7-7.3l16.02-19.39c.98-1.19,2.44-1.87,4.01-1.87,1.2,0,2.37.42,3.29,1.18l1.01.83c1.06.88,1.72,2.12,1.85,3.51.13,1.38-.28,2.73-1.16,3.79l-16.02,19.39c-.98,1.19-2.44,1.87-4.01,1.87Z" fill="#6e91ef"/>
              <path d="M1014.81,563.24h0c.52,0,1.3.13,2.02.72l1.01.83c.65.54,1.05,1.3,1.13,2.15.08.85-.17,1.68-.71,2.33l-16.02,19.39c-.6.73-1.5,1.15-2.47,1.15-.52,0-1.3-.13-2.02-.72l-1.01-.83c-.65-.54-1.05-1.3-1.13-2.15-.08-.85.17-1.68.71-2.33l16.02-19.39c.6-.73,1.5-1.15,2.47-1.15M1014.81,559.24c-2.07,0-4.13.89-5.55,2.6l-16.02,19.39c-2.52,3.05-2.08,7.6.96,10.11l1.01.83c1.33,1.1,2.95,1.64,4.57,1.64,2.07,0,4.13-.89,5.55-2.6l16.02-19.39c2.52-3.05,2.08-7.6-.96-10.11l-1.01-.83c-1.33-1.1-2.95-1.64-4.57-1.64h0Z"/>
            </g>
          </g>
          <path d="M933.36,515.91c-14.26,17.26-11.82,42.8,5.43,57.05,17.26,14.26,42.8,11.82,57.05-5.43,14.26-17.26,11.82-42.8-5.43-57.05-17.26-14.26-42.8-11.82-57.05,5.43ZM986.42,559.42c-9.74,11.79-27.19,13.45-38.98,3.71-11.79-9.74-13.45-27.19-3.71-38.98,9.74-11.79,27.19-13.45,38.98-3.71,11.79,9.74,13.45,27.19,3.71,38.98Z" fill="#6e91ef" stroke="#000" stroke-miterlimit="10" stroke-width="4"/>
        </g>
      </g>
      <path d="M969.24,556.96c0,2.21-1.73,3.83-4,3.83s-3.94-1.62-3.94-3.83,1.67-3.83,3.94-3.83,4,1.62,4,3.83ZM968.32,535.95l-.38,12.31h-5.35l-.43-12.31v-13.61h6.16v13.61Z"/>
    </g>
  </g>
  <g>
    <g>
      <path d="M1230.75,734.72v-27.15h9.75c3.49,0,6.15.64,7.97,1.92s2.73,3.14,2.73,5.57c0,1.4-.32,2.6-.97,3.6s-1.6,1.73-2.85,2.2c1.42.37,2.5,1.07,3.26,2.09s1.14,2.26,1.14,3.73c0,2.66-.84,4.66-2.53,5.99-1.68,1.34-4.18,2.02-7.49,2.04h-11.02ZM1237.3,718.89h3.41c1.43-.01,2.45-.27,3.06-.79.61-.51.91-1.27.91-2.26,0-1.15-.33-1.97-.99-2.48-.66-.5-1.72-.76-3.19-.76h-3.21v6.28ZM1237.3,723.18v6.51h4.29c1.18,0,2.09-.27,2.72-.81.63-.54.95-1.3.95-2.28,0-2.26-1.12-3.4-3.38-3.41h-4.59Z"/>
      <path d="M1264.86,735.1c-3.09,0-5.6-.92-7.51-2.77s-2.87-4.25-2.87-7.21v-.52c0-2.06.38-3.88,1.15-5.46.76-1.58,1.88-2.8,3.35-3.66,1.47-.86,3.21-1.3,5.22-1.3,2.83,0,5.07.88,6.71,2.64s2.46,4.21,2.46,7.36v2.44h-12.49c.22,1.13.71,2.02,1.47,2.67.76.65,1.74.97,2.95.97,1.99,0,3.54-.7,4.66-2.09l2.87,3.39c-.78,1.08-1.89,1.94-3.33,2.58-1.44.64-2.98.96-4.63.96ZM1264.15,719.03c-1.84,0-2.93,1.22-3.28,3.65h6.34v-.49c.03-1.01-.23-1.79-.76-2.34-.54-.55-1.3-.83-2.29-.83Z"/>
      <path d="M1287.25,734.72c-.22-.41-.42-1.01-.6-1.81-1.16,1.45-2.77,2.18-4.85,2.18-1.9,0-3.52-.58-4.85-1.72s-2-2.59-2-4.33c0-2.19.81-3.84,2.42-4.96,1.62-1.12,3.96-1.68,7.05-1.68h1.94v-1.07c0-1.86-.8-2.79-2.4-2.79-1.49,0-2.24.74-2.24,2.21h-6.28c0-1.95.83-3.53,2.49-4.75,1.66-1.22,3.78-1.83,6.35-1.83s4.61.63,6.1,1.88c1.49,1.26,2.26,2.98,2.29,5.16v8.93c.02,1.85.31,3.27.86,4.25v.32h-6.28ZM1283.31,730.62c.78,0,1.43-.17,1.95-.5.52-.33.89-.71,1.11-1.14v-3.23h-1.83c-2.19,0-3.28.98-3.28,2.95,0,.57.19,1.04.58,1.39.38.35.88.53,1.47.53Z"/>
      <path d="M1304.68,730.25c.88,0,1.57-.24,2.05-.72s.72-1.15.71-2h5.89c0,2.21-.79,4.03-2.38,5.44s-3.63,2.13-6.12,2.13c-2.93,0-5.25-.92-6.94-2.76-1.69-1.84-2.54-4.39-2.54-7.64v-.26c0-2.04.38-3.84,1.13-5.4.75-1.56,1.84-2.76,3.25-3.6s3.1-1.26,5.03-1.26c2.62,0,4.71.73,6.25,2.18,1.54,1.46,2.31,3.42,2.31,5.91h-5.89c0-1.04-.25-1.85-.76-2.41-.51-.56-1.19-.84-2.05-.84-1.63,0-2.58,1.04-2.85,3.11-.09.66-.13,1.57-.13,2.72,0,2.03.24,3.43.73,4.21.49.78,1.26,1.17,2.31,1.17Z"/>
      <path d="M1315.2,724.45c0-2.01.39-3.81,1.17-5.38.78-1.57,1.91-2.78,3.37-3.63s3.19-1.27,5.17-1.27c3.02,0,5.4.93,7.14,2.81s2.61,4.42,2.61,7.63v.22c0,3.15-.87,5.64-2.62,7.49s-4.11,2.77-7.09,2.77-5.18-.86-6.92-2.58-2.68-4.06-2.82-7l-.02-1.06ZM1321.48,724.84c0,1.86.29,3.23.88,4.1.58.87,1.45,1.31,2.59,1.31,2.24,0,3.38-1.72,3.43-5.17v-.63c0-3.62-1.16-5.42-3.47-5.42-2.1,0-3.24,1.56-3.41,4.68l-.02,1.14Z"/>
      <path d="M1343.2,714.55l.21,2.37c1.39-1.83,3.31-2.74,5.76-2.74,2.1,0,3.67.63,4.71,1.88s1.58,3.14,1.61,5.67v13h-6.3v-12.73c0-1.02-.21-1.77-.62-2.25s-1.16-.72-2.24-.72c-1.23,0-2.14.48-2.74,1.45v14.24h-6.28v-20.17h5.89Z"/>
      <path d="M1391.43,734.72h-6.51l-9.62-16.89v16.89h-6.54v-27.15h6.54l9.6,16.89v-16.89h6.53v27.15Z"/>
      <path d="M1405.04,735.1c-3.09,0-5.6-.92-7.51-2.77s-2.87-4.25-2.87-7.21v-.52c0-2.06.38-3.88,1.15-5.46.76-1.58,1.88-2.8,3.35-3.66,1.47-.86,3.21-1.3,5.22-1.3,2.83,0,5.07.88,6.71,2.64s2.46,4.21,2.46,7.36v2.44h-12.49c.22,1.13.71,2.02,1.47,2.67.76.65,1.74.97,2.95.97,1.99,0,3.54-.7,4.66-2.09l2.87,3.39c-.78,1.08-1.89,1.94-3.33,2.58-1.44.64-2.98.96-4.63.96ZM1404.33,719.03c-1.84,0-2.93,1.22-3.28,3.65h6.34v-.49c.03-1.01-.23-1.79-.76-2.34-.54-.55-1.3-.83-2.29-.83Z"/>
      <path d="M1423.39,709.54v5.01h3.32v4.36h-3.32v9.23c0,.76.14,1.29.41,1.58.27.3.81.45,1.62.45.62,0,1.14-.04,1.57-.11v4.49c-1.13.36-2.31.54-3.54.54-2.16,0-3.76-.51-4.79-1.53-1.03-1.02-1.55-2.57-1.55-4.64v-10.01h-2.57v-4.36h2.57v-5.01h6.28Z"/>
      <path d="M1446.6,726.45l2.03-11.9h6.02l-4.75,20.17h-5.31l-3.34-11.97-3.36,11.97h-5.31l-4.75-20.17h6.02l2,12.18,3.21-12.18h4.38l3.17,11.9Z"/>
      <path d="M1456.11,724.45c0-2.01.39-3.81,1.17-5.38.78-1.57,1.91-2.78,3.37-3.63s3.19-1.27,5.17-1.27c3.02,0,5.4.93,7.14,2.81s2.61,4.42,2.61,7.63v.22c0,3.15-.87,5.64-2.62,7.49s-4.11,2.77-7.09,2.77-5.18-.86-6.92-2.58-2.68-4.06-2.82-7l-.02-1.06ZM1462.4,724.84c0,1.86.29,3.23.88,4.1.58.87,1.45,1.31,2.59,1.31,2.24,0,3.38-1.72,3.43-5.17v-.63c0-3.62-1.16-5.42-3.47-5.42-2.1,0-3.24,1.56-3.41,4.68l-.02,1.14Z"/>
      <path d="M1490.55,720.24l-2.07-.15c-1.98,0-3.24.62-3.8,1.86v12.77h-6.28v-20.17h5.89l.21,2.59c1.06-1.98,2.53-2.96,4.42-2.96.67,0,1.25.07,1.75.22l-.11,5.84Z"/>
      <path d="M1500.92,727.21l-1.77,1.77v5.74h-6.28v-28.66h6.28v15.21l.63-.84,4.74-5.89h7.53l-7.07,8.3,7.53,11.88h-7.2l-4.4-7.51Z"/>
    </g>
    <g>
      <circle cx="1370" cy="550" r="95.56" fill="#c9f0ff" stroke="#000" stroke-miterlimit="10" stroke-width="5"/>
      <g>
        <path d="M1318.1,469.7c20.11,2.63,37.79,9.57,53.23,20.51,17.73-12.51,35.09-19.35,52.08-20.51" fill="none" stroke="#000" stroke-miterlimit="10" stroke-width="4"/>
        <path d="M1274.57,536.24c17.46-5.43,38.12-5.94,60.04-4.5,31.12.93,58.37,9.83,83.3,23.51,16.92-18.87,25.84-39.81,28.52-62.36" fill="none" stroke="#000" stroke-miterlimit="10" stroke-width="4"/>
        <path d="M1371.33,490.21c-15.16,6.34-27.17,20.77-36.72,41.53-16.52,28.75-24.6,60.3-18.51,96.56" fill="none" stroke="#000" stroke-miterlimit="10" stroke-width="4"/>
        <path d="M1459.19,585.77c-6.22-11.21-21.29-21.2-41.28-30.52-27.05,33.95-60.74,58.66-101.81,73.05" fill="none" stroke="#000" stroke-miterlimit="10" stroke-width="4"/>
        <path d="M1423.42,630.3c7.17-23.68,5.34-47.36-5.5-71.05" fill="none" stroke="#000" stroke-miterlimit="10" stroke-width="4"/>
      </g>
      <g>
        <circle cx="1318.1" cy="469.7" r="9.51" fill="#ff815c" stroke="#000" stroke-miterlimit="10" stroke-width="4"/>
        <circle cx="1274.57" cy="536.24" r="9.51" fill="#ff815c" stroke="#000" stroke-miterlimit="10" stroke-width="4"/>
        <circle cx="1334.61" cy="531.74" r="9.51" fill="#ff815c" stroke="#000" stroke-miterlimit="10" stroke-width="4"/>
        <circle cx="1371.33" cy="490.21" r="9.51" fill="#ff815c" stroke="#000" stroke-miterlimit="10" stroke-width="4"/>
        <circle cx="1423.42" cy="469.7" r="9.51" fill="#ff815c" stroke="#000" stroke-miterlimit="10" stroke-width="4"/>
        <circle cx="1446.43" cy="492.89" r="9.51" fill="#ff815c" stroke="#000" stroke-miterlimit="10" stroke-width="4"/>
        <circle cx="1417.91" cy="555.25" r="9.51" fill="#ff815c" stroke="#000" stroke-miterlimit="10" stroke-width="4"/>
        <circle cx="1423.42" cy="630.3" r="9.51" fill="#ff815c" stroke="#000" stroke-miterlimit="10" stroke-width="4"/>
        <circle cx="1318.1" cy="628.3" r="9.51" fill="#ff815c" stroke="#000" stroke-miterlimit="10" stroke-width="4"/>
      </g>
    </g>
  </g>
</svg>