<?xml version="1.0" encoding="UTF-8"?>
<svg id="Layer_1" data-name="Layer 1" xmlns="http://www.w3.org/2000/svg" width="331.15" height="267.82" viewBox="0 0 331.15 267.82">
  <rect x="91.42" y="44.04" width="130.01" height="179.74" rx="8.35" ry="8.35" fill="#fff" stroke="#000" stroke-miterlimit="10" stroke-width="5"/>
  <rect x="106.23" y="60.72" width="64.36" height="14.98" rx="4.62" ry="4.62" fill="#83dbff" stroke="#000" stroke-miterlimit="10" stroke-width="4"/>
  <line x1="106.21" y1="90.14" x2="206.64" y2="90.14" fill="none" stroke="#000" stroke-miterlimit="10" stroke-width="5"/>
  <line x1="106.21" y1="102.06" x2="206.64" y2="102.06" fill="none" stroke="#000" stroke-miterlimit="10" stroke-width="5"/>
  <line x1="106.21" y1="137.83" x2="190.99" y2="137.83" fill="none" stroke="#000" stroke-miterlimit="10" stroke-width="5"/>
  <line x1="106.21" y1="149.76" x2="190.99" y2="149.76" fill="none" stroke="#000" stroke-miterlimit="10" stroke-width="5"/>
  <line x1="106.21" y1="161.85" x2="190.99" y2="161.85" fill="none" stroke="#000" stroke-miterlimit="10" stroke-width="5"/>
  <line x1="106.21" y1="173.78" x2="190.99" y2="173.78" fill="none" stroke="#000" stroke-miterlimit="10" stroke-width="5"/>
  <line x1="106.21" y1="197.71" x2="139.4" y2="197.71" fill="none" stroke="#000" stroke-miterlimit="10" stroke-width="5"/>
  <line x1="173.45" y1="197.71" x2="206.64" y2="197.71" fill="none" stroke="#000" stroke-miterlimit="10" stroke-width="5"/>
  <line x1="106.21" y1="113.99" x2="156.43" y2="113.99" fill="none" stroke="#000" stroke-miterlimit="10" stroke-width="5"/>
  <polygon points="232.95 179.34 221.37 169.34 209.8 179.34 209.8 136 232.95 136 232.95 179.34" fill="#fe76a8" stroke="#000" stroke-miterlimit="10" stroke-width="5"/>
  <circle cx="221.43" cy="134.05" r="18.3" fill="#ffe177" stroke="#000" stroke-miterlimit="10" stroke-width="5"/>
</svg>