<?xml version="1.0" encoding="UTF-8"?>
<svg id="Layer_1" data-name="Layer 1" xmlns="http://www.w3.org/2000/svg" width="331.15" height="267.82" viewBox="0 0 331.15 267.82">
  <rect x="102.04" y="186.28" width="125.75" height="21.68" fill="#fff" stroke="#000" stroke-miterlimit="10" stroke-width="5"/>
  <rect x="113.04" y="45.52" width="121.08" height="125.41" fill="#c0976e" stroke="#000" stroke-miterlimit="10" stroke-width="5"/>
  <path d="M110.76,45.52h2.28v125.28c0,12.63-10.26,22.89-22.89,22.89h-4.46v-123.1c0-13.84,11.23-25.07,25.07-25.07Z" fill="#c0976e" stroke="#000" stroke-miterlimit="10" stroke-width="5"/>
  <path d="M234.12,58.61h4.69c3.67,0,6.65,2.98,6.65,6.65v13.38c0,3.67-2.98,6.65-6.65,6.65h-4.69v-26.68h0Z" fill="#a7c2f3" stroke="#000" stroke-miterlimit="10" stroke-width="5"/>
  <path d="M234.12,86.38h4.69c3.67,0,6.65,2.98,6.65,6.65v13.38c0,3.67-2.98,6.65-6.65,6.65h-4.69v-26.68h0Z" fill="#b9da9a" stroke="#000" stroke-miterlimit="10" stroke-width="5"/>
  <path d="M234.12,114.15h4.69c3.67,0,6.65,2.98,6.65,6.65v13.38c0,3.67-2.98,6.65-6.65,6.65h-4.69v-26.68h0Z" fill="#a7c2f4" stroke="#000" stroke-miterlimit="10" stroke-width="5"/>
  <path d="M234.12,142.75h4.69c3.67,0,6.65,2.98,6.65,6.65v13.38c0,3.67-2.98,6.65-6.65,6.65h-4.69v-26.68h0Z" fill="#d6606b" stroke="#000" stroke-miterlimit="10" stroke-width="5"/>
  <path d="M111.04,186.28h123.08v-15.34h-124.41c-13.26,0-24.02,10.75-24.02,24.02h0c0,15.11,12.25,27.35,27.35,27.35h121.08v-14.34h-121.91c-5.62,0-10.17-4.55-10.17-10.17v-2.5c0-4.97,4.03-9.01,9.01-9.01Z" fill="#c0976e" stroke="#000" stroke-miterlimit="10" stroke-width="5"/>
  <path d="M85.69,81.88c6.22-13.69,18.78-18.36,27.35-19.35" fill="none" stroke="#000" stroke-miterlimit="10" stroke-width="5"/>
  <path d="M85.69,97.03c7.72-16.83,18.78-18.36,27.35-19.35" fill="none" stroke="#000" stroke-miterlimit="10" stroke-width="5"/>
  <path d="M85.69,165.76c9.86-13.94,19.48-12.77,27.35-12.8" fill="none" stroke="#000" stroke-miterlimit="10" stroke-width="5"/>
  <polygon points="126.06 186.28 149.58 186.28 149.58 217.42 137.7 206.61 126.04 217.42 126.06 186.28" fill="#d6606b" stroke="#000" stroke-linecap="round" stroke-linejoin="round" stroke-width="5"/>
  <g>
    <path d="M157.48,112.69l-2.73-8.73h-12.5l-2.7,8.73h-16.38l18.61-50.75h13.39l18.75,50.75h-16.44ZM150.81,91.26l-2.32-7.46-2.3,7.46h4.62Z" fill="#fcbe42"/>
    <path d="M153.78,63.95l17.27,46.75h-12.1l-2.73-8.73h-15.44l-2.7,8.73h-12.04l17.15-46.75h10.6M143.48,93.26h10.05l-5.04-16.21-5.01,16.21M156.57,59.95h-16.18l-.96,2.62-17.15,46.75-1.97,5.38h20.72l.87-2.82,1.83-5.91h9.55l1.85,5.93.88,2.81h20.79l-1.99-5.39-17.27-46.75-.97-2.61h0Z"/>
  </g>
  <g>
    <polygon points="182.18 156.13 182.18 147.56 202.64 118.08 182.05 118.08 182.05 105.38 222.37 105.38 222.37 113.78 202.04 143.46 222.59 143.46 222.59 156.13 182.18 156.13" fill="#fcbe42"/>
    <path d="M220.37,107.38v5.78l-22.12,32.3h22.35v8.67h-36.41v-5.94l22.28-32.11h-22.41v-8.7h36.31M224.37,103.38h-44.31v16.7h18.77l-17.92,25.83-.71,1.03v11.19h44.41v-16.67h-18.76l17.83-26.04.7-1.02v-11.02h0Z"/>
  </g>
</svg>