<?xml version="1.0" encoding="UTF-8"?>
<svg id="Layer_1" data-name="Layer 1" xmlns="http://www.w3.org/2000/svg" width="1920" height="952.05" viewBox="0 0 1920 952.05">
  <text transform="translate(194.58 90.85)" fill="#00665a" font-family="Stolzl-Bold, Stolzl" font-size="28" font-weight="700"><tspan x="0" y="0">Initial concept of Beacon</tspan></text>
  <text transform="translate(194.58 57.09)" fill="#00665a" font-family="Stolzl-Bold, Stolzl" font-size="49" font-weight="700"><tspan x="0" y="0" letter-spacing="0em">2</tspan><tspan x="29.5" y="0" letter-spacing="0em">0</tspan><tspan x="64.29" y="0">14:</tspan></text>
  <text transform="translate(193.78 291.79)" fill="#00665a" font-family="Stolzl-Bold, Stolzl" font-size="49" font-weight="700"><tspan x="0" y="0" letter-spacing="0em">2</tspan><tspan x="29.5" y="0" letter-spacing="0em">0</tspan><tspan x="64.29" y="0">16:</tspan></text>
  <text transform="translate(193.78 540.43)" fill="#00665a" font-family="Stolzl-Bold, Stolzl" font-size="49" font-weight="700"><tspan x="0" y="0" letter-spacing="0em">2</tspan><tspan x="29.5" y="0" letter-spacing="0em">0</tspan><tspan x="64.29" y="0">19:</tspan></text>
  <text transform="translate(194.58 141.32)" font-family="Stolzl-Regular, Stolzl" font-size="25"><tspan x="0" y="0">I</tspan><tspan x="6.92" y="0" letter-spacing="0em">n</tspan><tspan x="22.27" y="0">t</tspan><tspan x="35.3" y="0" letter-spacing="0em">r</tspan><tspan x="45.52" y="0">oduction of the initial concept of genomic </tspan><tspan x="0" y="26">da</tspan><tspan x="33.8" y="26" letter-spacing="-.03em">t</tspan><tspan x="46.17" y="26">a disc</tspan><tspan x="124.22" y="26" letter-spacing="-.03em">ov</tspan><tspan x="153.72" y="26">ery at </tspan><tspan x="240.52" y="26" letter-spacing="0em">G</tspan><tspan x="261.15" y="26">A4GH.</tspan></text>
  <path d="M858.73,99.97c3.31,172.51,4.72,345.59,5.88,518.15,0,0,.19,3.17.19,3.17l.09,1.58.25,1.56c.17,1.04.31,2.09.5,3.13l.81,3.06c.15.51.23,1.03.43,1.52l.56,1.48c.39.98.68,2,1.15,2.95l1.39,2.84.34.71.42.67.83,1.35c.56.89,1.06,1.83,1.74,2.64,23.75,32.58,74.07,22.08,82.65-17.42.2-1.31.51-3.44.69-4.64.04-1,.16-3.66.21-4.69-.38-114.69-.51-260.66-.26-375.22.03-3.93-.07-10.78.24-14.78.37-5.35,1.49-10.72,3.37-15.74,9.39-26.2,36.28-42.37,63.83-38.26,12.61,1.71,24.52,7.88,33.47,16.88,5.96,6.25,10.88,13.73,13.61,21.96.86,1.99,1.58,5.57,2.16,7.71.22,1.63.7,4.4.87,5.94.09,1.05.2,4.81.27,5.97-.1,16.49-.27,64.9-.37,82.19-1.15,171.38-2.56,343.26-5.87,514.58-3.6-190.22-5.18-381.45-6.13-571.76-.06-4.06-.05-17.34-.09-21.44,0,0-.02-3.57-.02-3.57l-.17-3.17c-.09-2.75-.48-3.76-.8-6.23,0,0-.8-3.04-.8-3.04-.14-.5-.25-1.02-.4-1.52l-.55-1.47c-5.49-15.86-20.32-27.97-36.99-30.02-1.72-.39-4.46-.33-6.23-.47-1.48.08-3.19.16-4.68.24-.52.05-1.03.16-1.54.23l-3.08.48c-1.19.25-3.39.93-4.52,1.18-3.41,1.25-6.82,2.58-9.87,4.56-.45.24-1.56.97-2,1.21-7.85,5.49-14.18,13.33-17.3,22.42-1.43,3.86-2.27,8.01-2.54,12.12-.27,3.67-.12,10-.14,13.8.25,114.51.13,260.59-.26,375.22,0,0-.21,4.01-.21,4.01l-.12,2-.3,1.99c-.21,1.32-.41,2.65-.64,3.97l-1.01,3.89c-13.2,45.61-71.63,57.85-101.92,21.05,0,0-2.38-3.2-2.38-3.2-1.32-1.81-2.54-3.97-3.7-5.9,0,0-.43-.9-.43-.9l-1.71-3.6c-.97-2.41-1.99-4.99-2.62-7.51,0,0-.97-3.86-.97-3.86-.3-1.86-.64-4.01-.9-5.9-.05-.89-.24-4.89-.27-5.95,1.14-172.58,2.56-345.64,5.87-518.17h0Z" fill="#00665a"/>
  <circle cx="856.81" cy="109.97" r="16.36" fill="#00665a"/>
  <circle cx="856.81" cy="339.89" r="16.36" fill="#00665a"/>
  <circle cx="856.81" cy="587.81" r="16.36" fill="#00665a"/>
  <circle cx="1068.17" cy="282.01" r="16.36" fill="#00665a"/>
  <circle cx="1068.17" cy="547.21" r="16.36" fill="#00665a"/>
  <circle cx="1068.17" cy="835.41" r="24.14" fill="#00665a"/>
  <line x1="855.21" y1="109.24" x2="194.58" y2="109.24" fill="none" stroke="#00665a" stroke-linecap="round" stroke-miterlimit="10" stroke-width="6"/>
  <text transform="translate(194.58 321.39)" fill="#00665a" font-family="Stolzl-Bold, Stolzl" font-size="28" font-weight="700"><tspan x="0" y="0" letter-spacing="-.04em">R</tspan><tspan x="18.23" y="0">elease of Beacon API v1</tspan></text>
  <text transform="translate(194.58 371.86)" font-family="Stolzl-Regular, Stolzl" font-size="25"><tspan x="0" y="0" letter-spacing="-.03em">R</tspan><tspan x="16.02" y="0">elease of Beacon v1</tspan><tspan x="275.75" y="0" letter-spacing="-.04em">.</tspan><tspan x="282.54" y="0">0 that suppo</tspan><tspan x="453.77" y="0" letter-spacing=".01em">r</tspan><tspan x="464.54" y="0" letter-spacing="-.03em">t</tspan><tspan x="476.92" y="0">ed simple </tspan><tspan x="0" y="26" letter-spacing="-.03em">y</tspan><tspan x="14.3" y="26">es/no queries. It </tspan><tspan x="232.55" y="26" letter-spacing="-.03em">w</tspan><tspan x="253.4" y="26">as widely adop</tspan><tspan x="449.34" y="26" letter-spacing="-.03em">t</tspan><tspan x="461.72" y="26">ed </tspan><tspan x="502.54" y="26" letter-spacing="-.03em">b</tspan><tspan x="518.72" y="26">y </tspan><tspan x="541.34" y="26" letter-spacing="-.03em">v</tspan><tspan x="555.04" y="26">arious </tspan><tspan x="0" y="52">o</tspan><tspan x="16.62" y="52" letter-spacing="0em">r</tspan><tspan x="26.85" y="52">ganizations and </tspan><tspan x="242.77" y="52" letter-spacing="0em">r</tspan><tspan x="253" y="52">esea</tspan><tspan x="317.12" y="52" letter-spacing="0em">r</tspan><tspan x="327.49" y="52">ch institutions.</tspan></text>
  <line x1="855.21" y1="339.78" x2="194.58" y2="339.78" fill="none" stroke="#00665a" stroke-linecap="round" stroke-miterlimit="10" stroke-width="6"/>
  <text transform="translate(194.58 571.04)" fill="#00665a" font-family="Stolzl-Bold, Stolzl" font-size="28" font-weight="700"><tspan x="0" y="0">D</tspan><tspan x="20.41" y="0" letter-spacing="-.02em">e</tspan><tspan x="37.8" y="0" letter-spacing="-.03em">v</tspan><tspan x="53.73" y="0">elopment of Beacon v2 begins</tspan></text>
  <text transform="translate(194.58 619.72)" font-family="Stolzl-Regular, Stolzl" font-size="25"><tspan x="0" y="0" letter-spacing="-.03em">R</tspan><tspan x="16.02" y="0">elease of Beacon v1</tspan><tspan x="275.75" y="0" letter-spacing="-.04em">.</tspan><tspan x="282.54" y="0">0 that suppo</tspan><tspan x="453.77" y="0" letter-spacing=".01em">r</tspan><tspan x="464.54" y="0" letter-spacing="-.03em">t</tspan><tspan x="476.92" y="0">ed simple </tspan><tspan x="0" y="26" letter-spacing="-.03em">y</tspan><tspan x="14.3" y="26">es/no queries. It </tspan><tspan x="232.55" y="26" letter-spacing="-.03em">w</tspan><tspan x="253.4" y="26">as widely adop</tspan><tspan x="449.34" y="26" letter-spacing="-.03em">t</tspan><tspan x="461.72" y="26">ed </tspan><tspan x="502.54" y="26" letter-spacing="-.03em">b</tspan><tspan x="518.72" y="26">y </tspan><tspan x="541.34" y="26" letter-spacing="-.03em">v</tspan><tspan x="555.04" y="26">arious </tspan><tspan x="0" y="52">o</tspan><tspan x="16.62" y="52" letter-spacing="0em">r</tspan><tspan x="26.85" y="52">ganizations and </tspan><tspan x="242.77" y="52" letter-spacing="0em">r</tspan><tspan x="253" y="52">esea</tspan><tspan x="317.12" y="52" letter-spacing="0em">r</tspan><tspan x="327.49" y="52">ch institutions.</tspan></text>
  <line x1="855.21" y1="587.64" x2="194.58" y2="587.64" fill="none" stroke="#00665a" stroke-linecap="round" stroke-miterlimit="10" stroke-width="6"/>
  <text transform="translate(1102.53 243.2)" fill="#00665a" font-family="Stolzl-Bold, Stolzl" font-size="28" font-weight="700"><tspan x="0" y="0">Beacon API v2 app</tspan><tspan x="272.91" y="0" letter-spacing="0em">r</tspan><tspan x="284.7" y="0" letter-spacing="-.03em">ov</tspan><tspan x="318.02" y="0">ed as </tspan><tspan x="406.89" y="0" letter-spacing="0em">G</tspan><tspan x="429.46" y="0">A4GH </tspan><tspan x="0" y="25">S</tspan><tspan x="18.17" y="25" letter-spacing="-.03em">t</tspan><tspan x="32.2" y="25">anda</tspan><tspan x="105.7" y="25" letter-spacing="0em">r</tspan><tspan x="117.49" y="25">ds</tspan></text>
  <text transform="translate(1102.53 211.44)" fill="#00665a" font-family="Stolzl-Bold, Stolzl" font-size="49" font-weight="700"><tspan x="0" y="0" letter-spacing="0em">2</tspan><tspan x="29.5" y="0" letter-spacing="-.02em">0</tspan><tspan x="62.82" y="0">22:</tspan></text>
  <text transform="translate(1102.53 501.15)" fill="#00665a" font-family="Stolzl-Bold, Stolzl" font-size="49" font-weight="700"><tspan x="0" y="0" letter-spacing="0em">2</tspan><tspan x="29.5" y="0" letter-spacing="-.02em">0</tspan><tspan x="62.82" y="0">24:</tspan></text>
  <text transform="translate(1102.53 765.78)" fill="#00665a" font-family="Stolzl-Bold, Stolzl" font-size="49" font-weight="700"><tspan x="0" y="0" letter-spacing="0em">2</tspan><tspan x="29.5" y="0" letter-spacing="-.02em">0</tspan><tspan x="62.82" y="0">25:</tspan></text>
  <text transform="translate(1102.53 313.67)" font-family="Stolzl-Regular, Stolzl" font-size="25"><tspan x="0" y="0">Beacon v2 adop</tspan><tspan x="210.05" y="0" letter-spacing="-.03em">t</tspan><tspan x="222.42" y="0">ed </tspan><tspan x="263.25" y="0" letter-spacing="-.03em">v</tspan><tspan x="276.95" y="0">arious </tspan><tspan x="364.47" y="0" letter-spacing="0em">G</tspan><tspan x="385.09" y="0">A4GH s</tspan><tspan x="481.27" y="0" letter-spacing="-.03em">t</tspan><tspan x="493.64" y="0">anda</tspan><tspan x="559.82" y="0" letter-spacing="0em">r</tspan><tspan x="570.04" y="0">d </tspan><tspan x="0" y="26">schemas and i</tspan><tspan x="188.35" y="26" letter-spacing="0em">n</tspan><tspan x="203.7" y="26">t</tspan><tspan x="216.72" y="26" letter-spacing="0em">r</tspan><tspan x="226.95" y="26">oduced signi</tspan><tspan x="391.99" y="26" letter-spacing="-.01em">f</tspan><tspan x="403.69" y="26">ica</tspan><tspan x="442.67" y="26" letter-spacing="0em">n</tspan><tspan x="458.02" y="26">t </tspan><tspan x="0" y="52">enhanceme</tspan><tspan x="152.5" y="52" letter-spacing="0em">n</tspan><tspan x="167.85" y="52" letter-spacing="-.01em">t</tspan><tspan x="180.57" y="52" letter-spacing="-.02em">s</tspan><tspan x="194.67" y="52">, such as </tspan><tspan x="318.67" y="52" letter-spacing="-.03em">e</tspan><tspan x="334.32" y="52">x</tspan><tspan x="348.82" y="52" letter-spacing="-.03em">t</tspan><tspan x="361.2" y="52">ended genomic </tspan><tspan x="0" y="78" letter-spacing="-.03em">v</tspan><tspan x="13.7" y="78">ariation queries and </tspan><tspan x="283.17" y="78" letter-spacing="0em">r</tspan><tspan x="293.39" y="78">etri</tspan><tspan x="339.34" y="78" letter-spacing="-.02em">e</tspan><tspan x="355.22" y="78" letter-spacing="-.03em">v</tspan><tspan x="368.92" y="78" letter-spacing="0em">al of de</tspan><tspan x="468.84" y="78" letter-spacing="-.03em">t</tspan><tspan x="481.21" y="78">ailed </tspan><tspan x="0" y="104">sample and subject da</tspan><tspan x="298.64" y="104" letter-spacing="-.03em">t</tspan><tspan x="311.02" y="104">a.</tspan></text>
  <line x1="1726.22" y1="281.6" x2="1084.07" y2="281.6" fill="none" stroke="#00665a" stroke-linecap="round" stroke-miterlimit="10" stroke-width="6"/>
  <text transform="translate(1102.53 531.74)" fill="#00665a" font-family="Stolzl-Bold, Stolzl" font-size="28" font-weight="700"><tspan x="0" y="0">Expansion of Beacon communi</tspan><tspan x="447.15" y="0" letter-spacing="-.02em">t</tspan><tspan x="461.46" y="0">y</tspan></text>
  <text transform="translate(1102.53 579.22)" font-family="Stolzl-Regular, Stolzl" font-size="25"><tspan x="0" y="0">Special Beacon </tspan><tspan x="207.3" y="0" letter-spacing="-.03em">t</tspan><tspan x="219.67" y="0">ask </tspan><tspan x="273.92" y="0" letter-spacing="-.02em">f</tspan><tspan x="285.37" y="0">o</tspan><tspan x="302" y="0" letter-spacing="0em">r</tspan><tspan x="312.37" y="0">ce</tspan><tspan x="344.77" y="0" letter-spacing="-.02em">s</tspan><tspan x="358.87" y="0">, Beacon Scou</tspan><tspan x="544.24" y="0" letter-spacing="-.01em">t</tspan><tspan x="556.97" y="0" letter-spacing="-.02em">s</tspan><tspan x="571.07" y="0">, </tspan><tspan x="0" y="26" letter-spacing="-.03em">w</tspan><tspan x="20.85" y="26">e</tspan><tspan x="37.2" y="26" letter-spacing="0em">r</tspan><tspan x="47.42" y="26">e es</tspan><tspan x="102.22" y="26" letter-spacing="-.03em">t</tspan><tspan x="114.6" y="26">ablished under </tspan><tspan x="313.77" y="26" letter-spacing="0em">G</tspan><tspan x="334.39" y="26">A4GH in collabo</tspan><tspan x="540.26" y="26" letter-spacing="0em">r</tspan><tspan x="550.64" y="26">ation </tspan><tspan x="0" y="52">with d</tspan><tspan x="80.75" y="52" letter-spacing="-.02em">e</tspan><tspan x="96.62" y="52" letter-spacing="-.03em">v</tspan><tspan x="110.32" y="52">eloper</tspan><tspan x="193.17" y="52" letter-spacing="-.02em">s</tspan><tspan x="207.27" y="52">, impleme</tspan><tspan x="332.64" y="52" letter-spacing="0em">n</tspan><tspan x="347.99" y="52" letter-spacing="-.03em">t</tspan><tspan x="360.37" y="52">ers and </tspan><tspan x="466.14" y="52" letter-spacing="0em">r</tspan><tspan x="476.37" y="52">esea</tspan><tspan x="540.49" y="52" letter-spacing="0em">r</tspan><tspan x="550.86" y="52">chers </tspan><tspan x="0" y="78" letter-spacing="-.03em">t</tspan><tspan x="12.38" y="78">o dri</tspan><tspan x="70.05" y="78" letter-spacing="-.03em">v</tspan><tspan x="83.75" y="78">e the co</tspan><tspan x="192.8" y="78" letter-spacing="0em">n</tspan><tspan x="208.15" y="78">tinued d</tspan><tspan x="316.02" y="78" letter-spacing="-.02em">e</tspan><tspan x="331.89" y="78" letter-spacing="-.03em">v</tspan><tspan x="345.59" y="78">elopme</tspan><tspan x="441.79" y="78" letter-spacing="0em">n</tspan><tspan x="457.14" y="78">t of the </tspan><tspan x="0" y="104">speci</tspan><tspan x="70.05" y="104" letter-spacing="-.01em">f</tspan><tspan x="81.75" y="104">ication</tspan></text>
  <line x1="1726.22" y1="547.14" x2="1084.07" y2="547.14" fill="none" stroke="#00665a" stroke-linecap="round" stroke-miterlimit="10" stroke-width="6"/>
  <text transform="translate(1102.53 797.4)" fill="#00665a" font-family="Stolzl-Bold, Stolzl" font-size="28" font-weight="700"><tspan x="0" y="0">Launch of the </tspan><tspan x="211.9" y="0" letter-spacing="0em">G</tspan><tspan x="234.47" y="0">A4GH Beacon </tspan><tspan x="0" y="25">Implemen</tspan><tspan x="142.41" y="25" letter-spacing="-.03em">t</tspan><tspan x="156.43" y="25">ation G</tspan><tspan x="264.51" y="25" letter-spacing="0em">r</tspan><tspan x="276.3" y="25">oup</tspan></text>
  <text transform="translate(1102.53 868.08)" font-family="Stolzl-Regular, Stolzl" font-size="25"><tspan x="0" y="0">The </tspan><tspan x="54.55" y="0" letter-spacing="-.02em">f</tspan><tspan x="66" y="0">orum aims at add</tspan><tspan x="296.79" y="0" letter-spacing="0em">r</tspan><tspan x="307.02" y="0">essing </tspan><tspan x="398.54" y="0" letter-spacing="0em">r</tspan><tspan x="408.77" y="0">eal-</tspan><tspan x="460.37" y="0" letter-spacing="-.03em">w</tspan><tspan x="481.22" y="0">orld needs </tspan><tspan x="0" y="26">arising f</tspan><tspan x="106.02" y="26" letter-spacing="0em">r</tspan><tspan x="116.25" y="26">om the discussions with users and </tspan><tspan x="0" y="52">impleme</tspan><tspan x="109.5" y="52" letter-spacing="0em">n</tspan><tspan x="124.85" y="52" letter-spacing="-.03em">t</tspan><tspan x="137.22" y="52">ers.</tspan></text>
  <line x1="1726.22" y1="836" x2="1084.07" y2="836" fill="none" stroke="#00665a" stroke-linecap="round" stroke-miterlimit="10" stroke-width="6"/>
</svg>