<?xml version="1.0" encoding="UTF-8"?>
<svg id="Layer_1" data-name="Layer 1" xmlns="http://www.w3.org/2000/svg" width="331.15" height="267.82" viewBox="0 0 331.15 267.82">
  <rect x="77.78" y="94.2" width="110.57" height="87.56" fill="#fcbe42" stroke="#000" stroke-miterlimit="10" stroke-width="5"/>
  <g>
    <path d="M90.59,93.58v-20.09c0-24.01,19.53-43.54,43.54-43.54s43.54,19.53,43.54,43.54v8.36h-14.87v-8.36c0-15.81-12.86-28.67-28.67-28.67s-28.67,12.86-28.67,28.67v20.09h-14.87Z" fill="#6a8ce8"/>
    <path d="M134.13,32.45c22.63,0,41.04,18.41,41.04,41.04v5.86h-9.87v-5.86c0-17.19-13.98-31.17-31.17-31.17s-31.17,13.98-31.17,31.17v17.59h-9.87v-17.59c0-22.63,18.41-41.04,41.04-41.04M134.13,27.45c-25.39,0-46.04,20.65-46.04,46.04v22.59h19.87v-22.59c0-14.43,11.74-26.17,26.17-26.17s26.17,11.74,26.17,26.17v10.86h19.87v-10.86c0-25.39-20.65-46.04-46.04-46.04h0Z"/>
  </g>
  <g>
    <polygon points="107.05 141.87 114 133.93 128.58 146.68 154.15 114.13 162.44 120.64 130.01 161.94 107.05 141.87" fill="#b3edba"/>
    <path d="M154.49,116.93l5.15,4.04-29.9,38.07-19.86-17.36,4.31-4.93,14.66,12.82,25.64-32.64M153.81,111.32l-2.47,3.15-23.03,29.32-11.49-10.05-3.01-2.63-2.63,3.01-4.31,4.93-2.63,3.01,3.01,2.63,19.86,17.36,3.17,2.78,2.6-3.32,29.9-38.07,2.47-3.15-3.15-2.47-5.15-4.04-3.15-2.47h0Z"/>
  </g>
  <path d="M253.37,184.51c0-28.09-22.77-50.87-50.87-50.87s-50.87,22.77-50.87,50.87c0,14.68,6.23,27.9,16.18,37.19v-6.37c0-7.2,5.89-13.09,13.09-13.09h43.19c7.2,0,13.09,5.89,13.09,13.09v6.37c9.95-9.28,16.18-22.51,16.18-37.19Z" fill="#fff" stroke="#000" stroke-linecap="round" stroke-linejoin="round" stroke-width="5"/>
  <path d="M237.19,221.69c-9.09,8.48-21.28,13.68-34.69,13.68s-25.6-5.2-34.69-13.68" fill="#fff" stroke="#000" stroke-miterlimit="10" stroke-width="5"/>
  <g>
    <path d="M202.51,233.87c-12.32,0-24.08-4.55-33.19-12.84v-5.72c0-6.39,5.2-11.59,11.59-11.59h43.19c6.39,0,11.59,5.2,11.59,11.59v5.72c-9.11,8.28-20.87,12.84-33.19,12.84Z" fill="#b5efbc"/>
    <path d="M224.1,205.23c5.56,0,10.09,4.53,10.09,10.09v5.05c-8.76,7.75-19.96,12.01-31.69,12.01s-22.93-4.25-31.69-12.01v-5.05c0-5.56,4.53-10.09,10.09-10.09h43.19M224.1,202.23h-43.19c-7.2,0-13.09,5.89-13.09,13.09v6.37c9.09,8.48,21.28,13.68,34.69,13.68s25.6-5.2,34.69-13.68v-6.37c0-7.2-5.89-13.09-13.09-13.09h0Z"/>
  </g>
  <g>
    <rect x="195" y="189.68" width="15.68" height="23.02" rx="5.41" ry="5.41" fill="#fbf2e2"/>
    <path d="M205.27,192.18c1.58,0,2.91,1.33,2.91,2.91v12.19c0,1.58-1.33,2.91-2.91,2.91h-4.85c-1.58,0-2.91-1.33-2.91-2.91v-12.19c0-1.58,1.33-2.91,2.91-2.91h4.85M205.27,187.18h-4.85c-4.35,0-7.91,3.56-7.91,7.91v12.19c0,4.35,3.56,7.91,7.91,7.91h4.85c4.35,0,7.91-3.56,7.91-7.91v-12.19c0-4.35-3.56-7.91-7.91-7.91h0Z"/>
  </g>
  <g>
    <path d="M201.26,198.56c-8.21,0-14.89-6.68-14.89-14.89v-17.39c0-5.24,4.26-9.5,9.5-9.5h13.94c5.24,0,9.5,4.26,9.5,9.5v17.39c0,8.21-6.68,14.89-14.89,14.89h-3.16Z" fill="#fbf2e2"/>
    <path d="M209.81,159.28c3.86,0,7,3.14,7,7v17.39c0,6.83-5.56,12.39-12.39,12.39h-3.16c-6.83,0-12.39-5.56-12.39-12.39v-17.39c0-3.86,3.14-7,7-7h13.94M209.81,154.28h-13.94c-6.6,0-12,5.4-12,12v17.39c0,9.56,7.82,17.39,17.39,17.39h3.16c9.56,0,17.39-7.82,17.39-17.39v-17.39c0-6.6-5.4-12-12-12h0Z"/>
  </g>
  <g>
    <path d="M201.93,172.67c-5.4,0-10.5-1.39-15.56-4.26v-2.38c0-5.84,4.75-10.59,10.59-10.59h11.76c5.84,0,10.59,4.75,10.59,10.59v2.25c-6.22,2.95-11.91,4.39-17.38,4.39Z" fill="#6e91ef"/>
    <path d="M208.72,157.94c4.46,0,8.09,3.63,8.09,8.09v.64c-5.32,2.35-10.21,3.49-14.88,3.49s-8.8-1.07-13.06-3.25v-.89c0-4.46,3.63-8.09,8.09-8.09h11.76M208.72,152.94h-11.76c-7.2,0-13.09,5.89-13.09,13.09v3.81c6.06,3.71,12.08,5.33,18.06,5.33,6.64,0,13.26-1.99,19.88-5.33v-3.81c0-7.2-5.89-13.09-13.09-13.09h0Z"/>
  </g>
</svg>