<?xml version="1.0" encoding="UTF-8"?>
<svg id="Layer_1" data-name="Layer 1" xmlns="http://www.w3.org/2000/svg" width="331.15" height="267.82" viewBox="0 0 331.15 267.82">
  <path d="M205.43,135.07h0c-6.6-2.03-7.87-10.82-2.1-14.63h0c1-2.13-4.06-11.27-5.24-11.47h0c-6.65,1.86-12.47-4.85-9.68-11.17h0c-.08-3.02-8.83-8.57-10.61-6.82h0c-4.59,5.16-13.11,2.66-14.18-4.16h0c-1.12-1.6-11.47-1.24-12.61,0h0c-1.07,6.82-9.59,9.33-14.18,4.16h0c-.31-.46-10.63,4.82-10.61,6.82h0c2.79,6.32-3.03,13.03-9.68,11.17h0c-2.55-1.16-6.59,8.31-5.24,11.47h0c5.76,3.81,4.5,12.6-2.1,14.63h0c-3.15,1.9-1.56,12.14,1.79,12.48h0c6.91.09,10.6,8.17,6.14,13.45h0c-.96,3.75,6.16,11.41,8.26,9.53h0c5.86-3.66,13.33,1.14,12.43,7.99h0c-.28,3.69,9.92,6.68,12.31,3.89,4.49-5.25,11.62-6.58,14.57-.33h0c1.07.08,12.18-.62,12.1-3.55h0c-.9-6.85,6.58-11.65,12.43-7.99h0c2.48,2.14,8.41-6.09,8.26-9.53h0c-4.46-5.28-.77-13.36,6.14-13.45h0c1.85-.19,3.11-10.44,1.79-12.48ZM157.32,148.84c-8.43,0-15.26-6.83-15.26-15.26s6.83-15.26,15.26-15.26,15.26,6.83,15.26,15.26-6.83,15.26-15.26,15.26Z" fill="#685e68" stroke="#000" stroke-miterlimit="10" stroke-width="5"/>
  <path d="M157.83,223.42v-15.27h4.36c28.92,0,55.21-17.2,67-43.31l-14.36-2.38,29.9-36.39,16.57,44.09-16.61-2.75c-13.36,33.66-46.06,56.02-82.5,56.02h-4.36Z"/>
  <path d="M254.55,164.61l-11.25-29.94-20.3,24.71,12.29,2.04c-11.11,30.32-40.46,51.09-73.1,51.09v6.55c35.8,0,67.95-23.05,79.67-56.55l12.69,2.1Z" fill="#fdb441"/>
  <circle cx="147.51" cy="214.9" r="21.01" fill="#6ed7a3" stroke="#000" stroke-miterlimit="10" stroke-width="4"/>
  <path d="M247.01,88.29l-12.7,8.49-2.43-3.63c-16.08-24.04-44.99-36.33-73.25-31.61l6.01,13.26-46.87-4.62,27.43-38.28,6.95,15.33c35.4-7.61,72.17,7.14,92.43,37.43l2.43,3.63Z"/>
  <path d="M144.36,40.59l-18.63,26,31.83,3.14-5.14-11.35c31.38-7.62,64.96,5.23,83.11,32.36l5.44-3.64c-19.9-29.76-56.93-43.66-91.29-34.78l-5.31-11.72Z" fill="#fdb441"/>
  <polygon points="269.13 115.94 224.9 115.94 247.01 77.63 269.13 115.94" fill="#8ac9fe" stroke="#000" stroke-miterlimit="10" stroke-width="4"/>
  <path d="M75.03,90.76l13.39,7.34-2.1,3.83c-13.91,25.36-11.46,56.68,5.76,79.57l8.99-11.45,17.53,43.71-46.62-6.67,10.4-13.24c-23.08-27.9-26.97-67.32-9.45-99.27l2.1-3.83Z"/>
  <path d="M80.09,203.84l31.66,4.53-11.9-29.68-7.7,9.8c-21.24-24.32-25.34-60.04-9.64-88.66l-5.74-3.15c-17.21,31.39-12.46,70.66,11.27,97.04l-7.95,10.12Z" fill="#fdb441"/>
  <rect x="64.44" y="53.28" width="43.41" height="43.41" fill="#fe646f" stroke="#000" stroke-miterlimit="10" stroke-width="4"/>
</svg>