<?xml version="1.0" encoding="UTF-8"?>
<svg id="Layer_1" data-name="Layer 1" xmlns="http://www.w3.org/2000/svg" width="331.15" height="267.82" viewBox="0 0 331.15 267.82">
  <rect x="88.92" y="98.13" width="31.52" height="14.51" rx="5.85" ry="5.85" fill="#f8db74" stroke="#000" stroke-miterlimit="10" stroke-width="3"/>
  <rect x="84.68" y="124.99" width="31.52" height="14.51" rx="5.85" ry="5.85" fill="#f8db74" stroke="#000" stroke-miterlimit="10" stroke-width="3"/>
  <rect x="137.56" y="124.99" width="31.52" height="14.51" rx="5.85" ry="5.85" fill="#f8db74" stroke="#000" stroke-miterlimit="10" stroke-width="3"/>
  <rect x="88.92" y="150.25" width="31.52" height="14.51" rx="5.85" ry="5.85" fill="#f8db74" stroke="#000" stroke-miterlimit="10" stroke-width="3"/>
  <rect x="134.96" y="98.13" width="31.52" height="14.51" rx="5.85" ry="5.85" fill="#f8db74" stroke="#000" stroke-miterlimit="10" stroke-width="3"/>
  <rect x="134.96" y="150.25" width="31.52" height="14.51" rx="5.85" ry="5.85" fill="#f8db74" stroke="#000" stroke-miterlimit="10" stroke-width="3"/>
  <line x1="120.44" y1="106.26" x2="134.96" y2="106.26" fill="none" stroke="#000" stroke-miterlimit="10" stroke-width="4"/>
  <line x1="119.91" y1="157.51" x2="134.43" y2="157.51" fill="none" stroke="#000" stroke-miterlimit="10" stroke-width="4"/>
  <line x1="117.39" y1="132.24" x2="136.95" y2="132.24" fill="none" stroke="#000" stroke-miterlimit="10" stroke-width="4"/>
  <path d="M122.05,205.15c-3.03,1.95-6,3.81-8.86,5.6-11.37,7.11-22.11,13.83-25.32,19.19l-.84,1.4-11.24-6.71.84-1.41c4.82-8.06,15.76-14.9,29.61-23.56,1.34-.84,2.69-1.69,4.07-2.55.47.36.95.7,1.43,1.03,2.92,2.12,5.89,4.12,8.82,6.04.5.34,1,.67,1.49.98Z" fill="#6d7fd8"/>
  <path d="M173.89,135.86c-.02,26.25-17.73,44.92-37.16,59.26-.49-.32-.99-.63-1.48-.95-2.91-1.84-5.87-3.75-8.8-5.74-.48-.33-.96-.64-1.44-.97,18.76-13.14,35.77-29.34,35.79-51.61.02-24.83-15.45-36.66-35.76-50.16-.48-.32-.98-.64-1.47-.98-.49-.32-.99-.64-1.48-.98-.45-.28-.89-.59-1.35-.88-2.45-1.61-4.97-3.27-7.52-4.99-.48-.34-.98-.67-1.47-1-.48-.33-.96-.65-1.44-.99-11.61-8-23.56-17.36-33.25-30.1l-.99-1.31,10.42-7.92.99,1.3c9.75,12.83,22.16,21.87,34.62,30.21l1.47.98c.5.33.99.67,1.49.98.96.64,1.92,1.28,2.88,1.91,2.01,1.32,4,2.64,5.98,3.96.49.33.98.65,1.46.98.48.33.96.65,1.44.99,20.07,13.7,37.11,28.64,37.08,58.02Z" fill="#6d7fd8"/>
  <path d="M160.85,95.89c-6.36-7.31-14.15-13.27-22.57-19.04-.48-.34-.96-.67-1.45-.99-.48-.33-.96-.65-1.45-.98-2.15-1.44-4.33-2.88-6.53-4.33-.77-.51-1.54-1.01-2.31-1.53-.49-.33-.99-.65-1.48-.98s-.98-.65-1.47-.98c-12.54-8.36-25.06-17.4-34.8-30.22l-1.97-2.6-2.61,1.97-7.82,5.95-2.6,1.97,1.97,2.61c9.69,12.74,21.56,22.11,33.11,30.11.48.33.96.67,1.45.98.48.35.97.68,1.46,1,2.73,1.85,5.42,3.63,8.06,5.37.26.17.51.34.77.5.5.34.99.67,1.49.98.49.34.98.67,1.47.98,20.89,13.87,35.62,24.91,35.6,49.17-.02,21.72-16.99,37.67-35.61,50.62.49.34.97.67,1.45,1,.48.33.96.64,1.44.97,18.91-13.29,35.98-29.75,35.99-52.58.02-25.45-15.47-37.52-35.93-51.14-.49-.32-.98-.64-1.47-.97-.49-.33-.99-.65-1.48-.99-.64-.41-1.29-.84-1.93-1.27-2.27-1.49-4.59-3.02-6.94-4.6-.49-.33-.98-.67-1.48-1-.48-.33-.96-.65-1.45-.99-11.66-8.01-23.71-17.37-33.41-30.11l7.81-5.95c9.76,12.84,22.07,21.9,34.44,30.2.49.33.98.65,1.47.98.5.34,1,.67,1.49.99l3.47,2.29c1.81,1.2,3.62,2.39,5.4,3.58.49.33.98.65,1.47.99.48.32.97.64,1.45.98,19.93,13.55,36.93,28.22,36.9,57.01-.02,25.75-17.7,44.15-37.01,58.32.49.32.99.63,1.48.95.49.31.99.61,1.48.93,19.56-14.51,37.29-33.45,37.31-60.19.01-15.56-4.79-28.63-14.68-39.97ZM122.05,205.15c-.49-.32-.99-.64-1.49-.98-2.81,1.8-5.57,3.52-8.23,5.18-11.55,7.22-22.46,14.05-25.86,19.75l-8.43-5.04c4.61-7.72,15.42-14.48,29.07-23.03,1.52-.95,3.07-1.92,4.63-2.9-.48-.33-.96-.67-1.43-1.03-.47-.34-.95-.69-1.42-1.05-1.18.74-2.36,1.48-3.51,2.2-14.04,8.78-25.13,15.72-30.15,24.12l-1.67,2.81,2.8,1.67,8.43,5.04,2.8,1.68,1.68-2.8c3-5.02,14.07-11.95,24.79-18.64,3.05-1.91,6.24-3.91,9.49-6-.5-.33-1-.65-1.51-.98ZM126.51,84.71c-.49-.32-.98-.64-1.47-.97-.49.33-.98.64-1.47.97.49.34.99.67,1.47.98,20.31,13.51,35.78,25.33,35.76,50.16-.02,22.28-17.03,38.48-35.79,51.61.48.33.96.64,1.44.97,18.91-13.29,35.98-29.75,35.99-52.58.02-25.45-15.47-37.52-35.93-51.14Z"/>
  <path d="M160.65,36.53l-.99,1.3c-9.75,12.83-22.16,21.87-34.62,30.21-.49.33-.99.65-1.48.98-.49.33-.99.65-1.48.98-.96.64-1.93,1.28-2.89,1.91-2.01,1.32-4,2.64-5.98,3.96-.49.34-.97.67-1.46.98l-1.44.98c-20.06,13.71-37.1,28.66-37.07,58.03.01,26.25,17.72,44.92,37.16,59.26.49-.32.99-.63,1.48-.95-19.31-14.17-36.99-32.58-37.01-58.32-.03-28.79,16.96-43.46,36.9-57.01,2.73,1.85,5.42,3.63,8.06,5.37.26.17.51.34.77.5-20.44,13.63-35.95,25.69-35.91,51.14.01,22.83,17.1,39.31,35.99,52.58.48-.33.96-.65,1.44-.98-18.76-13.12-35.77-29.33-35.79-51.6-.03-24.85,15.44-36.66,35.77-50.16.48-.33.98-.65,1.47-.98.49-.33.98-.64,1.47-.97.45-.29.89-.6,1.35-.89,2.45-1.61,4.97-3.27,7.52-4.99.48-.33.97-.67,1.46-1,.48-.33.96-.65,1.45-.99,11.61-8,23.57-17.36,33.25-30.1l.99-1.31-10.42-7.92Z" fill="#fd8087"/>
  <path d="M170.75,42.16l-7.81-5.95-2.61-1.97-1.97,2.6c-9.74,12.82-22.27,21.86-34.79,30.22-.49.33-.99.65-1.48.98-.49.33-.99.65-1.48.98-.77.51-1.54,1.01-2.31,1.53-2.2,1.45-4.39,2.89-6.53,4.33-.49.34-.97.67-1.45.98-.49.34-.97.67-1.45.99-8.42,5.77-16.21,11.73-22.58,19.04-9.88,11.35-14.7,24.42-14.67,39.97.01,26.74,17.75,45.67,37.3,60.19.5-.31.99-.62,1.49-.93.49-.32.99-.63,1.48-.95-19.31-14.17-36.99-32.58-37.01-58.32-.03-28.79,16.96-43.46,36.9-57.01.48-.34.97-.67,1.45-.98.49-.34.98-.67,1.47-.98,1.78-1.2,3.59-2.39,5.4-3.59,1.16-.76,2.31-1.53,3.48-2.29.49-.33.98-.67,1.48-.99.49-.33.98-.65,1.47-.98,12.37-8.3,24.67-17.36,34.43-30.2l7.82,5.95c-9.69,12.74-21.74,22.1-33.41,30.11-.49.34-.98.67-1.46.99-.49.34-.98.67-1.47.99-2.36,1.58-4.68,3.12-6.95,4.61-.64.43-1.29.85-1.93,1.27-.49.33-.98.65-1.47.98-.5.33-.99.67-1.48.98-20.44,13.63-35.95,25.69-35.91,51.14.01,22.83,17.1,39.31,35.99,52.58.48-.33.96-.65,1.44-.98.48-.33.96-.65,1.44-.99-18.61-12.96-35.58-28.9-35.6-50.62-.02-24.26,14.72-35.33,35.61-49.17.49-.33.98-.65,1.47-.98s.98-.64,1.47-.98c.26-.16.51-.33.77-.5,2.64-1.73,5.35-3.52,8.07-5.37.48-.33.97-.65,1.45-.99.49-.33.97-.67,1.46-.99,11.55-8,23.42-17.37,33.11-30.11l1.97-2.61-2.61-1.97ZM125.04,83.74c-.49-.33-.99-.65-1.48-.99-.49.33-.98.65-1.47.98-.5.33-.99.67-1.48.98-20.44,13.63-35.95,25.69-35.91,51.14.01,22.83,17.1,39.31,35.99,52.58.48-.33.96-.65,1.44-.98.48-.33.96-.65,1.44-.99-18.61-12.96-35.58-28.9-35.6-50.62-.02-24.26,14.72-35.33,35.61-49.17.49-.33.98-.65,1.47-.98-.48-.32-.98-.64-1.47-.98.49-.33.98-.64,1.47-.97ZM125.04,83.74c-.49-.33-.99-.65-1.48-.99-.49.33-.98.65-1.47.98-.5.33-.99.67-1.48.98-20.44,13.63-35.95,25.69-35.91,51.14.01,22.83,17.1,39.31,35.99,52.58.48-.33.96-.65,1.44-.98.48-.33.96-.65,1.44-.99-18.61-12.96-35.58-28.9-35.6-50.62-.02-24.26,14.72-35.33,35.61-49.17.49-.33.98-.65,1.47-.98-.48-.32-.98-.64-1.47-.98.49-.33.98-.64,1.47-.97Z"/>
  <path d="M173.57,225.19l-2.8,1.67-8.43,5.04-2.8,1.68-1.68-2.8c-3-5.02-14.07-11.95-24.79-18.64-3.05-1.91-6.25-3.91-9.5-6-.5-.33-1-.65-1.51-.98-.49-.32-.99-.64-1.49-.98-2.92-1.92-5.89-3.93-8.82-6.04-.48-.33-.96-.67-1.43-1.03-.47-.34-.95-.69-1.42-1.05.5-.31.99-.62,1.49-.93.49-.32.99-.63,1.48-.95.48.35.95.7,1.43,1.04.48.35.95.69,1.43,1.01,2.95,2.09,5.91,4.09,8.84,5.99.5.34,1,.65,1.49.98.5.32,1.01.64,1.51.97,2.81,1.8,5.57,3.52,8.23,5.18,11.55,7.22,22.45,14.05,25.86,19.75l8.43-5.04c-4.63-7.72-15.42-14.48-29.09-23.03-1.52-.95-3.07-1.92-4.63-2.9-.49-.31-.98-.62-1.48-.94-.5-.32-1-.63-1.51-.95-2.92-1.87-5.89-3.8-8.83-5.79-.48-.34-.97-.67-1.45-1-.48-.33-.95-.65-1.43-1,.48-.33.96-.65,1.44-.98.48-.33.96-.65,1.44-.99.49.34.97.67,1.45,1,.48.33.96.64,1.44.97,2.93,1.99,5.89,3.89,8.8,5.74.49.32.99.63,1.48.95.49.31.99.61,1.48.93,1.19.74,2.36,1.47,3.52,2.2,14.04,8.78,25.13,15.72,30.14,24.12l1.68,2.81Z"/>
  <path d="M169.08,224.06l-8.43,5.04c-3.4-5.69-14.3-12.52-25.86-19.75-2.65-1.66-5.41-3.38-8.23-5.18-.49-.33-1-.65-1.51-.97-.49-.33-.99-.64-1.49-.98-2.92-1.9-5.89-3.89-8.84-5.99-.48-.33-.95-.67-1.43-1.01-.48-.34-.95-.69-1.43-1.04-19.31-14.17-36.99-32.58-37.01-58.32-.03-28.79,16.96-43.46,36.9-57.01,2.73,1.85,5.42,3.63,8.06,5.37.26.17.51.34.77.5-20.44,13.63-35.95,25.69-35.91,51.14.01,22.83,17.1,39.31,35.99,52.58.48.35.95.68,1.43,1,.48.34.97.67,1.45,1,2.93,2,5.9,3.93,8.83,5.79.5.32,1,.63,1.51.95.5.32.99.63,1.48.94,1.56.98,3.11,1.95,4.63,2.9,13.67,8.55,24.46,15.31,29.09,23.03Z" fill="#fd8087"/>
  <path d="M122.05,205.15c-3.03,1.95-6,3.81-8.86,5.6-11.37,7.11-22.11,13.83-25.32,19.19l-.84,1.4-11.24-6.71.84-1.41c4.82-8.06,15.76-14.9,29.61-23.56,1.34-.84,2.69-1.69,4.07-2.55.47.36.95.7,1.43,1.03,2.92,2.12,5.89,4.12,8.82,6.04.5.34,1,.67,1.49.98Z" fill="#6d7fd8"/>
  <path d="M173.89,135.86c-.02,26.25-17.73,44.92-37.16,59.26-.49-.32-.99-.63-1.48-.95-2.91-1.84-5.87-3.75-8.8-5.74-.48-.33-.96-.64-1.44-.97,18.76-13.14,35.77-29.34,35.79-51.61.02-24.83-15.45-36.66-35.76-50.16-.48-.32-.98-.64-1.47-.98-.49-.32-.99-.64-1.48-.98-.45-.28-.89-.59-1.35-.88-2.45-1.61-4.97-3.27-7.52-4.99-.48-.34-.98-.67-1.47-1-.48-.33-.96-.65-1.44-.99-11.61-8-23.56-17.36-33.25-30.1l-.99-1.31,10.42-7.92.99,1.3c9.75,12.83,22.16,21.87,34.62,30.21l1.47.98c.5.33.99.67,1.49.98.96.64,1.92,1.28,2.88,1.91,2.01,1.32,4,2.64,5.98,3.96.49.33.98.65,1.46.98.48.33.96.65,1.44.99,20.07,13.7,37.11,28.64,37.08,58.02Z" fill="#6d7fd8"/>
  <path d="M160.85,95.89c-6.36-7.31-14.15-13.27-22.57-19.04-.48-.34-.96-.67-1.45-.99-.48-.33-.96-.65-1.45-.98-2.15-1.44-4.33-2.88-6.53-4.33-.77-.51-1.54-1.01-2.31-1.53-.49-.33-.99-.65-1.48-.98s-.98-.65-1.47-.98c-12.54-8.36-25.06-17.4-34.8-30.22l-1.97-2.6-2.61,1.97-7.82,5.95-2.6,1.97,1.97,2.61c9.69,12.74,21.56,22.11,33.11,30.11.48.33.96.67,1.45.98.48.35.97.68,1.46,1,2.73,1.85,5.42,3.63,8.06,5.37.26.17.51.34.77.5.5.34.99.67,1.49.98.49.34.98.67,1.47.98,20.89,13.87,35.62,24.91,35.6,49.17-.02,21.72-16.99,37.67-35.61,50.62.49.34.97.67,1.45,1,.48.33.96.64,1.44.97,18.91-13.29,35.98-29.75,35.99-52.58.02-25.45-15.47-37.52-35.93-51.14-.49-.32-.98-.64-1.47-.97-.49-.33-.99-.65-1.48-.99-.64-.41-1.29-.84-1.93-1.27-2.27-1.49-4.59-3.02-6.94-4.6-.49-.33-.98-.67-1.48-1-.48-.33-.96-.65-1.45-.99-11.66-8.01-23.71-17.37-33.41-30.11l7.81-5.95c9.76,12.84,22.07,21.9,34.44,30.2.49.33.98.65,1.47.98.5.34,1,.67,1.49.99l3.47,2.29c1.81,1.2,3.62,2.39,5.4,3.58.49.33.98.65,1.47.99.48.32.97.64,1.45.98,19.93,13.55,36.93,28.22,36.9,57.01-.02,25.75-17.7,44.15-37.01,58.32.49.32.99.63,1.48.95.49.31.99.61,1.48.93,19.56-14.51,37.29-33.45,37.31-60.19.01-15.56-4.79-28.63-14.68-39.97ZM122.05,205.15c-.49-.32-.99-.64-1.49-.98-2.81,1.8-5.57,3.52-8.23,5.18-11.55,7.22-22.46,14.05-25.86,19.75l-8.43-5.04c4.61-7.72,15.42-14.48,29.07-23.03,1.52-.95,3.07-1.92,4.63-2.9-.48-.33-.96-.67-1.43-1.03-.47-.34-.95-.69-1.42-1.05-1.18.74-2.36,1.48-3.51,2.2-14.04,8.78-25.13,15.72-30.15,24.12l-1.67,2.81,2.8,1.67,8.43,5.04,2.8,1.68,1.68-2.8c3-5.02,14.07-11.95,24.79-18.64,3.05-1.91,6.24-3.91,9.49-6-.5-.33-1-.65-1.51-.98ZM126.51,84.71c-.49-.32-.98-.64-1.47-.97-.49.33-.98.64-1.47.97.49.34.99.67,1.47.98,20.31,13.51,35.78,25.33,35.76,50.16-.02,22.28-17.03,38.48-35.79,51.61.48.33.96.64,1.44.97,18.91-13.29,35.98-29.75,35.99-52.58.02-25.45-15.47-37.52-35.93-51.14Z"/>
  <circle cx="178.56" cy="130.48" r="33.15" fill="#eaf6ff"/>
  <g>
    <path d="M244.5,197.48c-1.6,0-3.16-.56-4.38-1.57l-36.55-30.19c-2.93-2.42-3.35-6.78-.92-9.72l5.66-6.85c1.31-1.59,3.25-2.5,5.33-2.5,1.6,0,3.16.56,4.38,1.57l36.55,30.19c1.41,1.17,2.29,2.83,2.46,4.67.18,1.84-.37,3.64-1.54,5.05l-5.66,6.85c-1.31,1.59-3.25,2.5-5.33,2.5Z" fill="#666"/>
    <path d="M213.64,149.16h0c.72,0,1.79.17,2.79,1l36.55,30.19c1.87,1.55,2.14,4.33.59,6.2l-5.66,6.85c-.83,1.01-2.07,1.59-3.41,1.59-.72,0-1.79-.17-2.79-1l-36.55-30.19c-1.87-1.55-2.14-4.33-.59-6.2l5.66-6.85c.83-1.01,2.07-1.59,3.41-1.59M213.64,144.16c-2.71,0-5.41,1.16-7.26,3.4l-5.66,6.85c-3.29,3.99-2.73,9.94,1.26,13.24l36.55,30.19c1.74,1.44,3.86,2.14,5.97,2.14,2.71,0,5.41-1.16,7.26-3.4l5.66-6.85c3.29-3.99,2.73-9.94-1.26-13.24l-36.55-30.19c-1.74-1.44-3.86-2.14-5.97-2.14h0Z"/>
  </g>
  <g>
    <path d="M213.26,180.51c-1.2,0-2.37-.42-3.29-1.18l-1.01-.83c-2.2-1.82-2.51-5.1-.69-7.3l16.02-19.39c.98-1.19,2.44-1.87,4.01-1.87,1.2,0,2.37.42,3.29,1.18l1.01.83c1.06.88,1.72,2.12,1.85,3.51s-.28,2.73-1.16,3.79l-16.02,19.39c-.98,1.19-2.44,1.87-4.01,1.87Z" fill="#6e91ef"/>
    <path d="M228.29,151.93h0c.52,0,1.3.13,2.02.72l1.01.83c1.35,1.12,1.55,3.13.43,4.48l-16.02,19.39c-.6.73-1.5,1.15-2.47,1.15-.52,0-1.3-.13-2.02-.72l-1.01-.83c-.65-.54-1.05-1.3-1.13-2.15-.08-.85.17-1.68.71-2.33l16.02-19.39c.6-.73,1.5-1.15,2.47-1.15M228.29,147.93c-2.07,0-4.13.89-5.55,2.6l-16.02,19.39c-2.52,3.05-2.08,7.6.96,10.11l1.01.83c1.33,1.1,2.95,1.64,4.57,1.64,2.07,0,4.13-.89,5.55-2.6l16.02-19.39c2.52-3.05,2.08-7.6-.96-10.11l-1.01-.83c-1.33-1.1-2.95-1.64-4.57-1.64h0Z"/>
  </g>
  <path d="M146.85,104.6c-14.26,17.26-11.82,42.8,5.43,57.05,17.26,14.26,42.8,11.82,57.05-5.43,14.26-17.26,11.82-42.8-5.43-57.05-17.26-14.26-42.8-11.82-57.05,5.43ZM199.91,148.11c-9.74,11.79-27.19,13.45-38.98,3.71-11.79-9.74-13.45-27.19-3.71-38.98,9.74-11.79,27.19-13.45,38.98-3.71,11.79,9.74,13.45,27.19,3.71,38.98Z" fill="#6e91ef" stroke="#000" stroke-miterlimit="10" stroke-width="4"/>
  <text transform="translate(170.36 148.84)" font-family="Stolzl-Regular, Stolzl" font-size="54"><tspan x="0" y="0">!</tspan></text>
</svg>