<?xml version="1.0" encoding="UTF-8"?>
<svg id="Layer_1" data-name="Layer 1" xmlns="http://www.w3.org/2000/svg" width="331.15" height="267.82" viewBox="0 0 331.15 267.82">
  <g>
    <path d="M185.65,141.5c-1.18-6.38-4.07-12.52-8.71-17.72s-10.41-8.77-16.61-10.67c-.33,1.37-.54,2.76-.62,4.17-.31,5.35,1.23,10.8,4.69,15.31.43.4.84.83,1.23,1.27s.78.9,1.13,1.37c3.45,4.52,5,9.96,4.69,15.31-.08,1.4-.28,2.8-.63,4.17-1.06,4.39-3.43,8.5-7.06,11.74l-47.11,42.01c-9.52,8.49-24.11,7.65-32.59-1.86-4.25-4.76-6.16-10.78-5.82-16.68.33-5.9,2.92-11.66,7.68-15.91l47.11-42.01c3.63-3.23,7.98-5.11,12.46-5.68-.54-2.93-.73-5.91-.56-8.86.11-1.94.38-3.89.8-5.8-7.44.75-14.73,3.78-20.73,9.14l-49.28,43.95c-7.58,6.76-11.7,15.96-12.24,25.35-.54,9.39,2.51,19,9.27,26.58,13.52,15.16,36.77,16.48,51.93,2.96l49.28-43.95c6.01-5.36,9.85-12.25,11.45-19.55.42-1.91.68-3.85.79-5.8.18-2.95-.02-5.93-.56-8.86Z" fill="#ffe470" stroke="#000" stroke-miterlimit="10" stroke-width="5"/>
    <path d="M206.47,48.16l-49.28,43.95c-6.01,5.36-9.84,12.24-11.44,19.56-.43,1.91-.69,3.85-.8,5.8-.17,2.95.02,5.93.56,8.86,1.18,6.38,4.08,12.53,8.71,17.73,4.63,5.2,10.41,8.77,16.61,10.67.34-1.37.55-2.77.63-4.17.31-5.35-1.24-10.79-4.69-15.31-.43-.4-.84-.83-1.24-1.28s-.77-.9-1.12-1.37c-3.47-4.52-5.01-9.97-4.69-15.31.08-1.4.29-2.8.62-4.17,1.06-4.39,3.43-8.5,7.06-11.74l47.11-42.01c9.52-8.49,24.11-7.65,32.59,1.86,4.25,4.76,6.16,10.78,5.82,16.68-.33,5.9-2.92,11.66-7.68,15.91l-47.11,42.01c-3.63,3.24-7.99,5.12-12.47,5.68.54,2.92.73,5.9.56,8.86-.11,1.94-.37,3.88-.79,5.8,7.45-.76,14.72-3.79,20.73-9.14l49.28-43.95c7.58-6.76,11.7-15.95,12.24-25.35.54-9.4-2.51-19-9.27-26.57-13.52-15.16-36.77-16.5-51.93-2.98Z" fill="#94e1ff" stroke="#000" stroke-miterlimit="10" stroke-width="5"/>
  </g>
  <line x1="82.38" y1="106.64" x2="113.1" y2="106.64" fill="none" stroke="#000" stroke-linecap="round" stroke-miterlimit="10" stroke-width="5"/>
  <line x1="136.95" y1="79.83" x2="136.95" y2="56.44" fill="none" stroke="#000" stroke-linecap="round" stroke-miterlimit="10" stroke-width="5"/>
  <line x1="122.27" y1="92.6" x2="102.55" y2="72.78" fill="none" stroke="#000" stroke-linecap="round" stroke-miterlimit="10" stroke-width="5"/>
  <line x1="208.66" y1="177.34" x2="226.83" y2="196.77" fill="none" stroke="#000" stroke-linecap="round" stroke-miterlimit="10" stroke-width="5"/>
  <line x1="217.75" y1="160.08" x2="244.26" y2="160.08" fill="none" stroke="#000" stroke-linecap="round" stroke-miterlimit="10" stroke-width="5"/>
  <line x1="191.52" y1="187.06" x2="191.52" y2="212.87" fill="none" stroke="#000" stroke-linecap="round" stroke-miterlimit="10" stroke-width="5"/>
</svg>