<?xml version="1.0" encoding="UTF-8"?>
<svg id="Layer_1" data-name="Layer 1" xmlns="http://www.w3.org/2000/svg" width="1920" height="825.48" viewBox="0 0 1920 825.48">
  <g>
    <g>
      <path d="M570.91,159.99h0c-6.6-2.03-7.87-10.82-2.1-14.63h0c1-2.13-4.06-11.27-5.24-11.47h0c-6.65,1.86-12.47-4.85-9.68-11.17h0c-.08-3.02-8.83-8.57-10.61-6.82h0c-4.59,5.16-13.11,2.66-14.18-4.16h0c-1.12-1.6-11.47-1.24-12.61,0h0c-1.07,6.82-9.59,9.33-14.18,4.16h0c-.31-.46-10.63,4.82-10.61,6.82h0c2.79,6.32-3.03,13.03-9.68,11.17h0c-2.55-1.16-6.59,8.31-5.24,11.47h0c5.76,3.81,4.5,12.6-2.1,14.63h0c-3.15,1.9-1.56,12.14,1.79,12.48h0c6.91.09,10.6,8.17,6.14,13.45h0c-.96,3.75,6.16,11.41,8.26,9.53h0c5.86-3.66,13.33,1.14,12.43,7.99h0c-.28,3.69,9.92,6.68,12.31,3.89,4.49-5.25,11.62-6.58,14.57-.33h0c1.07.08,12.18-.62,12.1-3.55h0c-.9-6.85,6.58-11.65,12.43-7.99h0c2.48,2.14,8.41-6.09,8.26-9.53h0c-4.46-5.28-.77-13.36,6.14-13.45h0c1.85-.19,3.11-10.44,1.79-12.48ZM522.79,173.77c-8.43,0-15.26-6.83-15.26-15.26s6.83-15.26,15.26-15.26,15.26,6.83,15.26,15.26-6.83,15.26-15.26,15.26Z" fill="#685e68" stroke="#000" stroke-miterlimit="10" stroke-width="5"/>
      <path d="M523.31,248.34v-15.27h4.36c28.92,0,55.21-17.2,67-43.31l-14.36-2.38,29.9-36.39,16.57,44.09-16.61-2.75c-13.36,33.66-46.06,56.02-82.5,56.02h-4.36Z"/>
      <path d="M620.03,189.53l-11.25-29.94-20.3,24.71,12.29,2.04c-11.11,30.32-40.46,51.09-73.1,51.09v6.55c35.8,0,67.95-23.05,79.67-56.55l12.69,2.1Z" fill="#fdb441"/>
      <circle cx="512.99" cy="239.83" r="21.01" fill="#6ed7a3" stroke="#000" stroke-miterlimit="10" stroke-width="4"/>
      <path d="M612.49,113.22l-12.7,8.49-2.43-3.63c-16.08-24.04-44.99-36.33-73.25-31.61l6.01,13.26-46.87-4.62,27.43-38.28,6.95,15.33c35.4-7.61,72.17,7.14,92.43,37.43l2.43,3.63Z"/>
      <path d="M509.83,65.52l-18.63,26,31.83,3.14-5.14-11.35c31.38-7.62,64.96,5.23,83.11,32.36l5.44-3.64c-19.9-29.76-56.93-43.66-91.29-34.78l-5.31-11.72Z" fill="#fdb441"/>
      <polygon points="634.61 140.87 590.37 140.87 612.49 102.56 634.61 140.87" fill="#8ac9fe" stroke="#000" stroke-miterlimit="10" stroke-width="4"/>
      <path d="M440.51,115.68l13.39,7.34-2.1,3.83c-13.91,25.36-11.46,56.68,5.76,79.57l8.99-11.45,17.53,43.71-46.62-6.67,10.4-13.24c-23.08-27.9-26.97-67.32-9.45-99.27l2.1-3.83Z"/>
      <path d="M445.56,228.77l31.66,4.53-11.9-29.68-7.7,9.8c-21.24-24.32-25.34-60.04-9.64-88.66l-5.74-3.15c-17.21,31.39-12.46,70.66,11.27,97.04l-7.95,10.12Z" fill="#fdb441"/>
      <rect x="429.92" y="78.2" width="43.41" height="43.41" fill="#fe646f" stroke="#000" stroke-miterlimit="10" stroke-width="4"/>
    </g>
    <text transform="translate(399.43 326.98)" font-family="Roboto-Black, Roboto" font-size="38.18" font-weight="800"><tspan x="0" y="0">Adaptable Data </tspan><tspan x="35.24" y="45.82" letter-spacing="-.01em">F</tspan><tspan x="55.64" y="45.82" letter-spacing="-.01em">r</tspan><tspan x="69.54" y="45.82">amework</tspan></text>
  </g>
  <g>
    <text transform="translate(844.66 326.98)" font-family="Roboto-Black, Roboto" font-size="38.18" font-weight="800"><tspan x="0" y="0" letter-spacing="-.01em">F</tspan><tspan x="20.49" y="0">exible Data </tspan><tspan x="52.19" y="45.82">Model</tspan></text>
    <g>
      <line x1="951.44" y1="116.49" x2="951.44" y2="230.66" fill="none" stroke="#000" stroke-miterlimit="10" stroke-width="4"/>
      <line x1="951.44" y1="230.66" x2="951.44" y2="191.63" fill="none" stroke="#000" stroke-miterlimit="10" stroke-width="4"/>
      <polyline points="1021.48 230.66 1021.48 215.73 879.39 215.73 879.39 230.66" fill="none" stroke="#000" stroke-miterlimit="10" stroke-width="4"/>
      <polyline points="1028.99 170.12 1028.99 154.8 872.39 154.8 872.39 170.12" fill="none" stroke="#000" stroke-miterlimit="10" stroke-width="4"/>
      <rect x="851.87" y="167.62" width="41.03" height="21.05" fill="#fcbe42" stroke="#000" stroke-miterlimit="10" stroke-width="4"/>
      <rect x="930.17" y="167.62" width="41.03" height="21.05" fill="#fcbe42" stroke="#000" stroke-miterlimit="10" stroke-width="4"/>
      <rect x="1008.47" y="167.62" width="41.03" height="21.05" fill="#fcbe42" stroke="#000" stroke-miterlimit="10" stroke-width="4"/>
      <circle cx="879.39" cy="244.12" r="13.46" fill="#f97878" stroke="#000" stroke-miterlimit="10" stroke-width="4"/>
      <circle cx="950.69" cy="244.12" r="13.46" fill="#f97878" stroke="#000" stroke-miterlimit="10" stroke-width="4"/>
      <circle cx="1021.48" cy="244.12" r="13.46" fill="#f97878" stroke="#000" stroke-miterlimit="10" stroke-width="4"/>
      <g>
        <path d="M956.53,60.1l7.85,1.17c4.05.93,13.11,3.09,13.6,8.11-.82,12.09,1.05,25.54,0,37.47-.36,4.05-5.65,6.15-9.03,7.19-10.66,3.3-26.82,3.34-37.33-.59-2.96-1.11-5.88-2.72-7.26-5.69v-39.01c1.07-2.55,3.33-4.01,5.76-5.1,4.65-2.08,10.21-2.93,15.26-3.3l.42-.24h10.72ZM947.07,62.01c-5.12.28-17.24,1.86-20.34,6.34-1.86,2.69,1.75,4.85,3.83,5.85,9.76,4.7,31.04,4.66,40.87.16,9.17-4.2,3.2-8.23-3.13-10.2s-14.47-2.52-21.23-2.15ZM976.14,73.71c-.59.42-1.12.88-1.75,1.26-10.67,6.34-35.77,6.34-46.43,0-.63-.37-1.16-.84-1.75-1.26v9.03c0,1.03,2.6,2.84,3.48,3.32,9.58,5.24,33.17,5.25,42.8.09.93-.5,3.66-2.32,3.66-3.41v-9.03ZM976.14,86.02c-3.14,2.49-7.09,3.74-10.98,4.58-9.52,2.06-21.53,1.99-30.91-.73-2.85-.83-5.72-1.99-8.05-3.85v9.03c0,.74,2.08,2.34,2.74,2.76,9.32,5.93,34.46,5.81,43.97.3.77-.44,3.22-2.2,3.22-3.06v-9.03ZM976.14,98.33c-8.36,5.58-20.09,6.27-29.95,5.77-6.69-.34-14.45-1.94-19.99-5.77v9.03c0,.83,2.96,2.91,3.74,3.32,9.76,5.13,32.28,5.14,42.11.18.85-.43,4.08-2.59,4.08-3.5v-9.03Z" stroke="#000" stroke-miterlimit="10" stroke-width="3"/>
        <path d="M947.07,62.01c6.76-.37,14.75.14,21.23,2.15s12.3,6,3.13,10.2c-9.83,4.5-31.11,4.54-40.87-.16-2.08-1-5.69-3.16-3.83-5.85,3.1-4.48,15.22-6.06,20.34-6.34Z" fill="#fcbe42" stroke="#000" stroke-miterlimit="10" stroke-width=".75"/>
        <path d="M976.14,98.33v9.03c0,.91-3.23,3.07-4.08,3.5-9.83,4.96-32.35,4.95-42.11-.18-.78-.41-3.74-2.5-3.74-3.32v-9.03c5.54,3.84,13.29,5.43,19.99,5.77,9.85.5,21.59-.19,29.95-5.77ZM966.39,106.26c-2.69-2.38-5.92,2.12-3.05,3.97,2.58,1.66,5.34-1.94,3.05-3.97Z" fill="#fcbe42" stroke="#000" stroke-miterlimit="10" stroke-width=".75"/>
        <path d="M976.14,73.71v9.03c0,1.09-2.72,2.91-3.66,3.41-9.63,5.16-33.22,5.15-42.8-.09-.88-.48-3.48-2.29-3.48-3.32v-9.03c.59.42,1.12.88,1.75,1.26,10.67,6.34,35.77,6.34,46.43,0,.63-.37,1.16-.84,1.75-1.26ZM964.57,81.1c-4.04.39-2.29,6.62,1.29,4.71,2.55-1.36,1.04-4.93-1.29-4.71Z" fill="#fcbe42" stroke="#000" stroke-miterlimit="10" stroke-width=".75"/>
        <path d="M976.14,86.02v9.03c0,.85-2.46,2.61-3.22,3.06-9.52,5.51-34.65,5.63-43.97-.3-.66-.42-2.74-2.02-2.74-2.76v-9.03c2.33,1.87,5.2,3.03,8.05,3.85,9.38,2.72,21.39,2.8,30.91.73,3.89-.84,7.84-2.1,10.98-4.58ZM964.32,93.4c-3.24.47-2.48,5.69,1.18,4.87,2.72-.61,1.91-5.32-1.18-4.87Z" fill="#fcbe42" stroke="#000" stroke-miterlimit="10" stroke-width=".75"/>
        <path d="M966.39,106.26c2.29,2.02-.47,5.62-3.05,3.97-2.88-1.85.36-6.34,3.05-3.97Z" stroke="#000" stroke-miterlimit="10" stroke-width=".5"/>
        <path d="M964.57,81.1c2.34-.22,3.85,3.35,1.29,4.71-3.58,1.91-5.33-4.32-1.29-4.71Z" stroke="#000" stroke-miterlimit="10" stroke-width=".5"/>
        <path d="M964.32,93.4c3.09-.45,3.9,4.26,1.18,4.87-3.66.82-4.43-4.39-1.18-4.87Z" stroke="#000" stroke-miterlimit="10" stroke-width=".5"/>
      </g>
    </g>
  </g>
  <g>
    <text transform="translate(1218.87 326.98)" font-family="Roboto-Black, Roboto" font-size="38.18" font-weight="800"><tspan x="0" y="0">Rich</tspan><tspan x="76.8" y="0" letter-spacing="-.03em"> </tspan><tspan x="85.19" y="0" letter-spacing="-.04em">T</tspan><tspan x="107.6" y="0">erminology </tspan><tspan x="82.26" y="45.82">Suppo</tspan><tspan x="192.13" y="45.82" letter-spacing=".02em">r</tspan><tspan x="207.53" y="45.82">t</tspan></text>
    <g>
      <rect x="1306.78" y="217.72" width="125.75" height="21.68" fill="#fff" stroke="#000" stroke-miterlimit="10" stroke-width="5"/>
      <g>
        <rect x="1317.78" y="76.97" width="121.08" height="125.41" fill="#c0976e" stroke="#000" stroke-miterlimit="10" stroke-width="5"/>
        <path d="M1315.5,76.97h2.28v125.28c0,12.63-10.26,22.89-22.89,22.89h-4.46v-123.1c0-13.84,11.23-25.07,25.07-25.07Z" fill="#c0976e" stroke="#000" stroke-miterlimit="10" stroke-width="5"/>
        <path d="M1438.86,90.06h4.69c3.67,0,6.65,2.98,6.65,6.65v13.38c0,3.67-2.98,6.65-6.65,6.65h-4.69v-26.68h0Z" fill="#a7c2f3" stroke="#000" stroke-miterlimit="10" stroke-width="5"/>
        <path d="M1438.86,117.83h4.69c3.67,0,6.65,2.98,6.65,6.65v13.38c0,3.67-2.98,6.65-6.65,6.65h-4.69v-26.68h0Z" fill="#b9da9a" stroke="#000" stroke-miterlimit="10" stroke-width="5"/>
        <path d="M1438.86,145.59h4.69c3.67,0,6.65,2.98,6.65,6.65v13.38c0,3.67-2.98,6.65-6.65,6.65h-4.69v-26.68h0Z" fill="#a7c2f4" stroke="#000" stroke-miterlimit="10" stroke-width="5"/>
        <path d="M1438.86,174.19h4.69c3.67,0,6.65,2.98,6.65,6.65v13.38c0,3.67-2.98,6.65-6.65,6.65h-4.69v-26.68h0Z" fill="#d6606b" stroke="#000" stroke-miterlimit="10" stroke-width="5"/>
        <path d="M1315.78,217.72h123.08v-15.34h-124.41c-13.26,0-24.02,10.75-24.02,24.02h0c0,15.11,12.25,27.35,27.35,27.35h121.08v-14.34h-121.91c-5.62,0-10.17-4.55-10.17-10.17v-2.5c0-4.97,4.03-9.01,9.01-9.01Z" fill="#c0976e" stroke="#000" stroke-miterlimit="10" stroke-width="5"/>
      </g>
      <path d="M1290.43,113.32c6.22-13.69,18.78-18.36,27.35-19.35" fill="none" stroke="#000" stroke-miterlimit="10" stroke-width="5"/>
      <path d="M1290.43,128.48c7.72-16.83,18.78-18.36,27.35-19.35" fill="none" stroke="#000" stroke-miterlimit="10" stroke-width="5"/>
      <path d="M1290.43,197.21c9.86-13.94,19.48-12.77,27.35-12.8" fill="none" stroke="#000" stroke-miterlimit="10" stroke-width="5"/>
      <polygon points="1330.8 217.72 1354.32 217.72 1354.32 248.87 1342.44 238.05 1330.78 248.87 1330.8 217.72" fill="#d6606b" stroke="#000" stroke-linecap="round" stroke-linejoin="round" stroke-width="5"/>
      <g>
        <path d="M1362.22,144.14l-2.73-8.73h-12.5l-2.7,8.73h-16.38l18.61-50.75h13.39l18.75,50.75h-16.45ZM1355.55,122.7l-2.32-7.46-2.3,7.46h4.62Z" fill="#fcbe42"/>
        <path d="M1358.52,95.39l17.27,46.75h-12.1l-2.73-8.73h-15.44l-2.7,8.73h-12.04l17.15-46.75h10.6M1348.22,124.71h10.05l-5.04-16.21-5.01,16.21M1361.31,91.39h-16.18l-.96,2.62-17.15,46.75-1.97,5.38h20.72l.87-2.82,1.83-5.91h9.55l1.85,5.93.88,2.81h20.79l-1.99-5.39-17.27-46.75-.97-2.61h0Z"/>
      </g>
      <g>
        <polygon points="1386.92 187.57 1386.92 179.01 1407.38 149.53 1386.79 149.53 1386.79 136.82 1427.11 136.82 1427.11 145.22 1406.78 174.9 1427.33 174.9 1427.33 187.57 1386.92 187.57" fill="#fcbe42"/>
        <path d="M1425.11,138.82v5.78l-22.12,32.3h22.35v8.67h-36.41v-5.94l22.28-32.11h-22.41v-8.7h36.31M1429.11,134.82h-44.31v16.7h18.77l-17.92,25.83-.71,1.03v11.19h44.41v-16.67h-18.76l17.83-26.04.7-1.02v-11.02h0Z"/>
      </g>
    </g>
  </g>
  <g>
    <text transform="translate(375.73 734.72)" font-family="Roboto-Black, Roboto" font-size="38.18" font-weight="800"><tspan x="0" y="0">Configu</tspan><tspan x="135.86" y="0" letter-spacing="-.01em">r</tspan><tspan x="149.77" y="0">able Data </tspan><tspan x="24.34" y="45.82">Access Cont</tspan><tspan x="240.58" y="45.82" letter-spacing="-.02em">r</tspan><tspan x="254.38" y="45.82">ol</tspan></text>
    <g>
      <rect x="443.26" y="545.22" width="110.57" height="87.56" fill="#fcbe42" stroke="#000" stroke-miterlimit="10" stroke-width="5"/>
      <g>
        <path d="M456.07,544.6v-20.09c0-24.01,19.53-43.54,43.54-43.54s43.54,19.53,43.54,43.54v8.36h-14.87v-8.36c0-15.81-12.86-28.67-28.67-28.67s-28.67,12.86-28.67,28.67v20.09h-14.87Z" fill="#6a8ce8"/>
        <path d="M499.6,483.47c22.63,0,41.04,18.41,41.04,41.04v5.86h-9.87v-5.86c0-17.19-13.98-31.17-31.17-31.17s-31.17,13.98-31.17,31.17v17.59h-9.87v-17.59c0-22.63,18.41-41.04,41.04-41.04M499.6,478.47c-25.39,0-46.04,20.65-46.04,46.04v22.59h19.87v-22.59c0-14.43,11.74-26.17,26.17-26.17s26.17,11.74,26.17,26.17v10.86h19.87v-10.86c0-25.39-20.65-46.04-46.04-46.04h0Z"/>
      </g>
      <g>
        <polygon points="472.53 592.89 479.47 584.95 494.06 597.7 519.63 565.15 527.92 571.66 495.48 612.96 472.53 592.89" fill="#b3edba"/>
        <path d="M519.96,567.95l5.15,4.04-29.9,38.07-19.86-17.36,4.31-4.93,14.66,12.82,25.64-32.64M519.29,562.34l-2.47,3.15-23.03,29.32-11.49-10.05-3.01-2.63-2.63,3.01-4.31,4.93-2.63,3.01,3.01,2.63,19.86,17.36,3.17,2.78,2.6-3.32,29.9-38.07,2.47-3.15-3.15-2.47-5.15-4.04-3.15-2.47h0Z"/>
      </g>
      <g>
        <g>
          <path d="M618.85,635.53c0-28.09-22.77-50.87-50.87-50.87s-50.87,22.77-50.87,50.87c0,14.68,6.23,27.9,16.18,37.19v-6.37c0-7.2,5.89-13.09,13.09-13.09h43.19c7.2,0,13.09,5.89,13.09,13.09v6.37c9.95-9.28,16.18-22.51,16.18-37.19Z" fill="#fff" stroke="#000" stroke-linecap="round" stroke-linejoin="round" stroke-width="5"/>
          <path d="M602.67,672.72c-9.09,8.48-21.28,13.68-34.69,13.68s-25.6-5.2-34.69-13.68" fill="#fff" stroke="#000" stroke-miterlimit="10" stroke-width="5"/>
          <g>
            <path d="M567.98,684.89c-12.32,0-24.08-4.55-33.19-12.84v-5.72c0-6.39,5.2-11.59,11.59-11.59h43.19c6.39,0,11.59,5.2,11.59,11.59v5.72c-9.11,8.28-20.87,12.84-33.19,12.84Z" fill="#b5efbc"/>
            <path d="M589.58,656.25c5.56,0,10.09,4.53,10.09,10.09v5.05c-8.76,7.75-19.96,12.01-31.69,12.01s-22.93-4.25-31.69-12.01v-5.05c0-5.56,4.53-10.09,10.09-10.09h43.19M589.58,653.25h-43.19c-7.2,0-13.09,5.89-13.09,13.09v6.37c9.09,8.48,21.28,13.68,34.69,13.68s25.6-5.2,34.69-13.68v-6.37c0-7.2-5.89-13.09-13.09-13.09h0Z"/>
          </g>
        </g>
        <g>
          <path d="M565.89,640.7h4.85c2.99,0,5.41,2.43,5.41,5.41v12.19c0,2.99-2.43,5.41-5.41,5.41h-4.85c-2.99,0-5.41-2.43-5.41-5.41v-12.19c0-2.99,2.43-5.41,5.41-5.41Z" fill="#fbf2e2"/>
          <path d="M570.74,643.2c1.58,0,2.91,1.33,2.91,2.91v12.19c0,1.58-1.33,2.91-2.91,2.91h-4.85c-1.58,0-2.91-1.33-2.91-2.91v-12.19c0-1.58,1.33-2.91,2.91-2.91h4.85M570.74,638.2h-4.85c-4.35,0-7.91,3.56-7.91,7.91v12.19c0,4.35,3.56,7.91,7.91,7.91h4.85c4.35,0,7.91-3.56,7.91-7.91v-12.19c0-4.35-3.56-7.91-7.91-7.91h0Z"/>
        </g>
        <g>
          <path d="M566.73,649.58c-8.21,0-14.89-6.68-14.89-14.89v-17.39c0-5.24,4.26-9.5,9.5-9.5h13.94c5.24,0,9.5,4.26,9.5,9.5v17.39c0,8.21-6.68,14.89-14.89,14.89h-3.16Z" fill="#fbf2e2"/>
          <path d="M575.29,610.3c3.86,0,7,3.14,7,7v17.39c0,6.83-5.56,12.39-12.39,12.39h-3.16c-6.83,0-12.39-5.56-12.39-12.39v-17.39c0-3.86,3.14-7,7-7h13.94M575.29,605.3h-13.94c-6.6,0-12,5.4-12,12v17.39c0,9.56,7.82,17.39,17.39,17.39h3.16c9.56,0,17.39-7.82,17.39-17.39v-17.39c0-6.6-5.4-12-12-12h0Z"/>
        </g>
        <g>
          <path d="M567.41,623.69c-5.4,0-10.5-1.39-15.56-4.26v-2.38c0-5.84,4.75-10.59,10.59-10.59h11.76c5.84,0,10.59,4.75,10.59,10.59v2.25c-6.22,2.95-11.91,4.39-17.38,4.39Z" fill="#6e91ef"/>
          <path d="M574.19,608.96c4.46,0,8.09,3.63,8.09,8.09v.64c-5.32,2.35-10.21,3.49-14.88,3.49s-8.8-1.07-13.06-3.25v-.89c0-4.46,3.63-8.09,8.09-8.09h11.76M574.19,603.96h-11.76c-7.2,0-13.09,5.89-13.09,13.09v3.81c6.06,3.71,12.08,5.33,18.06,5.33,6.64,0,13.26-1.99,19.88-5.33v-3.81c0-7.2-5.89-13.09-13.09-13.09h0Z"/>
        </g>
      </g>
    </g>
  </g>
  <g>
    <text transform="translate(787.27 734.72)" font-family="Roboto-Black, Roboto" font-size="38.18" font-weight="800"><tspan x="0" y="0">Extensi</tspan><tspan x="126.5" y="0" letter-spacing="0em">v</tspan><tspan x="145.99" y="0">e Genomic </tspan><tspan x="14.26" y="45.82">Que</tspan><tspan x="82.95" y="45.82" letter-spacing="0em">r</tspan><tspan x="97.75" y="45.82">ying Options</tspan></text>
    <g>
      <g>
        <rect x="875.44" y="509.44" width="31.52" height="14.51" rx="5.85" ry="5.85" fill="#f8db74" stroke="#000" stroke-miterlimit="10" stroke-width="3"/>
        <rect x="871.2" y="536.3" width="31.52" height="14.51" rx="5.85" ry="5.85" fill="#f8db74" stroke="#000" stroke-miterlimit="10" stroke-width="3"/>
        <rect x="924.08" y="536.3" width="31.52" height="14.51" rx="5.85" ry="5.85" fill="#f8db74" stroke="#000" stroke-miterlimit="10" stroke-width="3"/>
        <rect x="875.44" y="561.56" width="31.52" height="14.51" rx="5.85" ry="5.85" fill="#f8db74" stroke="#000" stroke-miterlimit="10" stroke-width="3"/>
        <rect x="921.48" y="509.44" width="31.52" height="14.51" rx="5.85" ry="5.85" fill="#f8db74" stroke="#000" stroke-miterlimit="10" stroke-width="3"/>
        <rect x="921.48" y="561.56" width="31.52" height="14.51" rx="5.85" ry="5.85" fill="#f8db74" stroke="#000" stroke-miterlimit="10" stroke-width="3"/>
        <line x1="906.96" y1="517.57" x2="921.48" y2="517.57" fill="none" stroke="#000" stroke-miterlimit="10" stroke-width="4"/>
        <line x1="906.42" y1="568.82" x2="920.94" y2="568.82" fill="none" stroke="#000" stroke-miterlimit="10" stroke-width="4"/>
        <line x1="903.9" y1="543.55" x2="923.47" y2="543.55" fill="none" stroke="#000" stroke-miterlimit="10" stroke-width="4"/>
        <g>
          <path d="M908.57,616.46c-3.03,1.95-6,3.81-8.86,5.6-11.37,7.11-22.11,13.83-25.32,19.19l-.84,1.4-11.24-6.71.84-1.41c4.82-8.06,15.76-14.9,29.61-23.56,1.34-.84,2.69-1.69,4.07-2.55.47.36.95.7,1.43,1.03,2.92,2.12,5.89,4.12,8.82,6.04.5.34,1,.67,1.49.98Z" fill="#6d7fd8"/>
          <path d="M960.41,547.17c-.02,26.25-17.73,44.92-37.16,59.26-.49-.32-.99-.63-1.48-.95-2.91-1.84-5.87-3.75-8.8-5.74-.48-.33-.96-.64-1.44-.97,18.76-13.14,35.77-29.34,35.79-51.61.02-24.83-15.45-36.66-35.76-50.16-.48-.32-.98-.64-1.47-.98-.49-.32-.99-.64-1.48-.98-.45-.28-.89-.59-1.35-.88-2.45-1.61-4.97-3.27-7.52-4.99-.48-.34-.98-.67-1.47-1-.48-.33-.96-.65-1.44-.99-11.61-8-23.56-17.36-33.25-30.1l-.99-1.31,10.42-7.92.99,1.3c9.75,12.83,22.16,21.87,34.62,30.21l1.47.98c.5.33.99.67,1.49.98.96.64,1.92,1.28,2.88,1.91,2.01,1.32,4,2.64,5.98,3.96.49.33.98.65,1.46.98.48.33.96.65,1.44.99,20.07,13.7,37.11,28.64,37.08,58.02Z" fill="#6d7fd8"/>
          <path d="M947.36,507.2c-6.36-7.31-14.15-13.27-22.57-19.04-.48-.34-.96-.67-1.45-.99-.48-.33-.96-.65-1.45-.98-2.15-1.44-4.33-2.88-6.53-4.33-.77-.51-1.54-1.01-2.31-1.53-.49-.33-.99-.65-1.48-.98s-.98-.65-1.47-.98c-12.54-8.36-25.06-17.4-34.8-30.22l-1.97-2.6-2.61,1.97-7.82,5.95-2.6,1.97,1.97,2.61c9.69,12.74,21.56,22.11,33.11,30.11.48.33.96.67,1.45.98.48.35.97.68,1.46,1,2.73,1.85,5.42,3.63,8.06,5.37.26.17.51.34.77.5.5.34.99.67,1.49.98.49.34.98.67,1.47.98,20.89,13.87,35.62,24.91,35.6,49.17-.02,21.72-16.99,37.67-35.61,50.62.49.34.97.67,1.45,1,.48.33.96.64,1.44.97,18.91-13.29,35.98-29.75,35.99-52.58.02-25.45-15.47-37.52-35.93-51.14-.49-.32-.98-.64-1.47-.97-.49-.33-.99-.65-1.48-.99-.64-.41-1.29-.84-1.93-1.27-2.27-1.49-4.59-3.02-6.94-4.6-.49-.33-.98-.67-1.48-1-.48-.33-.96-.65-1.45-.99-11.66-8.01-23.71-17.37-33.41-30.11l7.81-5.95c9.76,12.84,22.07,21.9,34.44,30.2.49.33.98.65,1.47.98.5.34,1,.67,1.49.99l3.47,2.29c1.81,1.2,3.62,2.39,5.4,3.58.49.33.98.65,1.47.99.48.32.97.64,1.45.98,19.93,13.55,36.93,28.22,36.9,57.01-.02,25.75-17.7,44.15-37.01,58.32.49.32.99.63,1.48.95.49.31.99.61,1.48.93,19.56-14.51,37.29-33.45,37.31-60.19.01-15.56-4.79-28.63-14.68-39.97ZM908.57,616.46c-.49-.32-.99-.64-1.49-.98-2.81,1.8-5.57,3.52-8.23,5.18-11.55,7.22-22.46,14.05-25.86,19.75l-8.43-5.04c4.61-7.72,15.42-14.48,29.07-23.03,1.52-.95,3.07-1.92,4.63-2.9-.48-.33-.96-.67-1.43-1.03-.47-.34-.95-.69-1.42-1.05-1.18.74-2.36,1.48-3.51,2.2-14.04,8.78-25.13,15.72-30.15,24.12l-1.67,2.81,2.8,1.67,8.43,5.04,2.8,1.68,1.68-2.8c3-5.02,14.07-11.95,24.79-18.64,3.05-1.91,6.24-3.91,9.49-6-.5-.33-1-.65-1.51-.98ZM913.03,496.01c-.49-.32-.98-.64-1.47-.97-.49.33-.98.64-1.47.97.49.34.99.67,1.47.98,20.31,13.51,35.78,25.33,35.76,50.16-.02,22.28-17.03,38.48-35.79,51.61.48.33.96.64,1.44.97,18.91-13.29,35.98-29.75,35.99-52.58.02-25.45-15.47-37.52-35.93-51.14Z"/>
        </g>
        <g>
          <path d="M947.16,447.84l-.99,1.3c-9.75,12.83-22.16,21.87-34.62,30.21-.49.33-.99.65-1.48.98-.49.33-.99.65-1.48.98-.96.64-1.93,1.28-2.89,1.91-2.01,1.32-4,2.64-5.98,3.96-.49.34-.97.67-1.46.98l-1.44.98c-20.06,13.71-37.1,28.66-37.07,58.03.01,26.25,17.72,44.92,37.16,59.26.49-.32.99-.63,1.48-.95-19.31-14.17-36.99-32.58-37.01-58.32-.03-28.79,16.96-43.46,36.9-57.01,2.73,1.85,5.42,3.63,8.06,5.37.26.17.51.34.77.5-20.44,13.63-35.95,25.69-35.91,51.14.01,22.83,17.1,39.31,35.99,52.58.48-.33.96-.65,1.44-.98-18.76-13.12-35.77-29.33-35.79-51.6-.03-24.85,15.44-36.66,35.77-50.16.48-.33.98-.65,1.47-.98.49-.33.98-.64,1.47-.97.45-.29.89-.6,1.35-.89,2.45-1.61,4.97-3.27,7.52-4.99.48-.33.97-.67,1.46-1,.48-.33.96-.65,1.45-.99,11.61-8,23.57-17.36,33.25-30.1l.99-1.31-10.42-7.92Z" fill="#fd8087"/>
          <path d="M957.27,453.47l-7.81-5.95-2.61-1.97-1.97,2.6c-9.74,12.82-22.27,21.86-34.79,30.22-.49.33-.99.65-1.48.98-.49.33-.99.65-1.48.98-.77.51-1.54,1.01-2.31,1.53-2.2,1.45-4.39,2.89-6.53,4.33-.49.34-.97.67-1.45.98-.49.34-.97.67-1.45.99-8.42,5.77-16.21,11.73-22.58,19.04-9.88,11.35-14.7,24.42-14.67,39.97.01,26.74,17.75,45.67,37.3,60.19.5-.31.99-.62,1.49-.93.49-.32.99-.63,1.48-.95-19.31-14.17-36.99-32.58-37.01-58.32-.03-28.79,16.96-43.46,36.9-57.01.48-.34.97-.67,1.45-.98.49-.34.98-.67,1.47-.98,1.78-1.2,3.59-2.39,5.4-3.59,1.16-.76,2.31-1.53,3.48-2.29.49-.33.98-.67,1.48-.99.49-.33.98-.65,1.47-.98,12.37-8.3,24.67-17.36,34.43-30.2l7.82,5.95c-9.69,12.74-21.74,22.1-33.41,30.11-.49.34-.98.67-1.46.99-.49.34-.98.67-1.47.99-2.36,1.58-4.68,3.12-6.95,4.61-.64.43-1.29.85-1.93,1.27-.49.33-.98.65-1.47.98-.5.33-.99.67-1.48.98-20.44,13.63-35.95,25.69-35.91,51.14.01,22.83,17.1,39.31,35.99,52.58.48-.33.96-.65,1.44-.98.48-.33.96-.65,1.44-.99-18.61-12.96-35.58-28.9-35.6-50.62-.02-24.26,14.72-35.33,35.61-49.17.49-.33.98-.65,1.47-.98s.98-.64,1.47-.98c.26-.16.51-.33.77-.5,2.64-1.73,5.35-3.52,8.07-5.37.48-.33.97-.65,1.45-.99.49-.33.97-.67,1.46-.99,11.55-8,23.42-17.37,33.11-30.11l1.97-2.61-2.61-1.97ZM911.56,495.04c-.49-.33-.99-.65-1.48-.99-.49.33-.98.65-1.47.98-.5.33-.99.67-1.48.98-20.44,13.63-35.95,25.69-35.91,51.14.01,22.83,17.1,39.31,35.99,52.58.48-.33.96-.65,1.44-.98.48-.33.96-.65,1.44-.99-18.61-12.96-35.58-28.9-35.6-50.62-.02-24.26,14.72-35.33,35.61-49.17.49-.33.98-.65,1.47-.98-.48-.32-.98-.64-1.47-.98.49-.33.98-.64,1.47-.97ZM911.56,495.04c-.49-.33-.99-.65-1.48-.99-.49.33-.98.65-1.47.98-.5.33-.99.67-1.48.98-20.44,13.63-35.95,25.69-35.91,51.14.01,22.83,17.1,39.31,35.99,52.58.48-.33.96-.65,1.44-.98.48-.33.96-.65,1.44-.99-18.61-12.96-35.58-28.9-35.6-50.62-.02-24.26,14.72-35.33,35.61-49.17.49-.33.98-.65,1.47-.98-.48-.32-.98-.64-1.47-.98.49-.33.98-.64,1.47-.97Z"/>
          <path d="M960.08,636.5l-2.8,1.67-8.43,5.04-2.8,1.68-1.68-2.8c-3-5.02-14.07-11.95-24.79-18.64-3.05-1.91-6.25-3.91-9.5-6-.5-.33-1-.65-1.51-.98-.49-.32-.99-.64-1.49-.98-2.92-1.92-5.89-3.93-8.82-6.04-.48-.33-.96-.67-1.43-1.03-.47-.34-.95-.69-1.42-1.05.5-.31.99-.62,1.49-.93.49-.32.99-.63,1.48-.95.48.35.95.7,1.43,1.04.48.35.95.69,1.43,1.01,2.95,2.09,5.91,4.09,8.84,5.99.5.34,1,.65,1.49.98.5.32,1.01.64,1.51.97,2.81,1.8,5.57,3.52,8.23,5.18,11.55,7.22,22.45,14.05,25.86,19.75l8.43-5.04c-4.63-7.72-15.42-14.48-29.09-23.03-1.52-.95-3.07-1.92-4.63-2.9-.49-.31-.98-.62-1.48-.94-.5-.32-1-.63-1.51-.95-2.92-1.87-5.89-3.8-8.83-5.79-.48-.34-.97-.67-1.45-1-.48-.33-.95-.65-1.43-1,.48-.33.96-.65,1.44-.98.48-.33.96-.65,1.44-.99.49.34.97.67,1.45,1,.48.33.96.64,1.44.97,2.93,1.99,5.89,3.89,8.8,5.74.49.32.99.63,1.48.95.49.31.99.61,1.48.93,1.19.74,2.36,1.47,3.52,2.2,14.04,8.78,25.13,15.72,30.14,24.12l1.68,2.81Z"/>
          <path d="M955.6,635.36l-8.43,5.04c-3.4-5.69-14.3-12.52-25.86-19.75-2.65-1.66-5.41-3.38-8.23-5.18-.49-.33-1-.65-1.51-.97-.49-.33-.99-.64-1.49-.98-2.92-1.9-5.89-3.89-8.84-5.99-.48-.33-.95-.67-1.43-1.01-.48-.34-.95-.69-1.43-1.04-19.31-14.17-36.99-32.58-37.01-58.32-.03-28.79,16.96-43.46,36.9-57.01,2.73,1.85,5.42,3.63,8.06,5.37.26.17.51.34.77.5-20.44,13.63-35.95,25.69-35.91,51.14.01,22.83,17.1,39.31,35.99,52.58.48.35.95.68,1.43,1,.48.34.97.67,1.45,1,2.93,2,5.9,3.93,8.83,5.79.5.32,1,.63,1.51.95.5.32.99.63,1.48.94,1.56.98,3.11,1.95,4.63,2.9,13.67,8.55,24.46,15.31,29.09,23.03Z" fill="#fd8087"/>
        </g>
        <g>
          <path d="M908.57,616.46c-3.03,1.95-6,3.81-8.86,5.6-11.37,7.11-22.11,13.83-25.32,19.19l-.84,1.4-11.24-6.71.84-1.41c4.82-8.06,15.76-14.9,29.61-23.56,1.34-.84,2.69-1.69,4.07-2.55.47.36.95.7,1.43,1.03,2.92,2.12,5.89,4.12,8.82,6.04.5.34,1,.67,1.49.98Z" fill="#6d7fd8"/>
          <path d="M960.41,547.17c-.02,26.25-17.73,44.92-37.16,59.26-.49-.32-.99-.63-1.48-.95-2.91-1.84-5.87-3.75-8.8-5.74-.48-.33-.96-.64-1.44-.97,18.76-13.14,35.77-29.34,35.79-51.61.02-24.83-15.45-36.66-35.76-50.16-.48-.32-.98-.64-1.47-.98-.49-.32-.99-.64-1.48-.98-.45-.28-.89-.59-1.35-.88-2.45-1.61-4.97-3.27-7.52-4.99-.48-.34-.98-.67-1.47-1-.48-.33-.96-.65-1.44-.99-11.61-8-23.56-17.36-33.25-30.1l-.99-1.31,10.42-7.92.99,1.3c9.75,12.83,22.16,21.87,34.62,30.21l1.47.98c.5.33.99.67,1.49.98.96.64,1.92,1.28,2.88,1.91,2.01,1.32,4,2.64,5.98,3.96.49.33.98.65,1.46.98.48.33.96.65,1.44.99,20.07,13.7,37.11,28.64,37.08,58.02Z" fill="#6d7fd8"/>
          <path d="M947.36,507.2c-6.36-7.31-14.15-13.27-22.57-19.04-.48-.34-.96-.67-1.45-.99-.48-.33-.96-.65-1.45-.98-2.15-1.44-4.33-2.88-6.53-4.33-.77-.51-1.54-1.01-2.31-1.53-.49-.33-.99-.65-1.48-.98s-.98-.65-1.47-.98c-12.54-8.36-25.06-17.4-34.8-30.22l-1.97-2.6-2.61,1.97-7.82,5.95-2.6,1.97,1.97,2.61c9.69,12.74,21.56,22.11,33.11,30.11.48.33.96.67,1.45.98.48.35.97.68,1.46,1,2.73,1.85,5.42,3.63,8.06,5.37.26.17.51.34.77.5.5.34.99.67,1.49.98.49.34.98.67,1.47.98,20.89,13.87,35.62,24.91,35.6,49.17-.02,21.72-16.99,37.67-35.61,50.62.49.34.97.67,1.45,1,.48.33.96.64,1.44.97,18.91-13.29,35.98-29.75,35.99-52.58.02-25.45-15.47-37.52-35.93-51.14-.49-.32-.98-.64-1.47-.97-.49-.33-.99-.65-1.48-.99-.64-.41-1.29-.84-1.93-1.27-2.27-1.49-4.59-3.02-6.94-4.6-.49-.33-.98-.67-1.48-1-.48-.33-.96-.65-1.45-.99-11.66-8.01-23.71-17.37-33.41-30.11l7.81-5.95c9.76,12.84,22.07,21.9,34.44,30.2.49.33.98.65,1.47.98.5.34,1,.67,1.49.99l3.47,2.29c1.81,1.2,3.62,2.39,5.4,3.58.49.33.98.65,1.47.99.48.32.97.64,1.45.98,19.93,13.55,36.93,28.22,36.9,57.01-.02,25.75-17.7,44.15-37.01,58.32.49.32.99.63,1.48.95.49.31.99.61,1.48.93,19.56-14.51,37.29-33.45,37.31-60.19.01-15.56-4.79-28.63-14.68-39.97ZM908.57,616.46c-.49-.32-.99-.64-1.49-.98-2.81,1.8-5.57,3.52-8.23,5.18-11.55,7.22-22.46,14.05-25.86,19.75l-8.43-5.04c4.61-7.72,15.42-14.48,29.07-23.03,1.52-.95,3.07-1.92,4.63-2.9-.48-.33-.96-.67-1.43-1.03-.47-.34-.95-.69-1.42-1.05-1.18.74-2.36,1.48-3.51,2.2-14.04,8.78-25.13,15.72-30.15,24.12l-1.67,2.81,2.8,1.67,8.43,5.04,2.8,1.68,1.68-2.8c3-5.02,14.07-11.95,24.79-18.64,3.05-1.91,6.24-3.91,9.49-6-.5-.33-1-.65-1.51-.98ZM913.03,496.01c-.49-.32-.98-.64-1.47-.97-.49.33-.98.64-1.47.97.49.34.99.67,1.47.98,20.31,13.51,35.78,25.33,35.76,50.16-.02,22.28-17.03,38.48-35.79,51.61.48.33.96.64,1.44.97,18.91-13.29,35.98-29.75,35.99-52.58.02-25.45-15.47-37.52-35.93-51.14Z"/>
        </g>
      </g>
      <g>
        <circle cx="965.08" cy="541.79" r="33.15" fill="#eaf6ff"/>
        <g>
          <g>
            <g>
              <path d="M1031.02,608.79c-1.6,0-3.16-.56-4.38-1.57l-36.55-30.19c-1.41-1.17-2.29-2.82-2.46-4.67-.18-1.84.37-3.63,1.54-5.05l5.66-6.85c1.31-1.58,3.25-2.49,5.33-2.49,1.6,0,3.16.56,4.38,1.57l36.55,30.19c1.41,1.17,2.29,2.82,2.46,4.67.18,1.84-.37,3.63-1.54,5.05l-5.66,6.85c-1.31,1.58-3.25,2.49-5.33,2.49Z" fill="#666"/>
              <path d="M1000.15,560.47h0c.72,0,1.79.17,2.79,1l36.55,30.19c1.87,1.55,2.14,4.33.59,6.2l-5.66,6.85c-.83,1.01-2.07,1.59-3.41,1.59-.72,0-1.79-.17-2.79-1l-36.55-30.19c-1.87-1.55-2.14-4.33-.59-6.2l5.66-6.85c.83-1.01,2.07-1.59,3.41-1.59M1000.15,555.47c-2.71,0-5.41,1.16-7.26,3.4l-5.66,6.85c-3.29,3.99-2.73,9.94,1.26,13.24l36.55,30.19c1.74,1.44,3.86,2.14,5.97,2.14,2.71,0,5.41-1.16,7.26-3.4l5.66-6.85c3.29-3.99,2.73-9.94-1.26-13.24l-36.55-30.19c-1.74-1.44-3.86-2.14-5.97-2.14h0Z"/>
            </g>
            <g>
              <path d="M999.77,591.82c-1.2,0-2.37-.42-3.29-1.18l-1.01-.83c-2.2-1.82-2.52-5.1-.7-7.3l16.02-19.39c.98-1.19,2.44-1.87,4.01-1.87,1.2,0,2.37.42,3.29,1.18l1.01.83c1.06.88,1.72,2.12,1.85,3.51.13,1.38-.28,2.73-1.16,3.79l-16.02,19.39c-.98,1.19-2.44,1.87-4.01,1.87Z" fill="#6e91ef"/>
              <path d="M1014.81,563.24h0c.52,0,1.3.13,2.02.72l1.01.83c.65.54,1.05,1.3,1.13,2.15.08.85-.17,1.68-.71,2.33l-16.02,19.39c-.6.73-1.5,1.15-2.47,1.15-.52,0-1.3-.13-2.02-.72l-1.01-.83c-.65-.54-1.05-1.3-1.13-2.15-.08-.85.17-1.68.71-2.33l16.02-19.39c.6-.73,1.5-1.15,2.47-1.15M1014.81,559.24c-2.07,0-4.13.89-5.55,2.6l-16.02,19.39c-2.52,3.05-2.08,7.6.96,10.11l1.01.83c1.33,1.1,2.95,1.64,4.57,1.64,2.07,0,4.13-.89,5.55-2.6l16.02-19.39c2.52-3.05,2.08-7.6-.96-10.11l-1.01-.83c-1.33-1.1-2.95-1.64-4.57-1.64h0Z"/>
            </g>
          </g>
          <path d="M933.36,515.91c-14.26,17.26-11.82,42.8,5.43,57.05,17.26,14.26,42.8,11.82,57.05-5.43,14.26-17.26,11.82-42.8-5.43-57.05-17.26-14.26-42.8-11.82-57.05,5.43ZM986.42,559.42c-9.74,11.79-27.19,13.45-38.98,3.71-11.79-9.74-13.45-27.19-3.71-38.98,9.74-11.79,27.19-13.45,38.98-3.71,11.79,9.74,13.45,27.19,3.71,38.98Z" fill="#6e91ef" stroke="#000" stroke-miterlimit="10" stroke-width="4"/>
        </g>
      </g>
      <text transform="translate(956.87 560.14)" font-family="Stolzl-Regular, Stolzl" font-size="54"><tspan x="0" y="0">!</tspan></text>
    </g>
  </g>
  <g>
    <text transform="translate(1228.7 734.72)" font-family="Roboto-Black, Roboto" font-size="38.18" font-weight="800"><tspan x="0" y="0">Beacon Network</tspan></text>
    <g>
      <circle cx="1370" cy="550" r="95.56" fill="#c9f0ff" stroke="#000" stroke-miterlimit="10" stroke-width="5"/>
      <g>
        <path d="M1318.1,469.7c20.11,2.63,37.79,9.57,53.23,20.51,17.73-12.51,35.09-19.35,52.08-20.51" fill="none" stroke="#000" stroke-miterlimit="10" stroke-width="4"/>
        <path d="M1274.57,536.24c17.46-5.43,38.12-5.94,60.04-4.5,31.12.93,58.37,9.83,83.3,23.51,16.92-18.87,25.84-39.81,28.52-62.36" fill="none" stroke="#000" stroke-miterlimit="10" stroke-width="4"/>
        <path d="M1371.33,490.21c-15.16,6.34-27.17,20.77-36.72,41.53-16.52,28.75-24.6,60.3-18.51,96.56" fill="none" stroke="#000" stroke-miterlimit="10" stroke-width="4"/>
        <path d="M1459.19,585.77c-6.22-11.21-21.29-21.2-41.28-30.52-27.05,33.95-60.74,58.66-101.81,73.05" fill="none" stroke="#000" stroke-miterlimit="10" stroke-width="4"/>
        <path d="M1423.42,630.3c7.17-23.68,5.34-47.36-5.5-71.05" fill="none" stroke="#000" stroke-miterlimit="10" stroke-width="4"/>
      </g>
      <g>
        <circle cx="1318.1" cy="469.7" r="9.51" fill="#ff815c" stroke="#000" stroke-miterlimit="10" stroke-width="4"/>
        <circle cx="1274.57" cy="536.24" r="9.51" fill="#ff815c" stroke="#000" stroke-miterlimit="10" stroke-width="4"/>
        <circle cx="1334.61" cy="531.74" r="9.51" fill="#ff815c" stroke="#000" stroke-miterlimit="10" stroke-width="4"/>
        <circle cx="1371.33" cy="490.21" r="9.51" fill="#ff815c" stroke="#000" stroke-miterlimit="10" stroke-width="4"/>
        <circle cx="1423.42" cy="469.7" r="9.51" fill="#ff815c" stroke="#000" stroke-miterlimit="10" stroke-width="4"/>
        <circle cx="1446.43" cy="492.89" r="9.51" fill="#ff815c" stroke="#000" stroke-miterlimit="10" stroke-width="4"/>
        <circle cx="1417.91" cy="555.25" r="9.51" fill="#ff815c" stroke="#000" stroke-miterlimit="10" stroke-width="4"/>
        <circle cx="1423.42" cy="630.3" r="9.51" fill="#ff815c" stroke="#000" stroke-miterlimit="10" stroke-width="4"/>
        <circle cx="1318.1" cy="628.3" r="9.51" fill="#ff815c" stroke="#000" stroke-miterlimit="10" stroke-width="4"/>
      </g>
    </g>
  </g>
</svg>