<?xml version="1.0" encoding="UTF-8"?>
<svg id="Layer_1" data-name="Layer 1" xmlns="http://www.w3.org/2000/svg" width="331.15" height="267.82" viewBox="0 0 331.15 267.82">
  <circle cx="136.49" cy="108.66" r="53.21" fill="#eaf6ff"/>
  <g>
    <path d="M241.64,221.83c-1.6,0-3.16-.56-4.38-1.57l-67.44-55.72c-1.41-1.17-2.29-2.83-2.46-4.67-.18-1.84.37-3.63,1.54-5.05l9.44-11.42c1.31-1.59,3.25-2.5,5.33-2.5,1.6,0,3.16.56,4.38,1.57l67.44,55.72c2.93,2.42,3.35,6.78.92,9.72l-9.44,11.42c-1.31,1.59-3.25,2.5-5.33,2.5Z" fill="#e98177"/>
    <path d="M183.66,143.41h0c.72,0,1.79.17,2.79,1l67.44,55.72c1.87,1.55,2.14,4.33.59,6.2l-9.44,11.42c-.83,1.01-2.07,1.59-3.41,1.59-.72,0-1.79-.17-2.79-1l-67.44-55.72c-.9-.74-1.45-1.8-1.57-2.98-.11-1.18.23-2.32.98-3.22l9.44-11.42c.83-1.01,2.07-1.59,3.41-1.59M183.66,138.41c-2.71,0-5.41,1.16-7.26,3.4l-9.44,11.42c-3.29,3.99-2.73,9.94,1.26,13.24l67.44,55.72c1.74,1.44,3.86,2.14,5.98,2.14,2.71,0,5.41-1.16,7.26-3.4l9.44-11.42c3.29-3.99,2.73-9.94-1.26-13.24l-67.44-55.72c-1.74-1.44-3.86-2.14-5.97-2.14h0Z"/>
  </g>
  <g>
    <path d="M192.78,191.95c-1.2,0-2.37-.42-3.29-1.18l-8.32-6.88c-2.2-1.82-2.51-5.1-.69-7.3l21.42-25.93c.98-1.19,2.44-1.87,4.01-1.87,1.2,0,2.37.42,3.29,1.18l8.32,6.88c1.06.88,1.72,2.12,1.85,3.51s-.28,2.73-1.16,3.79l-21.42,25.93c-.98,1.19-2.44,1.87-4.01,1.87Z" fill="#f3f5f7"/>
    <path d="M205.89,150.8h0c.52,0,1.3.13,2.02.72l8.32,6.88c1.35,1.12,1.55,3.13.43,4.48l-21.42,25.93c-.6.73-1.5,1.15-2.47,1.15-.52,0-1.3-.13-2.02-.72l-8.32-6.88c-.65-.54-1.05-1.3-1.13-2.15-.08-.85.17-1.68.71-2.33l21.42-25.93c.6-.73,1.5-1.15,2.47-1.15M205.89,146.8c-2.07,0-4.13.89-5.55,2.6l-21.42,25.93c-2.52,3.05-2.08,7.6.96,10.11l8.32,6.88c1.33,1.1,2.95,1.64,4.57,1.64,2.07,0,4.13-.89,5.55-2.6l21.42-25.93c2.52-3.05,2.08-7.6-.96-10.11l-8.32-6.88c-1.33-1.1-2.95-1.64-4.57-1.64h0Z"/>
  </g>
  <path d="M85.58,67.11c-22.88,27.7-18.98,68.7,8.72,91.59,27.7,22.88,68.7,18.98,91.59-8.72,22.88-27.7,18.98-68.7-8.72-91.59-27.7-22.88-68.7-18.98-91.59,8.72ZM170.76,136.96c-15.63,18.92-43.64,21.59-62.57,5.96-18.92-15.63-21.59-43.64-5.96-62.57,15.63-18.92,43.64-21.59,62.57-5.96,18.92,15.63,21.59,43.64,5.96,62.57Z" fill="#f99b8c" stroke="#000" stroke-miterlimit="10" stroke-width="4"/>
  <g>
    <path d="M109.73,96.59c-2.54,0-4.6-2.07-4.6-4.6s2.07-4.6,4.6-4.6h53.52c2.54,0,4.6,2.07,4.6,4.6s-2.07,4.6-4.6,4.6h-53.52Z" fill="#c7f8fb"/>
    <path d="M163.26,88.88c1.71,0,3.1,1.39,3.1,3.1s-1.39,3.1-3.1,3.1h-53.52c-1.71,0-3.1-1.39-3.1-3.1s1.39-3.1,3.1-3.1h53.52M163.26,85.88h-53.52c-3.36,0-6.1,2.75-6.1,6.1s2.75,6.1,6.1,6.1h53.52c3.36,0,6.1-2.75,6.1-6.1s-2.75-6.1-6.1-6.1h0Z"/>
  </g>
  <g>
    <path d="M108.97,113.15c-2.54,0-4.61-2.07-4.61-4.6s2.07-4.6,4.61-4.6h53.52c2.54,0,4.6,2.07,4.6,4.6s-2.07,4.6-4.6,4.6h-53.52Z" fill="#c7f8fb"/>
    <path d="M162.49,105.44c1.71,0,3.1,1.39,3.1,3.1s-1.39,3.1-3.1,3.1h-53.52c-1.71,0-3.1-1.39-3.1-3.1s1.39-3.1,3.1-3.1h53.52M162.49,102.44h-53.52c-3.36,0-6.1,2.75-6.1,6.1s2.75,6.1,6.1,6.1h53.52c3.36,0,6.1-2.75,6.1-6.1s-2.75-6.1-6.1-6.1h0Z"/>
  </g>
  <g>
    <path d="M108.97,129.71c-2.54,0-4.61-2.07-4.61-4.6s2.07-4.6,4.61-4.6h53.52c2.54,0,4.6,2.07,4.6,4.6s-2.07,4.6-4.6,4.6h-53.52Z" fill="#c7f8fb"/>
    <path d="M162.49,122c1.71,0,3.1,1.39,3.1,3.1s-1.39,3.1-3.1,3.1h-53.52c-1.71,0-3.1-1.39-3.1-3.1s1.39-3.1,3.1-3.1h53.52M162.49,119h-53.52c-3.36,0-6.1,2.75-6.1,6.1h0c0,3.36,2.75,6.1,6.1,6.1h53.52c3.36,0,6.1-2.75,6.1-6.1h0c0-3.36-2.75-6.1-6.1-6.1h0Z"/>
  </g>
  <line x1="136.49" y1="85.25" x2="136.49" y2="98.7" fill="none" stroke="#000" stroke-linecap="round" stroke-miterlimit="10" stroke-width="4"/>
  <line x1="154.07" y1="101.93" x2="154.07" y2="115.38" fill="none" stroke="#000" stroke-linecap="round" stroke-miterlimit="10" stroke-width="4"/>
  <line x1="119.58" y1="118.38" x2="119.58" y2="131.83" fill="none" stroke="#000" stroke-linecap="round" stroke-miterlimit="10" stroke-width="4"/>
</svg>