<?xml version="1.0" encoding="UTF-8"?>
<svg id="Layer_1" data-name="Layer 1" xmlns="http://www.w3.org/2000/svg" width="331.15" height="267.82" viewBox="0 0 331.15 267.82">
  <path d="M161.96,37.08c6.76-.37,14.75.14,21.23,2.15,6.33,1.97,12.3,6,3.13,10.2-9.83,4.5-31.11,4.54-40.87-.16-2.08-1-5.69-3.16-3.83-5.85,3.1-4.48,15.22-6.06,20.34-6.34Z" fill="#fcbe42" stroke="#000" stroke-miterlimit="10" stroke-width=".75"/>
  <g>
    <line x1="166.33" y1="91.56" x2="166.33" y2="205.73" fill="none" stroke="#000" stroke-miterlimit="10" stroke-width="4"/>
    <line x1="166.33" y1="205.73" x2="166.33" y2="166.7" fill="none" stroke="#000" stroke-miterlimit="10" stroke-width="4"/>
    <polyline points="236.37 205.73 236.37 190.79 94.28 190.79 94.28 205.73" fill="none" stroke="#000" stroke-miterlimit="10" stroke-width="4"/>
    <polyline points="243.88 145.19 243.88 129.87 87.28 129.87 87.28 145.19" fill="none" stroke="#000" stroke-miterlimit="10" stroke-width="4"/>
    <rect x="66.76" y="142.69" width="41.03" height="21.05" fill="#fcbe42" stroke="#000" stroke-miterlimit="10" stroke-width="4"/>
    <rect x="145.06" y="142.69" width="41.03" height="21.05" fill="#fcbe42" stroke="#000" stroke-miterlimit="10" stroke-width="4"/>
    <rect x="223.36" y="142.69" width="41.03" height="21.05" fill="#fcbe42" stroke="#000" stroke-miterlimit="10" stroke-width="4"/>
    <circle cx="94.28" cy="219.18" r="13.46" fill="#f97878" stroke="#000" stroke-miterlimit="10" stroke-width="4"/>
    <circle cx="165.58" cy="219.18" r="13.46" fill="#f97878" stroke="#000" stroke-miterlimit="10" stroke-width="4"/>
    <circle cx="236.37" cy="219.18" r="13.46" fill="#f97878" stroke="#000" stroke-miterlimit="10" stroke-width="4"/>
    <path d="M172.24,35.29l6.65.99c.26.04.51.09.76.14,1.86.43,4.57,1.1,7.05,2.13,3.76,1.56,6.13,5.32,6.01,9.4-.32,11.15,1.12,23.18.16,33.97-.36,4.05-5.65,6.15-9.03,7.19-10.66,3.3-26.82,3.34-37.33-.59-.6-.22-1.19-.47-1.77-.74-3.4-1.59-5.49-5.1-5.49-8.85v-31.23c0-3.83,2.19-7.37,5.69-8.95.02-.01.05-.02.07-.03,4.65-2.08,10.21-2.93,15.26-3.3l.57-.05,9.74-.18c.55-.01,1.1.03,1.64.11ZM161.96,37.08c-5.12.28-17.24,1.86-20.34,6.34-1.86,2.69,1.75,4.85,3.83,5.85,9.76,4.7,31.04,4.66,40.87.16,9.17-4.2,3.2-8.23-3.13-10.2-6.48-2.01-14.47-2.52-21.23-2.15ZM191.03,48.78c-.59.42-1.12.88-1.75,1.26-10.67,6.34-35.77,6.34-46.43,0-.63-.37-1.16-.84-1.75-1.26v9.03c0,1.03,2.6,2.84,3.48,3.32,9.58,5.24,33.17,5.25,42.8.09.93-.5,3.66-2.32,3.66-3.41v-9.03ZM191.03,61.09c-3.14,2.49-7.09,3.74-10.98,4.58-9.52,2.06-21.53,1.99-30.91-.73-2.85-.83-5.72-1.99-8.05-3.85v9.03c0,.74,2.08,2.34,2.74,2.76,9.32,5.93,34.46,5.81,43.97.3.77-.44,3.22-2.2,3.22-3.06v-9.03ZM191.03,73.39c-8.36,5.58-20.09,6.27-29.95,5.77-6.69-.34-14.45-1.94-19.99-5.77v9.03c0,.83,2.96,2.91,3.74,3.32,9.76,5.13,32.28,5.14,42.11.18.85-.43,4.08-2.59,4.08-3.5v-9.03Z" stroke="#000" stroke-miterlimit="10" stroke-width="2"/>
    <path d="M191.03,73.39v9.03c0,.91-3.23,3.07-4.08,3.5-9.83,4.96-32.35,4.95-42.11-.18-.78-.41-3.74-2.5-3.74-3.32v-9.03c5.54,3.84,13.29,5.43,19.99,5.77,9.85.5,21.59-.19,29.95-5.77ZM181.28,81.33c-2.69-2.38-5.92,2.12-3.05,3.97,2.58,1.66,5.34-1.94,3.05-3.97Z" fill="#fcbe42" stroke="#000" stroke-miterlimit="10" stroke-width=".75"/>
    <path d="M191.03,48.78v9.03c0,1.09-2.72,2.91-3.66,3.41-9.63,5.16-33.22,5.15-42.8-.09-.88-.48-3.48-2.29-3.48-3.32v-9.03c.59.42,1.12.88,1.75,1.26,10.67,6.34,35.77,6.34,46.43,0,.63-.37,1.16-.84,1.75-1.26ZM179.46,56.17c-4.04.39-2.29,6.62,1.29,4.71,2.55-1.36,1.04-4.93-1.29-4.71Z" fill="#fcbe42" stroke="#000" stroke-miterlimit="10" stroke-width=".75"/>
    <path d="M191.03,61.09v9.03c0,.85-2.46,2.61-3.22,3.06-9.52,5.51-34.65,5.63-43.97-.3-.66-.42-2.74-2.02-2.74-2.76v-9.03c2.33,1.87,5.2,3.03,8.05,3.85,9.38,2.72,21.39,2.8,30.91.73,3.89-.84,7.84-2.1,10.98-4.58ZM179.21,68.47c-3.24.47-2.48,5.69,1.18,4.87,2.72-.61,1.91-5.32-1.18-4.87Z" fill="#fcbe42" stroke="#000" stroke-miterlimit="10" stroke-width=".75"/>
    <path d="M181.28,81.33c2.29,2.02-.47,5.62-3.05,3.97-2.88-1.85.36-6.34,3.05-3.97Z" stroke="#000" stroke-miterlimit="10" stroke-width=".5"/>
    <path d="M179.46,56.17c2.34-.22,3.85,3.35,1.29,4.71-3.58,1.91-5.33-4.32-1.29-4.71Z" stroke="#000" stroke-miterlimit="10" stroke-width=".5"/>
    <path d="M179.21,68.47c3.09-.45,3.9,4.26,1.18,4.87-3.66.82-4.43-4.39-1.18-4.87Z" stroke="#000" stroke-miterlimit="10" stroke-width=".5"/>
  </g>
</svg>