<?xml version="1.0" encoding="UTF-8"?>
<svg id="Layer_1" data-name="Layer 1" xmlns="http://www.w3.org/2000/svg" width="331.15" height="267.82" viewBox="0 0 331.15 267.82">
  <g>
    <path d="M260.79,67.83v34.33c0,2.21-1.01,4.33-2.95,6.33v.03c-8.32,8.69-33.22,14.98-62.67,14.98s-54.35-6.29-62.67-14.98v-.03c-1.93-2-2.95-4.11-2.95-6.33v-34.33h.06c.68,6.94,11.58,13.08,28,16.83,10.62,2.43,23.58,3.84,37.55,3.84s26.93-1.41,37.55-3.84c16.43-3.75,27.33-9.89,28-16.83h.06Z" fill="#528fd8" stroke="#000" stroke-miterlimit="10" stroke-width="4"/>
    <path d="M260.79,114.84v38.11c0,1.93-.8,3.81-2.27,5.59-7.55,9.09-33.04,15.78-63.35,15.78s-55.79-6.69-63.35-15.78c-1.47-1.78-2.27-3.65-2.27-5.59v-38.11c0,8.35,14.71,15.57,36.11,19.07h.03c8.87,1.44,18.88,2.27,29.48,2.27s20.6-.83,29.48-2.27h.03c21.4-3.5,36.11-10.72,36.11-19.07Z" fill="#528fd8" stroke="#000" stroke-miterlimit="10" stroke-width="4"/>
    <path d="M260.79,164.1v36.57c0,11.79-29.39,21.37-65.62,21.37s-65.62-9.58-65.62-21.37v-36.57c0,7.77,12.71,14.56,31.75,18.3,9.89,1.97,21.46,3.07,33.87,3.07s23.98-1.11,33.87-3.07c19.04-3.75,31.75-10.53,31.75-18.3Z" fill="#528fd8" stroke="#000" stroke-miterlimit="10" stroke-width="4"/>
    <path d="M260.79,152.95v11.15c0,7.77-12.71,14.56-31.75,18.3-9.89,1.97-21.46,3.07-33.87,3.07s-23.98-1.11-33.87-3.07c-19.04-3.75-31.75-10.53-31.75-18.3v-11.15c0,1.93.8,3.81,2.27,5.59,7.55,9.09,33.04,15.78,63.35,15.78s55.79-6.69,63.35-15.78c1.47-1.78,2.27-3.65,2.27-5.59Z" fill="#0567b9" stroke="#000" stroke-miterlimit="10" stroke-width="4"/>
    <path d="M260.79,102.16v12.68c0,8.35-14.71,15.57-36.11,19.07h-.03c-8.87,1.44-18.89,2.27-29.48,2.27s-20.6-.83-29.48-2.27h-.03c-21.4-3.5-36.11-10.72-36.11-19.07v-12.68c0,2.21,1.01,4.33,2.95,6.33v.03c8.32,8.69,33.22,14.98,62.67,14.98s54.35-6.29,62.67-14.98v-.03c1.93-2,2.95-4.11,2.95-6.33Z" fill="#0567b9" stroke="#000" stroke-miterlimit="10" stroke-width="4"/>
    <path d="M260.79,67.12c0,.25,0,.46-.06.71-.68,6.94-11.58,13.08-28,16.83-10.62,2.43-23.58,3.84-37.55,3.84s-26.93-1.41-37.55-3.84c-16.43-3.75-27.33-9.89-28-16.83-.06-.25-.06-.46-.06-.71,0-11.79,29.39-21.34,65.62-21.34s65.62,9.55,65.62,21.34Z" fill="#b3caec" stroke="#000" stroke-miterlimit="10" stroke-width="4"/>
    <circle cx="223.68" cy="104.52" r="2.36" stroke="#000" stroke-miterlimit="10" stroke-width="4"/>
    <circle cx="241.99" cy="99.8" r="2.36" stroke="#000" stroke-miterlimit="10" stroke-width="4"/>
    <circle cx="223.68" cy="153.81" r="2.36" stroke="#000" stroke-miterlimit="10" stroke-width="4"/>
    <circle cx="241.99" cy="149.09" r="2.36" stroke="#000" stroke-miterlimit="10" stroke-width="4"/>
    <circle cx="223.68" cy="201.66" r="2.36" stroke="#000" stroke-miterlimit="10" stroke-width="4"/>
    <circle cx="241.99" cy="196.94" r="2.36" stroke="#000" stroke-miterlimit="10" stroke-width="4"/>
  </g>
  <g>
    <g>
      <path d="M81.82,175.53c-1.9,0-3.71-.71-5.08-2.01l-2.07-1.95c-1.43-1.35-2.25-3.19-2.31-5.17-.06-1.98.66-3.86,2-5.29l34.06-36.09c1.41-1.49,3.32-2.31,5.39-2.31,1.9,0,3.71.71,5.08,2.01l2.07,1.95c2.97,2.8,3.1,7.5.3,10.46l-34.06,36.09c-1.41,1.49-3.32,2.31-5.39,2.31h0Z" fill="#e98177"/>
      <path d="M113.82,124.71c1.39,0,2.7.52,3.7,1.46l2.07,1.95c1.04.98,1.64,2.32,1.68,3.77.04,1.45-.48,2.82-1.46,3.86l-34.06,36.09c-1.02,1.08-2.42,1.68-3.93,1.68-1.39,0-2.7-.52-3.7-1.46l-2.07-1.95c-2.17-2.04-2.26-5.47-.22-7.64l34.06-36.09c1.02-1.08,2.42-1.68,3.93-1.68M113.82,120.71c-2.5,0-5,.99-6.84,2.94l-34.06,36.09c-3.55,3.76-3.38,9.74.38,13.29l2.07,1.95c1.81,1.71,4.13,2.55,6.45,2.55,2.5,0,5-.99,6.84-2.94l34.06-36.09c3.55-3.76,3.38-9.74-.38-13.29l-2.07-1.95c-1.81-1.71-4.13-2.55-6.45-2.55h0Z"/>
    </g>
    <g>
      <path d="M110.83,152.55c-1.33,0-2.6-.5-3.56-1.41l-12.02-11.35c-2.08-1.96-2.17-5.25-.21-7.33l1.26-1.33c.98-1.04,2.32-1.62,3.77-1.62,1.33,0,2.6.5,3.56,1.41l12.02,11.35c2.08,1.96,2.17,5.25.21,7.33l-1.26,1.33c-.98,1.04-2.32,1.62-3.77,1.62h0Z" fill="#f3f5f7"/>
      <path d="M100.07,131.52c.82,0,1.6.31,2.18.86l12.02,11.35c1.28,1.21,1.34,3.23.13,4.5l-1.26,1.33c-.6.64-1.43.99-2.32.99-.82,0-1.6-.31-2.18-.86l-12.02-11.35c-1.28-1.21-1.34-3.23-.13-4.5l1.26-1.33c.6-.64,1.43-.99,2.32-.99M100.07,127.52c-1.91,0-3.82.75-5.23,2.24l-1.26,1.33c-2.71,2.87-2.58,7.44.29,10.16l12.02,11.35c1.38,1.3,3.16,1.95,4.93,1.95,1.91,0,3.82-.75,5.23-2.24l1.26-1.33c2.71-2.87,2.58-7.44-.29-10.16l-12.02-11.35c-1.38-1.3-3.16-1.95-4.93-1.95h0Z"/>
    </g>
    <path d="M110.71,67.73c-15.88,16.82-15.11,43.33,1.71,59.21,16.82,15.88,43.33,15.11,59.21-1.71,15.88-16.82,15.11-43.33-1.71-59.21-16.82-15.88-43.33-15.11-59.21,1.71ZM119.88,76.97c10.85-11.49,28.96-12.01,40.45-1.17,11.49,10.85,12.01,28.96,1.17,40.45-10.85,11.49-28.96,12.01-40.45,1.17-11.49-10.85-12.01-28.96-1.17-40.45Z" fill="#f99b8c" stroke="#000" stroke-miterlimit="10" stroke-width="4"/>
    <g>
      <path d="M140.65,130.05c-16.81,0-31.06-12.6-33.14-29.31-1.1-8.86,1.31-17.62,6.8-24.67,5.49-7.05,13.39-11.53,22.25-12.64,1.38-.17,2.78-.26,4.17-.26,16.81,0,31.06,12.6,33.14,29.31,1.1,8.86-1.31,17.62-6.8,24.67s-13.39,11.53-22.25,12.64c-1.38.17-2.78.26-4.17.26Z" fill="#eaf6ff"/>
      <path d="M140.73,65.17c15.63,0,29.18,11.65,31.16,27.56,2.14,17.23-10.09,32.93-27.32,35.08-1.32.16-2.63.24-3.92.24-15.63,0-29.18-11.65-31.16-27.56-2.14-17.23,10.09-32.93,27.32-35.08,1.32-.16,2.63-.24,3.92-.24M140.73,61.17c-1.47,0-2.95.09-4.41.27-9.39,1.17-17.77,5.93-23.58,13.39-5.82,7.47-8.37,16.75-7.21,26.15,2.2,17.71,17.3,31.07,35.13,31.07,1.47,0,2.95-.09,4.41-.27,9.39-1.17,17.77-5.93,23.58-13.39,5.82-7.47,8.37-16.75,7.21-26.15-2.2-17.71-17.3-31.07-35.13-31.07h0Z"/>
    </g>
    <g>
      <g>
        <g>
          <polygon points="121.07 111.59 130.46 74.65 145.59 78.49 155.92 95.86 150.05 118.95 121.07 111.59" fill="#f2f2f2"/>
          <path d="M131.54,76.47l13.08,3.32,9.69,16.3-5.35,21.04-26.07-6.63,8.65-34.03M129.37,72.83l-.74,2.91-8.65,34.03-.74,2.91,2.91.74,26.07,6.63,2.91.74.74-2.91,5.35-21.04.31-1.2-.64-1.07-9.69-16.3-.64-1.07-1.2-.31-13.08-3.32-2.91-.74h0Z"/>
        </g>
        <polyline points="154.89 96.86 140.27 93.14 143.99 78.52" fill="#f2f2f2" stroke="#000" stroke-miterlimit="10" stroke-width="3"/>
      </g>
      <rect x="129.83" y="87.94" width="4.17" height="21.32" transform="translate(28.35 -29.45) rotate(14.26)"/>
      <rect x="135.48" y="106.21" width="4.17" height="4.76" transform="translate(30.98 -30.54) rotate(14.26)"/>
      <rect x="143.97" y="101.73" width="4.17" height="11.29" transform="translate(30.94 -32.66) rotate(14.26)"/>
    </g>
  </g>
</svg>