<?xml version="1.0" encoding="UTF-8"?>
<svg id="Layer_1" data-name="Layer 1" xmlns="http://www.w3.org/2000/svg" width="331.15" height="267.82" viewBox="0 0 331.15 267.82">
  <circle cx="170.27" cy="133.91" r="95.56" fill="#c9f0ff" stroke="#000" stroke-miterlimit="10" stroke-width="5"/>
  <path d="M118.36,53.61c20.11,2.63,37.79,9.57,53.23,20.51,17.73-12.51,35.09-19.35,52.08-20.51" fill="none" stroke="#000" stroke-miterlimit="10" stroke-width="4"/>
  <path d="M74.83,120.15c17.46-5.43,38.12-5.94,60.04-4.5,31.12.93,58.37,9.83,83.3,23.51,16.92-18.87,25.84-39.81,28.52-62.36" fill="none" stroke="#000" stroke-miterlimit="10" stroke-width="4"/>
  <path d="M171.6,74.12c-15.16,6.34-27.17,20.77-36.72,41.53-16.52,28.75-24.6,60.3-18.51,96.56" fill="none" stroke="#000" stroke-miterlimit="10" stroke-width="4"/>
  <path d="M259.45,169.68c-6.22-11.21-21.29-21.2-41.28-30.52-27.05,33.95-60.74,58.66-101.81,73.05" fill="none" stroke="#000" stroke-miterlimit="10" stroke-width="4"/>
  <path d="M223.68,214.21c7.17-23.68,5.34-47.36-5.5-71.05" fill="none" stroke="#000" stroke-miterlimit="10" stroke-width="4"/>
  <circle cx="118.36" cy="53.61" r="9.51" fill="#ff815c" stroke="#000" stroke-miterlimit="10" stroke-width="4"/>
  <circle cx="74.83" cy="120.15" r="9.51" fill="#ff815c" stroke="#000" stroke-miterlimit="10" stroke-width="4"/>
  <circle cx="134.87" cy="115.65" r="9.51" fill="#ff815c" stroke="#000" stroke-miterlimit="10" stroke-width="4"/>
  <circle cx="171.6" cy="74.12" r="9.51" fill="#ff815c" stroke="#000" stroke-miterlimit="10" stroke-width="4"/>
  <circle cx="223.68" cy="53.61" r="9.51" fill="#ff815c" stroke="#000" stroke-miterlimit="10" stroke-width="4"/>
  <circle cx="246.69" cy="76.8" r="9.51" fill="#ff815c" stroke="#000" stroke-miterlimit="10" stroke-width="4"/>
  <circle cx="218.18" cy="139.16" r="9.51" fill="#ff815c" stroke="#000" stroke-miterlimit="10" stroke-width="4"/>
  <circle cx="223.68" cy="214.21" r="9.51" fill="#ff815c" stroke="#000" stroke-miterlimit="10" stroke-width="4"/>
  <circle cx="118.36" cy="212.21" r="9.51" fill="#ff815c" stroke="#000" stroke-miterlimit="10" stroke-width="4"/>
</svg>